Kalapi.ufo
<glyph name="exclam" format="1">
  <advance width="371"/>
  <unicode hex="0021"/>
  <outline>
    <contour>
      <point x="191" y="993" type="qcurve" smooth="yes"/>
      <point x="191" y="223" type="line" smooth="yes"/>
      <point x="191" y="206"/>
      <point x="162" y="206" type="qcurve" smooth="yes"/>
      <point x="133" y="206"/>
      <point x="133" y="223" type="qcurve" smooth="yes"/>
      <point x="133" y="993" type="line" smooth="yes"/>
      <point x="133" y="1011"/>
      <point x="162" y="1011" type="qcurve" smooth="yes"/>
      <point x="191" y="1011"/>
    </contour>
    <contour>
      <point x="236" y="74" type="qcurve" smooth="yes"/>
      <point x="236" y="43"/>
      <point x="190" y="-3"/>
      <point x="159" y="-3" type="qcurve" smooth="yes"/>
      <point x="129" y="-3"/>
      <point x="83" y="43"/>
      <point x="83" y="74" type="qcurve" smooth="yes"/>
      <point x="83" y="106"/>
      <point x="127" y="152"/>
      <point x="159" y="152" type="qcurve" smooth="yes"/>
      <point x="191" y="152"/>
      <point x="236" y="106"/>
    </contour>
  </outline>
</glyph>
<glyph name="quotedbl" format="1">
  <advance width="579"/>
  <unicode hex="0022"/>
  <outline>
    <contour>
      <point x="487" y="875" type="qcurve" smooth="yes"/>
      <point x="484" y="802"/>
      <point x="423" y="736" type="qcurve" smooth="yes"/>
      <point x="375" y="683"/>
      <point x="359" y="683" type="qcurve"/>
      <point x="342" y="721" type="line"/>
      <point x="391" y="746"/>
      <point x="429" y="831" type="qcurve"/>
      <point x="404" y="831"/>
      <point x="365" y="865"/>
      <point x="365" y="889" type="qcurve" smooth="yes"/>
      <point x="365" y="920"/>
      <point x="401" y="966"/>
      <point x="432" y="964" type="qcurve" smooth="yes"/>
      <point x="490" y="962"/>
    </contour>
    <contour>
      <point x="262" y="873" type="qcurve" smooth="yes"/>
      <point x="259" y="801"/>
      <point x="198" y="734" type="qcurve" smooth="yes"/>
      <point x="151" y="682"/>
      <point x="135" y="682" type="qcurve"/>
      <point x="120" y="717" type="line"/>
      <point x="164" y="740"/>
      <point x="204" y="830" type="qcurve"/>
      <point x="180" y="830"/>
      <point x="140" y="864"/>
      <point x="140" y="888" type="qcurve" smooth="yes"/>
      <point x="140" y="919"/>
      <point x="177" y="964"/>
      <point x="207" y="963" type="qcurve" smooth="yes"/>
      <point x="265" y="960"/>
    </contour>
  </outline>
</glyph>
<glyph name="numbersign" format="1">
  <advance width="707"/>
  <unicode hex="0023"/>
  <outline>
    <contour>
      <point x="659" y="443" type="line"/>
      <point x="473" y="443" type="line"/>
      <point x="442" y="284" type="line"/>
      <point x="637" y="287" type="line"/>
      <point x="630" y="230" type="line"/>
      <point x="434" y="230" type="line"/>
      <point x="392" y="0" type="line"/>
      <point x="332" y="0" type="line"/>
      <point x="375" y="235" type="line"/>
      <point x="248" y="235" type="line"/>
      <point x="204" y="-1" type="line"/>
      <point x="148" y="0" type="line"/>
      <point x="191" y="235" type="line"/>
      <point x="41" y="229" type="line"/>
      <point x="54" y="284" type="line"/>
      <point x="197" y="284" type="line"/>
      <point x="229" y="443" type="line"/>
      <point x="83" y="445" type="line"/>
      <point x="94" y="502" type="line"/>
      <point x="242" y="502" type="line"/>
      <point x="284" y="740" type="line"/>
      <point x="340" y="740" type="line"/>
      <point x="300" y="502" type="line"/>
      <point x="427" y="502" type="line"/>
      <point x="468" y="740" type="line"/>
      <point x="529" y="740" type="line"/>
      <point x="487" y="502" type="line"/>
      <point x="668" y="500" type="line"/>
    </contour>
    <contour>
      <point x="413" y="443" type="line"/>
      <point x="285" y="443" type="line"/>
      <point x="253" y="284" type="line"/>
      <point x="381" y="284" type="line"/>
    </contour>
  </outline>
</glyph>
<glyph name="dollar" format="1">
  <advance width="672"/>
  <unicode hex="0024"/>
  <outline>
    <contour>
      <point x="355" y="371" type="qcurve"/>
      <point x="355" y="41" type="line"/>
      <point x="418" y="57"/>
      <point x="500" y="155"/>
      <point x="500" y="219" type="qcurve" smooth="yes"/>
      <point x="500" y="274"/>
      <point x="452" y="314" type="qcurve" smooth="yes"/>
      <point x="423" y="339"/>
    </contour>
    <contour>
      <point x="310" y="447" type="qcurve"/>
      <point x="310" y="731" type="line"/>
      <point x="253" y="731"/>
      <point x="178" y="644"/>
      <point x="178" y="586" type="qcurve" smooth="yes"/>
      <point x="178" y="536"/>
      <point x="222" y="500" type="qcurve" smooth="yes"/>
      <point x="246" y="480"/>
    </contour>
    <contour>
      <point x="310" y="38" type="qcurve"/>
      <point x="310" y="392" type="line"/>
      <point x="212" y="443"/>
      <point x="187" y="463" type="qcurve" smooth="yes"/>
      <point x="129" y="510"/>
      <point x="129" y="584" type="qcurve" smooth="yes"/>
      <point x="129" y="666"/>
      <point x="227" y="773"/>
      <point x="310" y="780" type="qcurve"/>
      <point x="310" y="888" type="line"/>
      <point x="355" y="888" type="line"/>
      <point x="355" y="779" type="line"/>
      <point x="463" y="762"/>
      <point x="511" y="672" type="qcurve"/>
      <point x="473" y="641" type="line"/>
      <point x="426" y="723"/>
      <point x="355" y="731" type="qcurve"/>
      <point x="355" y="424" type="line"/>
      <point x="464" y="368"/>
      <point x="488" y="348" type="qcurve" smooth="yes"/>
      <point x="549" y="297"/>
      <point x="549" y="214" type="qcurve" smooth="yes"/>
      <point x="549" y="133"/>
      <point x="436" y="7"/>
      <point x="355" y="-7" type="qcurve"/>
      <point x="355" y="-125" type="line"/>
      <point x="310" y="-125" type="line"/>
      <point x="310" y="-9" type="line"/>
      <point x="143" y="-6"/>
      <point x="85" y="156" type="qcurve"/>
      <point x="126" y="175" type="line"/>
      <point x="181" y="33"/>
    </contour>
  </outline>
</glyph>
<glyph name="percent" format="1">
  <advance width="741"/>
  <unicode hex="0025"/>
  <outline>
    <contour>
      <point x="285" y="683" type="qcurve" smooth="yes"/>
      <point x="285" y="631"/>
      <point x="209" y="555"/>
      <point x="156" y="555" type="qcurve" smooth="yes"/>
      <point x="104" y="555"/>
      <point x="29" y="631"/>
      <point x="29" y="683" type="qcurve" smooth="yes"/>
      <point x="29" y="736"/>
      <point x="104" y="811"/>
      <point x="156" y="811" type="qcurve" smooth="yes"/>
      <point x="209" y="811"/>
      <point x="285" y="736"/>
    </contour>
    <contour>
      <point x="649" y="854" type="qcurve" smooth="yes"/>
      <point x="58" y="-43" type="line" smooth="yes"/>
      <point x="50" y="-55"/>
      <point x="26" y="-55" type="qcurve" smooth="yes"/>
      <point x="4" y="-55"/>
      <point x="4" y="-45" type="qcurve"/>
      <point x="5" y="-42"/>
      <point x="6" y="-41" type="qcurve" smooth="yes"/>
      <point x="599" y="869" type="line"/>
      <point x="605" y="876"/>
      <point x="618" y="876" type="qcurve"/>
      <point x="618" y="876" type="line"/>
      <point x="652" y="876"/>
      <point x="652" y="863" type="qcurve" smooth="yes"/>
      <point x="652" y="860"/>
    </contour>
    <contour>
      <point x="608" y="129" type="qcurve" smooth="yes"/>
      <point x="608" y="76"/>
      <point x="533" y="0"/>
      <point x="481" y="0" type="qcurve" smooth="yes"/>
      <point x="428" y="0"/>
      <point x="352" y="76"/>
      <point x="352" y="129" type="qcurve" smooth="yes"/>
      <point x="352" y="181"/>
      <point x="428" y="256"/>
      <point x="481" y="256" type="qcurve" smooth="yes"/>
      <point x="533" y="256"/>
      <point x="608" y="181"/>
    </contour>
    <contour>
      <point x="259" y="683" type="qcurve" smooth="yes"/>
      <point x="259" y="726"/>
      <point x="199" y="786"/>
      <point x="156" y="786" type="qcurve" smooth="yes"/>
      <point x="114" y="786"/>
      <point x="54" y="726"/>
      <point x="54" y="683" type="qcurve" smooth="yes"/>
      <point x="54" y="643"/>
      <point x="115" y="581"/>
      <point x="156" y="581" type="qcurve" smooth="yes"/>
      <point x="199" y="581"/>
      <point x="259" y="641"/>
    </contour>
    <contour>
      <point x="582" y="129" type="qcurve" smooth="yes"/>
      <point x="582" y="171"/>
      <point x="523" y="232"/>
      <point x="481" y="232" type="qcurve" smooth="yes"/>
      <point x="438" y="232"/>
      <point x="378" y="171"/>
      <point x="378" y="129" type="qcurve" smooth="yes"/>
      <point x="378" y="87"/>
      <point x="438" y="26"/>
      <point x="481" y="26" type="qcurve" smooth="yes"/>
      <point x="523" y="26"/>
      <point x="582" y="87"/>
    </contour>
  </outline>
</glyph>
<glyph name="ampersand" format="1">
  <advance width="741"/>
  <unicode hex="0026"/>
  <outline>
    <contour>
      <point x="584" y="-7" type="line"/>
      <point x="531" y="30"/>
      <point x="467" y="105" type="qcurve"/>
      <point x="367" y="-5"/>
      <point x="244" y="-5" type="qcurve" smooth="yes"/>
      <point x="148" y="-5"/>
      <point x="10" y="115"/>
      <point x="10" y="210" type="qcurve" smooth="yes"/>
      <point x="10" y="345"/>
      <point x="201" y="436" type="qcurve"/>
      <point x="107" y="544"/>
      <point x="107" y="608" type="qcurve" smooth="yes"/>
      <point x="107" y="680"/>
      <point x="163" y="726" type="qcurve" smooth="yes"/>
      <point x="216" y="769"/>
      <point x="289" y="769" type="qcurve" smooth="yes"/>
      <point x="360" y="769"/>
      <point x="459" y="685"/>
      <point x="459" y="615" type="qcurve" smooth="yes"/>
      <point x="459" y="513"/>
      <point x="305" y="432" type="qcurve"/>
      <point x="462" y="233" type="line"/>
      <point x="494" y="290"/>
      <point x="507" y="346" type="qcurve"/>
      <point x="584" y="331" type="line"/>
      <point x="560" y="239"/>
      <point x="516" y="172" type="qcurve"/>
      <point x="570" y="99"/>
      <point x="634" y="52" type="qcurve"/>
    </contour>
    <contour>
      <point x="289" y="711" type="qcurve" smooth="yes"/>
      <point x="247" y="711"/>
      <point x="188" y="656"/>
      <point x="188" y="614" type="qcurve" smooth="yes"/>
      <point x="188" y="575"/>
      <point x="229" y="527" type="qcurve" smooth="yes"/>
      <point x="276" y="472" type="line"/>
      <point x="387" y="537"/>
      <point x="387" y="610" type="qcurve" smooth="yes"/>
      <point x="387" y="711"/>
    </contour>
    <contour>
      <point x="238" y="400" type="line"/>
      <point x="94" y="315"/>
      <point x="94" y="222" type="qcurve" smooth="yes"/>
      <point x="94" y="158"/>
      <point x="184" y="64"/>
      <point x="248" y="64" type="qcurve" smooth="yes"/>
      <point x="355" y="64"/>
      <point x="424" y="171" type="qcurve"/>
    </contour>
  </outline>
</glyph>
<glyph name="parenleft" format="1">
  <advance width="579"/>
  <unicode hex="0028"/>
  <outline>
    <contour>
      <point x="433" y="-274" type="line"/>
      <point x="421" y="-290" type="line"/>
      <point x="401" y="-279"/>
      <point x="346" y="-213" type="qcurve" smooth="yes"/>
      <point x="135" y="40"/>
      <point x="125" y="410" type="qcurve"/>
      <point x="114" y="776"/>
      <point x="336" y="1038" type="qcurve" smooth="yes"/>
      <point x="344" y="1048"/>
      <point x="421" y="1125" type="qcurve"/>
      <point x="430" y="1116" type="line"/>
      <point x="178" y="777"/>
      <point x="181" y="410" type="qcurve" smooth="yes"/>
      <point x="182" y="261"/>
      <point x="232" y="97" type="qcurve" smooth="yes"/>
      <point x="284" y="-75"/>
      <point x="368" y="-187" type="qcurve" smooth="yes"/>
    </contour>
  </outline>
</glyph>
<glyph name="parenright" format="1">
  <advance width="579"/>
  <unicode hex="0029"/>
  <outline>
    <contour>
      <point x="400" y="410" type="qcurve" smooth="yes"/>
      <point x="390" y="39"/>
      <point x="178" y="-213" type="qcurve" smooth="yes"/>
      <point x="119" y="-284"/>
      <point x="103" y="-290" type="qcurve"/>
      <point x="91" y="-274" type="line"/>
      <point x="115" y="-245"/>
      <point x="156" y="-187" type="qcurve" smooth="yes"/>
      <point x="223" y="-93"/>
      <point x="277" y="51" type="qcurve" smooth="yes"/>
      <point x="342" y="227"/>
      <point x="343" y="410" type="qcurve" smooth="yes"/>
      <point x="346" y="776"/>
      <point x="94" y="1116" type="qcurve"/>
      <point x="103" y="1125" type="line"/>
      <point x="411" y="847"/>
    </contour>
  </outline>
</glyph>
<glyph name="asterisk" format="1">
  <advance width="475"/>
  <unicode hex="002A"/>
  <outline>
    <contour>
      <point x="348" y="828" type="qcurve" smooth="yes"/>
      <point x="314" y="822"/>
      <point x="271" y="883" type="qcurve"/>
      <point x="294" y="824"/>
      <point x="294" y="791" type="qcurve" smooth="yes"/>
      <point x="294" y="763"/>
      <point x="275" y="763" type="qcurve" smooth="yes"/>
      <point x="220" y="763"/>
      <point x="220" y="812" type="qcurve" smooth="yes"/>
      <point x="220" y="841"/>
      <point x="242" y="880" type="qcurve"/>
      <point x="180" y="801"/>
      <point x="149" y="801" type="qcurve" smooth="yes"/>
      <point x="140" y="801"/>
      <point x="135" y="811" type="qcurve" smooth="yes"/>
      <point x="121" y="840"/>
      <point x="135" y="869" type="qcurve" smooth="yes"/>
      <point x="149" y="899"/>
      <point x="226" y="901" type="qcurve"/>
      <point x="110" y="912"/>
      <point x="110" y="944" type="qcurve" smooth="yes"/>
      <point x="110" y="974"/>
      <point x="153" y="983" type="qcurve" smooth="yes"/>
      <point x="188" y="991"/>
      <point x="235" y="924" type="qcurve"/>
      <point x="201" y="992"/>
      <point x="201" y="1028" type="qcurve" smooth="yes"/>
      <point x="201" y="1053"/>
      <point x="220" y="1054" type="qcurve" smooth="yes"/>
      <point x="246" y="1056"/>
      <point x="284" y="1027"/>
      <point x="284" y="1001" type="qcurve" smooth="yes"/>
      <point x="284" y="972"/>
      <point x="262" y="930" type="qcurve"/>
      <point x="321" y="1018"/>
      <point x="350" y="1018" type="qcurve" smooth="yes"/>
      <point x="359" y="1018"/>
      <point x="365" y="1008" type="qcurve" smooth="yes"/>
      <point x="378" y="984"/>
      <point x="366" y="953" type="qcurve" smooth="yes"/>
      <point x="354" y="921"/>
      <point x="279" y="909" type="qcurve"/>
      <point x="395" y="904"/>
      <point x="394" y="870" type="qcurve" smooth="yes"/>
      <point x="393" y="837"/>
    </contour>
  </outline>
</glyph>
<glyph name="plus" format="1">
  <advance width="851"/>
  <unicode hex="002B"/>
  <outline>
    <contour>
      <point x="773" y="388" type="qcurve" smooth="yes"/>
      <point x="432" y="388" type="line"/>
      <point x="432" y="43" type="line" smooth="yes"/>
      <point x="432" y="30"/>
      <point x="410" y="30" type="qcurve" smooth="yes"/>
      <point x="388" y="30"/>
      <point x="388" y="43" type="qcurve" smooth="yes"/>
      <point x="388" y="388" type="line"/>
      <point x="43" y="388" type="line" smooth="yes"/>
      <point x="30" y="388"/>
      <point x="30" y="410" type="qcurve" smooth="yes"/>
      <point x="30" y="432"/>
      <point x="43" y="432" type="qcurve" smooth="yes"/>
      <point x="388" y="432" type="line"/>
      <point x="388" y="773" type="line" smooth="yes"/>
      <point x="388" y="786"/>
      <point x="410" y="786" type="qcurve" smooth="yes"/>
      <point x="432" y="786"/>
      <point x="432" y="773" type="qcurve" smooth="yes"/>
      <point x="432" y="432" type="line"/>
      <point x="773" y="432" type="line" smooth="yes"/>
      <point x="786" y="432"/>
      <point x="786" y="410" type="qcurve" smooth="yes"/>
      <point x="786" y="388"/>
    </contour>
  </outline>
</glyph>
<glyph name="comma" format="1">
  <advance width="290"/>
  <unicode hex="002C"/>
  <outline>
    <contour>
      <point x="182" y="41" type="qcurve" smooth="yes"/>
      <point x="179" y="-31"/>
      <point x="119" y="-98" type="qcurve" smooth="yes"/>
      <point x="72" y="-151"/>
      <point x="55" y="-151" type="qcurve"/>
      <point x="43" y="-139" type="line"/>
      <point x="125" y="-110"/>
      <point x="125" y="-3" type="qcurve"/>
      <point x="108" y="-3"/>
      <point x="90" y="7" type="qcurve" smooth="yes"/>
      <point x="58" y="25"/>
      <point x="58" y="55" type="qcurve" smooth="yes"/>
      <point x="58" y="87"/>
      <point x="96" y="130"/>
      <point x="127" y="130" type="qcurve" smooth="yes"/>
      <point x="158" y="130"/>
      <point x="172" y="99" type="qcurve" smooth="yes"/>
      <point x="184" y="73"/>
    </contour>
  </outline>
</glyph>
<glyph name="hyphen" format="1">
  <advance width="452"/>
  <unicode hex="002D"/>
  <unicode hex="00AD"/>
  <unicode hex="2212"/>
  <outline>
    <contour>
      <point x="359" y="385" type="line"/>
      <point x="49" y="385" type="line"/>
      <point x="49" y="432" type="line"/>
      <point x="359" y="432" type="line"/>
    </contour>
  </outline>
</glyph>
<glyph name="period" format="1">
  <advance width="452"/>
  <unicode hex="002E"/>
  <outline>
    <contour>
      <point x="368" y="74" type="qcurve" smooth="yes"/>
      <point x="368" y="43"/>
      <point x="322" y="-3"/>
      <point x="291" y="-3" type="qcurve" smooth="yes"/>
      <point x="260" y="-3"/>
      <point x="214" y="43"/>
      <point x="214" y="74" type="qcurve" smooth="yes"/>
      <point x="214" y="106"/>
      <point x="259" y="152"/>
      <point x="291" y="152" type="qcurve" smooth="yes"/>
      <point x="323" y="152"/>
      <point x="368" y="106"/>
    </contour>
  </outline>
</glyph>
<glyph name="slash" format="1">
  <advance width="452"/>
  <unicode hex="002F"/>
  <outline>
    <contour>
      <point x="298" y="1019" type="line"/>
      <point x="41" y="-203" type="line"/>
      <point x="17" y="-203" type="line"/>
      <point x="275" y="1019" type="line"/>
    </contour>
  </outline>
</glyph>
<glyph name="zero" format="1">
  <advance width="950"/>
  <unicode hex="0030"/>
  <outline>
    <contour>
      <point x="755" y="437" type="qcurve" smooth="yes"/>
      <point x="748" y="580"/>
      <point x="679" y="683" type="qcurve" smooth="yes"/>
      <point x="595" y="808"/>
      <point x="447" y="810" type="qcurve" smooth="yes"/>
      <point x="298" y="812"/>
      <point x="212" y="691" type="qcurve" smooth="yes"/>
      <point x="137" y="585"/>
      <point x="143" y="444" type="qcurve" smooth="yes"/>
      <point x="149" y="303"/>
      <point x="217" y="201" type="qcurve" smooth="yes"/>
      <point x="299" y="77"/>
      <point x="445" y="75" type="qcurve" smooth="yes"/>
      <point x="594" y="73"/>
      <point x="682" y="192" type="qcurve"/>
      <point x="761" y="297"/>
    </contour>
    <contour>
      <point x="808" y="435" type="qcurve" smooth="yes"/>
      <point x="815" y="270"/>
      <point x="723" y="146" type="qcurve" smooth="yes"/>
      <point x="618" y="6"/>
      <point x="443" y="8" type="qcurve" smooth="yes"/>
      <point x="271" y="10"/>
      <point x="174" y="157" type="qcurve"/>
      <point x="94" y="276"/>
      <point x="87" y="443" type="qcurve" smooth="yes"/>
      <point x="79" y="610"/>
      <point x="168" y="735" type="qcurve" smooth="yes"/>
      <point x="269" y="877"/>
      <point x="446" y="875" type="qcurve" smooth="yes"/>
      <point x="620" y="873"/>
      <point x="719" y="725" type="qcurve" smooth="yes"/>
      <point x="800" y="603"/>
    </contour>
  </outline>
</glyph>
<glyph name="one" format="1">
  <advance width="455"/>
  <unicode hex="0031"/>
  <outline>
    <contour>
      <point x="183" y="7" type="line"/>
      <point x="183" y="782" type="line"/>
      <point x="48" y="642" type="line"/>
      <point x="-5" y="679" type="line"/>
      <point x="184" y="871" type="line"/>
      <point x="243" y="869" type="line"/>
      <point x="243" y="5" type="line"/>
    </contour>
  </outline>
</glyph>
<glyph name="two" format="1">
  <advance width="676"/>
  <unicode hex="0032"/>
  <outline>
    <contour>
      <point x="-3" y="0" type="line"/>
      <point x="1" y="73"/>
      <point x="51" y="151" type="qcurve" smooth="yes"/>
      <point x="89" y="210"/>
      <point x="162" y="284" type="qcurve"/>
      <point x="223" y="342"/>
      <point x="283" y="399" type="qcurve"/>
      <point x="417" y="533"/>
      <point x="417" y="628" type="qcurve" smooth="yes"/>
      <point x="417" y="697"/>
      <point x="315" y="792"/>
      <point x="235" y="792" type="qcurve" smooth="yes"/>
      <point x="125" y="792"/>
      <point x="82" y="705" type="qcurve"/>
      <point x="8" y="707" type="line"/>
      <point x="28" y="777"/>
      <point x="102" y="818" type="qcurve" smooth="yes"/>
      <point x="173" y="858"/>
      <point x="258" y="853" type="qcurve" smooth="yes"/>
      <point x="350" y="847"/>
      <point x="409" y="789" type="qcurve" smooth="yes"/>
      <point x="477" y="723"/>
      <point x="477" y="605" type="qcurve" smooth="yes"/>
      <point x="477" y="537"/>
      <point x="422" y="462" type="qcurve" smooth="yes"/>
      <point x="384" y="411"/>
      <point x="296" y="330" type="qcurve"/>
      <point x="225" y="266" type="line"/>
      <point x="98" y="146"/>
      <point x="81" y="52" type="qcurve"/>
      <point x="539" y="52" type="line"/>
      <point x="539" y="0" type="line"/>
    </contour>
  </outline>
</glyph>
<glyph name="three" format="1">
  <advance width="696"/>
  <unicode hex="0033"/>
  <outline>
    <contour>
      <point x="294" y="3" type="qcurve" smooth="yes"/>
      <point x="276" y="2"/>
      <point x="259" y="2" type="qcurve" smooth="yes"/>
      <point x="157" y="2"/>
      <point x="88" y="60" type="qcurve" smooth="yes"/>
      <point x="24" y="114"/>
      <point x="2" y="207" type="qcurve"/>
      <point x="55" y="209" type="line"/>
      <point x="93" y="67"/>
      <point x="254" y="67" type="qcurve" smooth="yes"/>
      <point x="458" y="67"/>
      <point x="458" y="267" type="qcurve" smooth="yes"/>
      <point x="458" y="363"/>
      <point x="343" y="459" type="qcurve"/>
      <point x="283" y="406"/>
      <point x="178" y="399" type="qcurve"/>
      <point x="179" y="465" type="line"/>
      <point x="255" y="471"/>
      <point x="397" y="603"/>
      <point x="397" y="679" type="qcurve" smooth="yes"/>
      <point x="397" y="733"/>
      <point x="322" y="793"/>
      <point x="261" y="793" type="qcurve" smooth="yes"/>
      <point x="224" y="793"/>
      <point x="121" y="759" type="qcurve"/>
      <point x="121" y="828" type="line"/>
      <point x="211" y="865"/>
      <point x="273" y="865" type="qcurve" smooth="yes"/>
      <point x="337" y="865"/>
      <point x="384" y="831" type="qcurve"/>
      <point x="469" y="772"/>
      <point x="469" y="667" type="qcurve" smooth="yes"/>
      <point x="469" y="604"/>
      <point x="380" y="503" type="qcurve"/>
      <point x="464" y="439"/>
      <point x="532" y="332"/>
      <point x="532" y="261" type="qcurve" smooth="yes"/>
      <point x="532" y="26"/>
    </contour>
  </outline>
</glyph>
<glyph name="four" format="1">
  <advance width="831"/>
  <unicode hex="0034"/>
  <outline>
    <contour>
      <point x="670" y="173" type="line"/>
      <point x="463" y="173" type="line"/>
      <point x="463" y="-57" type="line"/>
      <point x="403" y="-57" type="line"/>
      <point x="403" y="173" type="line"/>
      <point x="68" y="173" type="line" smooth="yes"/>
      <point x="45" y="173"/>
      <point x="-32" y="172" type="qcurve"/>
      <point x="402" y="832" type="line"/>
      <point x="463" y="830" type="line"/>
      <point x="463" y="224" type="line"/>
      <point x="671" y="224" type="line"/>
    </contour>
    <contour>
      <point x="403" y="706" type="line"/>
      <point x="73" y="224" type="line"/>
      <point x="403" y="224" type="line"/>
    </contour>
  </outline>
</glyph>
<glyph name="five" format="1">
  <advance width="798"/>
  <unicode hex="0035"/>
  <outline>
    <contour>
      <point x="339" y="0" type="qcurve" smooth="yes"/>
      <point x="182" y="0"/>
      <point x="96" y="71" type="qcurve" smooth="yes"/>
      <point x="20" y="134"/>
      <point x="15" y="236" type="qcurve"/>
      <point x="69" y="236" type="line"/>
      <point x="112" y="55"/>
      <point x="326" y="55" type="qcurve" smooth="yes"/>
      <point x="425" y="55"/>
      <point x="547" y="179"/>
      <point x="547" y="270" type="qcurve" smooth="yes"/>
      <point x="547" y="362"/>
      <point x="478" y="412" type="qcurve" smooth="yes"/>
      <point x="416" y="458"/>
      <point x="316" y="458" type="qcurve" smooth="yes"/>
      <point x="237" y="458"/>
      <point x="166" y="429" type="qcurve"/>
      <point x="108" y="429" type="line"/>
      <point x="108" y="818" type="line"/>
      <point x="556" y="818" type="line"/>
      <point x="557" y="769" type="line"/>
      <point x="161" y="769" type="line"/>
      <point x="161" y="493" type="line"/>
      <point x="233" y="509"/>
      <point x="301" y="509" type="qcurve" smooth="yes"/>
      <point x="433" y="509"/>
      <point x="512" y="448" type="qcurve" smooth="yes"/>
      <point x="601" y="379"/>
      <point x="601" y="247" type="qcurve" smooth="yes"/>
      <point x="601" y="145"/>
      <point x="441" y="0"/>
    </contour>
  </outline>
</glyph>
<glyph name="six" format="1">
  <advance width="713"/>
  <unicode hex="0036"/>
  <outline>
    <contour>
      <point x="369" y="-8" type="qcurve" smooth="yes"/>
      <point x="192" y="-8"/>
      <point x="91" y="113" type="qcurve" smooth="yes"/>
      <point x="0" y="223"/>
      <point x="0" y="382" type="qcurve" smooth="yes"/>
      <point x="0" y="546"/>
      <point x="96" y="669" type="qcurve" smooth="yes"/>
      <point x="143" y="730"/>
      <point x="242" y="772" type="qcurve" smooth="yes"/>
      <point x="329" y="809"/>
      <point x="427" y="822" type="qcurve"/>
      <point x="427" y="765" type="line"/>
      <point x="332" y="757"/>
      <point x="278" y="736" type="qcurve" smooth="yes"/>
      <point x="215" y="711"/>
      <point x="163" y="654" type="qcurve" smooth="yes"/>
      <point x="61" y="540"/>
      <point x="61" y="374" type="qcurve" smooth="yes"/>
      <point x="61" y="354"/>
      <point x="65" y="313" type="qcurve"/>
      <point x="165" y="391"/>
      <point x="283" y="391" type="qcurve" smooth="yes"/>
      <point x="399" y="391"/>
      <point x="558" y="267"/>
      <point x="558" y="169" type="qcurve" smooth="yes"/>
      <point x="558" y="103"/>
      <point x="502" y="49" type="qcurve" smooth="yes"/>
      <point x="444" y="-8"/>
    </contour>
    <contour>
      <point x="359" y="327" type="qcurve" smooth="yes"/>
      <point x="323" y="337"/>
      <point x="263" y="335" type="qcurve" smooth="yes"/>
      <point x="160" y="332"/>
      <point x="82" y="265" type="qcurve"/>
      <point x="96" y="184"/>
      <point x="264" y="47"/>
      <point x="347" y="47" type="qcurve" smooth="yes"/>
      <point x="371" y="47"/>
      <point x="392" y="54" type="qcurve" smooth="yes"/>
      <point x="459" y="77"/>
      <point x="484" y="131" type="qcurve" smooth="yes"/>
      <point x="495" y="155"/>
      <point x="495" y="178" type="qcurve" smooth="yes"/>
      <point x="495" y="227"/>
      <point x="450" y="272" type="qcurve" smooth="yes"/>
      <point x="409" y="314"/>
    </contour>
  </outline>
</glyph>
<glyph name="seven" format="1">
  <advance width="809"/>
  <unicode hex="0037"/>
  <outline>
    <contour>
      <point x="554" y="815" type="line" smooth="yes"/>
      <point x="545" y="790"/>
      <point x="213" y="-13" type="qcurve"/>
      <point x="145" y="-13" type="line"/>
      <point x="475" y="781" type="line"/>
      <point x="-54" y="781" type="line"/>
      <point x="-55" y="833" type="line"/>
      <point x="560" y="833" type="line"/>
    </contour>
  </outline>
</glyph>
<glyph name="eight" format="1">
  <advance width="690"/>
  <unicode hex="0038"/>
  <outline>
    <contour>
      <point x="547" y="191" type="qcurve" smooth="yes"/>
      <point x="547" y="103"/>
      <point x="460" y="47" type="qcurve" smooth="yes"/>
      <point x="385" y="-1"/>
      <point x="292" y="-1" type="qcurve" smooth="yes"/>
      <point x="200" y="-1"/>
      <point x="126" y="57" type="qcurve" smooth="yes"/>
      <point x="47" y="120"/>
      <point x="47" y="209" type="qcurve" smooth="yes"/>
      <point x="47" y="277"/>
      <point x="112" y="338" type="qcurve" smooth="yes"/>
      <point x="142" y="366"/>
      <point x="237" y="428" type="qcurve"/>
      <point x="47" y="506"/>
      <point x="47" y="639" type="qcurve" smooth="yes"/>
      <point x="47" y="737"/>
      <point x="124" y="792" type="qcurve" smooth="yes"/>
      <point x="191" y="840"/>
      <point x="293" y="840" type="qcurve" smooth="yes"/>
      <point x="385" y="840"/>
      <point x="462" y="783" type="qcurve" smooth="yes"/>
      <point x="546" y="720"/>
      <point x="546" y="632" type="qcurve" smooth="yes"/>
      <point x="546" y="568"/>
      <point x="471" y="507" type="qcurve" smooth="yes"/>
      <point x="467" y="504"/>
      <point x="339" y="421" type="qcurve"/>
      <point x="420" y="387"/>
      <point x="477" y="332" type="qcurve" smooth="yes"/>
      <point x="547" y="265"/>
    </contour>
    <contour>
      <point x="291" y="451" type="line"/>
      <point x="331" y="468" type="line"/>
      <point x="431" y="534" type="line"/>
      <point x="488" y="580"/>
      <point x="488" y="628" type="qcurve" smooth="yes"/>
      <point x="488" y="696"/>
      <point x="424" y="743" type="qcurve"/>
      <point x="366" y="787"/>
      <point x="296" y="787" type="qcurve" smooth="yes"/>
      <point x="219" y="787"/>
      <point x="167" y="750" type="qcurve" smooth="yes"/>
      <point x="109" y="709"/>
      <point x="109" y="634" type="qcurve" smooth="yes"/>
      <point x="109" y="533"/>
      <point x="253" y="474" type="qcurve"/>
    </contour>
    <contour>
      <point x="293" y="392" type="line"/>
      <point x="255" y="369" type="line"/>
      <point x="111" y="309"/>
      <point x="111" y="208" type="qcurve" smooth="yes"/>
      <point x="111" y="134"/>
      <point x="169" y="92" type="qcurve" smooth="yes"/>
      <point x="220" y="56"/>
      <point x="298" y="56" type="qcurve" smooth="yes"/>
      <point x="368" y="56"/>
      <point x="426" y="99" type="qcurve" smooth="yes"/>
      <point x="490" y="147"/>
      <point x="490" y="214" type="qcurve" smooth="yes"/>
      <point x="490" y="262"/>
      <point x="433" y="308" type="qcurve" smooth="yes"/>
      <point x="429" y="312"/>
      <point x="333" y="374" type="qcurve"/>
    </contour>
  </outline>
</glyph>
<glyph name="nine" format="1">
  <advance width="724"/>
  <unicode hex="0039"/>
  <outline>
    <contour>
      <point x="519" y="156" type="qcurve" smooth="yes"/>
      <point x="428" y="-2"/>
      <point x="282" y="-2" type="qcurve" smooth="yes"/>
      <point x="164" y="-2"/>
      <point x="14" y="129"/>
      <point x="10" y="234" type="qcurve"/>
      <point x="72" y="233" type="line"/>
      <point x="81" y="145"/>
      <point x="137" y="95" type="qcurve" smooth="yes"/>
      <point x="189" y="49"/>
      <point x="261" y="49" type="qcurve" smooth="yes"/>
      <point x="397" y="49"/>
      <point x="463" y="183" type="qcurve" smooth="yes"/>
      <point x="520" y="297"/>
      <point x="520" y="437" type="qcurve" smooth="yes"/>
      <point x="520" y="487"/>
      <point x="511" y="554" type="qcurve"/>
      <point x="410" y="464"/>
      <point x="275" y="464" type="qcurve" smooth="yes"/>
      <point x="167" y="464"/>
      <point x="90" y="525" type="qcurve" smooth="yes"/>
      <point x="10" y="589"/>
      <point x="10" y="687" type="qcurve" smooth="yes"/>
      <point x="10" y="771"/>
      <point x="82" y="825" type="qcurve" smooth="yes"/>
      <point x="149" y="875"/>
      <point x="246" y="875" type="qcurve" smooth="yes"/>
      <point x="411" y="875"/>
      <point x="504" y="743" type="qcurve" smooth="yes"/>
      <point x="579" y="636"/>
      <point x="579" y="428" type="qcurve" smooth="yes"/>
      <point x="579" y="262"/>
    </contour>
    <contour>
      <point x="217" y="810" type="qcurve" smooth="yes"/>
      <point x="139" y="801"/>
      <point x="66" y="736"/>
      <point x="66" y="689" type="qcurve" smooth="yes"/>
      <point x="66" y="644"/>
      <point x="127" y="558"/>
      <point x="172" y="535" type="qcurve"/>
      <point x="228" y="508"/>
      <point x="317" y="519" type="qcurve" smooth="yes"/>
      <point x="423" y="533"/>
      <point x="492" y="608" type="qcurve"/>
      <point x="486" y="694"/>
      <point x="343" y="812"/>
      <point x="248" y="812" type="qcurve" smooth="yes"/>
      <point x="232" y="812"/>
    </contour>
  </outline>
</glyph>
<glyph name="colon" format="1">
  <advance width="290"/>
  <unicode hex="003A"/>
  <outline>
    <contour>
      <point x="217" y="582" type="qcurve" smooth="yes"/>
      <point x="217" y="550"/>
      <point x="172" y="504"/>
      <point x="140" y="504" type="qcurve" smooth="yes"/>
      <point x="108" y="504"/>
      <point x="62" y="550"/>
      <point x="62" y="582" type="qcurve" smooth="yes"/>
      <point x="62" y="614"/>
      <point x="108" y="659"/>
      <point x="140" y="659" type="qcurve" smooth="yes"/>
      <point x="171" y="659"/>
      <point x="217" y="613"/>
    </contour>
    <contour>
      <point x="217" y="216" type="qcurve" smooth="yes"/>
      <point x="217" y="185"/>
      <point x="171" y="139"/>
      <point x="140" y="139" type="qcurve" smooth="yes"/>
      <point x="108" y="139"/>
      <point x="62" y="184"/>
      <point x="62" y="216" type="qcurve" smooth="yes"/>
      <point x="62" y="248"/>
      <point x="108" y="292"/>
      <point x="140" y="292" type="qcurve" smooth="yes"/>
      <point x="171" y="292"/>
      <point x="217" y="246"/>
    </contour>
  </outline>
</glyph>
<glyph name="semicolon" format="1">
  <advance width="290"/>
  <unicode hex="003B"/>
  <outline>
    <contour>
      <point x="201" y="401" type="qcurve" smooth="yes"/>
      <point x="201" y="369"/>
      <point x="157" y="323"/>
      <point x="125" y="323" type="qcurve" smooth="yes"/>
      <point x="92" y="323"/>
      <point x="48" y="369"/>
      <point x="48" y="401" type="qcurve" smooth="yes"/>
      <point x="48" y="432"/>
      <point x="94" y="478"/>
      <point x="125" y="478" type="qcurve" smooth="yes"/>
      <point x="155" y="478"/>
      <point x="201" y="432"/>
    </contour>
    <contour>
      <point x="198" y="51" type="qcurve" smooth="yes"/>
      <point x="198" y="-21"/>
      <point x="129" y="-93" type="qcurve" smooth="yes"/>
      <point x="73" y="-151"/>
      <point x="55" y="-151" type="qcurve"/>
      <point x="43" y="-139" type="line"/>
      <point x="125" y="-110"/>
      <point x="125" y="-3" type="qcurve"/>
      <point x="107" y="-3"/>
      <point x="85" y="7" type="qcurve" smooth="yes"/>
      <point x="48" y="25"/>
      <point x="48" y="55" type="qcurve" smooth="yes"/>
      <point x="47" y="146"/>
      <point x="127" y="146" type="qcurve" smooth="yes"/>
      <point x="198" y="146"/>
    </contour>
  </outline>
</glyph>
<glyph name="less" format="1">
  <advance width="579"/>
  <unicode hex="003C"/>
  <outline>
    <contour>
      <point x="466" y="728" type="qcurve" smooth="yes"/>
      <point x="472" y="735"/>
      <point x="495" y="697"/>
      <point x="489" y="691" type="qcurve" smooth="yes"/>
      <point x="472" y="672"/>
      <point x="310" y="542" type="qcurve" smooth="yes"/>
      <point x="154" y="416"/>
      <point x="107" y="356" type="qcurve"/>
      <point x="140" y="319"/>
      <point x="314" y="223" type="qcurve" smooth="yes"/>
      <point x="483" y="130"/>
      <point x="539" y="59" type="qcurve" smooth="yes"/>
      <point x="542" y="56"/>
      <point x="542" y="49" type="qcurve" smooth="yes"/>
      <point x="542" y="38"/>
      <point x="523" y="9"/>
      <point x="513" y="9" type="qcurve" smooth="yes"/>
      <point x="507" y="9"/>
      <point x="504" y="13" type="qcurve" smooth="yes"/>
      <point x="471" y="55"/>
      <point x="106" y="292"/>
      <point x="58" y="361" type="qcurve"/>
      <point x="79" y="390"/>
      <point x="237" y="523" type="qcurve"/>
      <point x="409" y="666"/>
    </contour>
  </outline>
</glyph>
<glyph name="equal" format="1">
  <advance width="851"/>
  <unicode hex="003D"/>
  <outline>
    <contour>
      <point x="773" y="508" type="line"/>
      <point x="43" y="508" type="line"/>
      <point x="43" y="552" type="line"/>
      <point x="773" y="552" type="line"/>
    </contour>
    <contour>
      <point x="773" y="262" type="line"/>
      <point x="43" y="262" type="line"/>
      <point x="43" y="306" type="line"/>
      <point x="773" y="306" type="line"/>
    </contour>
  </outline>
</glyph>
<glyph name="greater" format="1">
  <advance width="579"/>
  <unicode hex="003E"/>
  <outline>
    <contour>
      <point x="129" y="728" type="qcurve" smooth="yes"/>
      <point x="123" y="735"/>
      <point x="103" y="705"/>
      <point x="103" y="696" type="qcurve" smooth="yes"/>
      <point x="103" y="692"/>
      <point x="106" y="691" type="qcurve"/>
      <point x="121" y="674"/>
      <point x="285" y="542" type="qcurve" smooth="yes"/>
      <point x="442" y="415"/>
      <point x="488" y="356" type="qcurve"/>
      <point x="455" y="319"/>
      <point x="281" y="223" type="qcurve" smooth="yes"/>
      <point x="112" y="130"/>
      <point x="56" y="59" type="qcurve" smooth="yes"/>
      <point x="54" y="56"/>
      <point x="54" y="49" type="qcurve" smooth="yes"/>
      <point x="54" y="37"/>
      <point x="71" y="9"/>
      <point x="83" y="9" type="qcurve" smooth="yes"/>
      <point x="87" y="9"/>
      <point x="91" y="13" type="qcurve" smooth="yes"/>
      <point x="128" y="63"/>
      <point x="487" y="289"/>
      <point x="537" y="361" type="qcurve"/>
      <point x="515" y="390"/>
      <point x="356" y="523" type="qcurve" smooth="yes"/>
      <point x="185" y="666"/>
    </contour>
  </outline>
</glyph>
<glyph name="question" format="1">
  <advance width="579"/>
  <unicode hex="003F"/>
  <outline>
    <contour>
      <point x="472" y="851" type="qcurve" smooth="yes"/>
      <point x="472" y="766"/>
      <point x="414" y="702" type="qcurve" smooth="yes"/>
      <point x="298" y="573" type="line" smooth="yes"/>
      <point x="195" y="458"/>
      <point x="195" y="356" type="qcurve" smooth="yes"/>
      <point x="195" y="333"/>
      <point x="235" y="247"/>
      <point x="235" y="255" type="qcurve"/>
      <point x="211" y="255" type="line"/>
      <point x="171" y="385"/>
      <point x="171" y="411" type="qcurve" smooth="yes"/>
      <point x="172" y="515"/>
      <point x="295" y="643" type="qcurve" smooth="yes"/>
      <point x="379" y="730" type="line"/>
      <point x="421" y="783"/>
      <point x="423" y="866" type="qcurve" smooth="yes"/>
      <point x="424" y="945"/>
      <point x="323" y="1043"/>
      <point x="243" y="1045" type="qcurve" smooth="yes"/>
      <point x="155" y="1048"/>
      <point x="113" y="973" type="qcurve"/>
      <point x="141" y="973"/>
      <point x="180" y="934"/>
      <point x="180" y="906" type="qcurve" smooth="yes"/>
      <point x="180" y="883"/>
      <point x="140" y="849"/>
      <point x="116" y="849" type="qcurve" smooth="yes"/>
      <point x="55" y="849"/>
      <point x="55" y="918" type="qcurve" smooth="yes"/>
      <point x="55" y="977"/>
      <point x="124" y="1023" type="qcurve" smooth="yes"/>
      <point x="186" y="1064"/>
      <point x="249" y="1066" type="qcurve" smooth="yes"/>
      <point x="343" y="1068"/>
      <point x="472" y="945"/>
    </contour>
    <contour>
      <point x="300" y="74" type="qcurve" smooth="yes"/>
      <point x="300" y="42"/>
      <point x="255" y="-3"/>
      <point x="223" y="-3" type="qcurve" smooth="yes"/>
      <point x="192" y="-3"/>
      <point x="146" y="43"/>
      <point x="146" y="74" type="qcurve" smooth="yes"/>
      <point x="146" y="106"/>
      <point x="191" y="152"/>
      <point x="223" y="152" type="qcurve" smooth="yes"/>
      <point x="255" y="152"/>
      <point x="300" y="106"/>
    </contour>
  </outline>
</glyph>
<glyph name="at" format="1">
  <advance width="741"/>
  <unicode hex="0040"/>
  <outline>
    <contour>
      <point x="413" y="216" type="qcurve"/>
      <point x="361" y="155"/>
      <point x="301" y="155" type="qcurve" smooth="yes"/>
      <point x="227" y="155"/>
      <point x="190" y="232" type="qcurve" smooth="yes"/>
      <point x="171" y="270"/>
      <point x="171" y="319" type="qcurve" smooth="yes"/>
      <point x="171" y="375"/>
      <point x="227" y="489"/>
      <point x="317" y="549"/>
      <point x="359" y="549" type="qcurve" smooth="yes"/>
      <point x="427" y="549"/>
      <point x="468" y="482" type="qcurve"/>
      <point x="481" y="539" type="line"/>
      <point x="544" y="539" type="line"/>
      <point x="492" y="295" type="line" smooth="yes"/>
      <point x="482" y="248"/>
      <point x="482" y="239" type="qcurve" smooth="yes"/>
      <point x="482" y="216"/>
      <point x="507" y="216" type="qcurve" smooth="yes"/>
      <point x="538" y="216"/>
      <point x="575" y="252" type="qcurve" smooth="yes"/>
      <point x="605" y="281"/>
      <point x="623" y="316" type="qcurve" smooth="yes"/>
      <point x="647" y="364"/>
      <point x="647" y="416" type="qcurve" smooth="yes"/>
      <point x="647" y="522"/>
      <point x="569" y="585" type="qcurve" smooth="yes"/>
      <point x="497" y="644"/>
      <point x="388" y="644" type="qcurve" smooth="yes"/>
      <point x="204" y="644"/>
      <point x="125" y="491" type="qcurve" smooth="yes"/>
      <point x="87" y="418"/>
      <point x="87" y="332" type="qcurve" smooth="yes"/>
      <point x="87" y="140"/>
      <point x="252" y="80" type="qcurve" smooth="yes"/>
      <point x="323" y="54"/>
      <point x="398" y="54" type="qcurve" smooth="yes"/>
      <point x="576" y="54"/>
      <point x="653" y="164" type="qcurve"/>
      <point x="718" y="164" type="line"/>
      <point x="673" y="70"/>
      <point x="549" y="23" type="qcurve" smooth="yes"/>
      <point x="487" y="0"/>
      <point x="400" y="0" type="qcurve" smooth="yes"/>
      <point x="236" y="0"/>
      <point x="139" y="79" type="qcurve" smooth="yes"/>
      <point x="33" y="166"/>
      <point x="33" y="326" type="qcurve" smooth="yes"/>
      <point x="33" y="424"/>
      <point x="74" y="507" type="qcurve"/>
      <point x="117" y="597"/>
      <point x="275" y="696"/>
      <point x="391" y="696" type="qcurve" smooth="yes"/>
      <point x="584" y="696"/>
      <point x="666" y="550" type="qcurve" smooth="yes"/>
      <point x="701" y="488"/>
      <point x="701" y="414" type="qcurve" smooth="yes"/>
      <point x="701" y="321"/>
      <point x="639" y="241" type="qcurve" smooth="yes"/>
      <point x="572" y="155"/>
      <point x="482" y="155" type="qcurve" smooth="yes"/>
      <point x="434" y="155"/>
      <point x="420" y="184" type="qcurve" smooth="yes"/>
      <point x="416" y="193"/>
    </contour>
    <contour>
      <point x="229" y="311" type="qcurve" smooth="yes"/>
      <point x="229" y="272"/>
      <point x="247" y="242" type="qcurve" smooth="yes"/>
      <point x="269" y="207"/>
      <point x="306" y="207" type="qcurve" smooth="yes"/>
      <point x="365" y="207"/>
      <point x="404" y="271" type="qcurve"/>
      <point x="439" y="326"/>
      <point x="439" y="390" type="qcurve" smooth="yes"/>
      <point x="439" y="432"/>
      <point x="418" y="460" type="qcurve" smooth="yes"/>
      <point x="395" y="492"/>
      <point x="355" y="492" type="qcurve" smooth="yes"/>
      <point x="297" y="492"/>
      <point x="260" y="428" type="qcurve" smooth="yes"/>
      <point x="229" y="374"/>
    </contour>
  </outline>
</glyph>
<glyph name="bracketleft" format="1">
  <advance width="452"/>
  <unicode hex="005B"/>
  <outline>
    <contour>
      <point x="361" y="-282" type="line"/>
      <point x="19" y="-282" type="line"/>
      <point x="19" y="1124" type="line"/>
      <point x="361" y="1124" type="line"/>
      <point x="361" y="1064" type="line"/>
      <point x="140" y="1064" type="line"/>
      <point x="140" y="-222" type="line"/>
      <point x="361" y="-222" type="line"/>
    </contour>
  </outline>
</glyph>
<glyph name="backslash" format="1">
  <advance width="452"/>
  <unicode hex="005C"/>
  <outline>
    <contour>
      <point x="17" y="1019" type="line"/>
      <point x="275" y="-203" type="line"/>
      <point x="298" y="-203" type="line"/>
      <point x="41" y="1019" type="line"/>
    </contour>
  </outline>
</glyph>
<glyph name="bracketright" format="1">
  <advance width="452"/>
  <unicode hex="005D"/>
  <outline>
    <contour>
      <point x="19" y="-282" type="line"/>
      <point x="361" y="-282" type="line"/>
      <point x="361" y="1124" type="line"/>
      <point x="19" y="1124" type="line"/>
      <point x="19" y="1064" type="line"/>
      <point x="239" y="1064" type="line"/>
      <point x="239" y="-222" type="line"/>
      <point x="19" y="-222" type="line"/>
    </contour>
  </outline>
</glyph>
<glyph name="asciicircum" format="1">
  <advance width="672"/>
  <unicode hex="005E"/>
  <outline>
    <contour>
      <point x="572" y="598" type="qcurve" smooth="yes"/>
      <point x="578" y="592"/>
      <point x="541" y="569"/>
      <point x="534" y="575" type="qcurve" smooth="yes"/>
      <point x="515" y="593"/>
      <point x="432" y="699" type="qcurve" smooth="yes"/>
      <point x="352" y="801"/>
      <point x="292" y="847" type="qcurve"/>
      <point x="253" y="807"/>
      <point x="114" y="617"/>
      <point x="65" y="578" type="qcurve" smooth="yes"/>
      <point x="61" y="575"/>
      <point x="55" y="575" type="qcurve" smooth="yes"/>
      <point x="44" y="575"/>
      <point x="14" y="593"/>
      <point x="14" y="604" type="qcurve" smooth="yes"/>
      <point x="14" y="609"/>
      <point x="19" y="613" type="qcurve" smooth="yes"/>
      <point x="72" y="651"/>
      <point x="242" y="857"/>
      <point x="297" y="896" type="qcurve"/>
      <point x="327" y="875"/>
      <point x="413" y="772" type="qcurve" smooth="yes"/>
      <point x="511" y="654"/>
    </contour>
  </outline>
</glyph>
<glyph name="underscore" format="1">
  <advance width="851"/>
  <unicode hex="005F"/>
  <outline>
    <contour>
      <point x="769" y="-113" type="line"/>
      <point x="39" y="-113" type="line"/>
      <point x="39" y="-68" type="line"/>
      <point x="769" y="-68" type="line"/>
    </contour>
  </outline>
</glyph>
<glyph name="braceleft" format="1">
  <advance width="452"/>
  <unicode hex="007B"/>
  <outline>
    <contour>
      <point x="337" y="-282" type="qcurve"/>
      <point x="139" y="-282"/>
      <point x="139" y="-46" type="qcurve" smooth="yes"/>
      <point x="139" y="226" type="line" smooth="yes"/>
      <point x="139" y="311"/>
      <point x="126" y="345" type="qcurve" smooth="yes"/>
      <point x="106" y="397"/>
      <point x="42" y="423" type="qcurve"/>
      <point x="139" y="466"/>
      <point x="139" y="617" type="qcurve" smooth="yes"/>
      <point x="139" y="917" type="line" smooth="yes"/>
      <point x="139" y="1111"/>
      <point x="337" y="1132" type="qcurve"/>
      <point x="245" y="1073"/>
      <point x="245" y="940" type="qcurve" smooth="yes"/>
      <point x="245" y="640" type="line" smooth="yes"/>
      <point x="245" y="538"/>
      <point x="180" y="469" type="qcurve" smooth="yes"/>
      <point x="158" y="447"/>
      <point x="113" y="421" type="qcurve"/>
      <point x="165" y="389"/>
      <point x="178" y="375" type="qcurve" smooth="yes"/>
      <point x="245" y="306"/>
      <point x="245" y="191" type="qcurve" smooth="yes"/>
      <point x="245" y="-93" type="line" smooth="yes"/>
      <point x="245" y="-223"/>
    </contour>
  </outline>
</glyph>
<glyph name="bar" format="1">
  <advance width="290"/>
  <unicode hex="007C"/>
  <outline>
    <contour>
      <point x="168" y="1035" type="line"/>
      <point x="171" y="-214" type="line"/>
      <point x="148" y="-219" type="line"/>
      <point x="145" y="1031" type="line"/>
    </contour>
  </outline>
</glyph>
<glyph name="braceright" format="1">
  <advance width="452"/>
  <unicode hex="007D"/>
  <outline>
    <contour>
      <point x="42" y="-282" type="qcurve"/>
      <point x="240" y="-282"/>
      <point x="240" y="-46" type="qcurve" smooth="yes"/>
      <point x="240" y="226" type="line" smooth="yes"/>
      <point x="240" y="311"/>
      <point x="253" y="345" type="qcurve" smooth="yes"/>
      <point x="274" y="397"/>
      <point x="337" y="423" type="qcurve"/>
      <point x="240" y="466"/>
      <point x="240" y="617" type="qcurve" smooth="yes"/>
      <point x="240" y="917" type="line" smooth="yes"/>
      <point x="240" y="1111"/>
      <point x="42" y="1132" type="qcurve"/>
      <point x="135" y="1073"/>
      <point x="135" y="940" type="qcurve" smooth="yes"/>
      <point x="135" y="640" type="line" smooth="yes"/>
      <point x="135" y="538"/>
      <point x="200" y="469" type="qcurve" smooth="yes"/>
      <point x="221" y="447"/>
      <point x="266" y="421" type="qcurve"/>
      <point x="214" y="389"/>
      <point x="201" y="375" type="qcurve" smooth="yes"/>
      <point x="135" y="306"/>
      <point x="135" y="191" type="qcurve" smooth="yes"/>
      <point x="135" y="-93" type="line" smooth="yes"/>
      <point x="135" y="-223"/>
    </contour>
  </outline>
</glyph>
<glyph name="asciitilde" format="1">
  <advance width="672"/>
  <unicode hex="007E"/>
  <outline>
    <contour>
      <point x="569" y="408" type="line"/>
      <point x="505" y="353"/>
      <point x="429" y="353" type="qcurve" smooth="yes"/>
      <point x="387" y="353"/>
      <point x="334" y="368" type="qcurve" smooth="yes"/>
      <point x="219" y="400"/>
      <point x="171" y="400" type="qcurve" smooth="yes"/>
      <point x="107" y="400"/>
      <point x="71" y="353" type="qcurve"/>
      <point x="36" y="385" type="line"/>
      <point x="88" y="440"/>
      <point x="177" y="440" type="qcurve" smooth="yes"/>
      <point x="216" y="440"/>
      <point x="366" y="404" type="qcurve" smooth="yes"/>
      <point x="414" y="392"/>
      <point x="430" y="392" type="qcurve" smooth="yes"/>
      <point x="481" y="392"/>
      <point x="536" y="440" type="qcurve"/>
    </contour>
  </outline>
</glyph>
<glyph name="onequarter" format="1">
  <advance width="961"/>
  <unicode hex="00BC"/>
  <outline>
    <contour>
      <point x="602" y="756" type="line"/>
      <point x="255" y="0" type="line"/>
      <point x="214" y="19" type="line"/>
      <point x="562" y="775" type="line"/>
    </contour>
    <contour>
      <point x="712" y="253" type="qcurve"/>
      <point x="640" y="180"/>
      <point x="640" y="120" type="qcurve" smooth="yes"/>
      <point x="640" y="88"/>
      <point x="677" y="48"/>
      <point x="708" y="51" type="qcurve"/>
      <point x="773" y="55"/>
      <point x="773" y="127" type="qcurve" smooth="yes"/>
      <point x="773" y="184"/>
    </contour>
    <contour>
      <point x="695" y="272" type="qcurve"/>
      <point x="650" y="316"/>
      <point x="620" y="340" type="qcurve" smooth="yes"/>
      <point x="611" y="346"/>
      <point x="524" y="414" type="qcurve" smooth="yes"/>
      <point x="521" y="416"/>
      <point x="521" y="420" type="qcurve"/>
      <point x="521" y="420" type="line"/>
      <point x="521" y="437"/>
      <point x="536" y="437" type="qcurve" smooth="yes"/>
      <point x="539" y="437"/>
      <point x="542" y="436" type="qcurve" smooth="yes"/>
      <point x="623" y="384"/>
      <point x="714" y="292" type="qcurve"/>
      <point x="786" y="361" type="line" smooth="yes"/>
      <point x="806" y="379"/>
      <point x="834" y="400" type="qcurve" smooth="yes"/>
      <point x="877" y="432" type="line"/>
      <point x="884" y="432"/>
      <point x="889" y="423" type="qcurve" smooth="yes"/>
      <point x="895" y="413"/>
      <point x="889" y="408" type="qcurve" smooth="yes"/>
      <point x="845" y="375"/>
      <point x="807" y="340" type="qcurve" smooth="yes"/>
      <point x="733" y="272" type="line"/>
      <point x="802" y="194"/>
      <point x="802" y="127" type="qcurve" smooth="yes"/>
      <point x="802" y="86"/>
      <point x="750" y="25"/>
      <point x="710" y="22" type="qcurve" smooth="yes"/>
      <point x="666" y="19"/>
      <point x="613" y="76"/>
      <point x="613" y="120" type="qcurve" smooth="yes"/>
      <point x="613" y="188"/>
    </contour>
    <contour>
      <point x="303" y="626" type="qcurve"/>
      <point x="251" y="603"/>
      <point x="213" y="603" type="qcurve" smooth="yes"/>
      <point x="204" y="603"/>
      <point x="190" y="604"/>
      <point x="190" y="617" type="qcurve" smooth="yes"/>
      <point x="190" y="632"/>
      <point x="198" y="631" type="qcurve" smooth="yes"/>
      <point x="246" y="630"/>
      <point x="288" y="647" type="qcurve" smooth="yes"/>
      <point x="341" y="668"/>
      <point x="343" y="710" type="qcurve" smooth="yes"/>
      <point x="348" y="785"/>
      <point x="239" y="785" type="qcurve" smooth="yes"/>
      <point x="202" y="785"/>
      <point x="157" y="768"/>
      <point x="119" y="756" type="qcurve" smooth="yes"/>
      <point x="106" y="752"/>
      <point x="106" y="775" type="qcurve" smooth="yes"/>
      <point x="106" y="780"/>
      <point x="110" y="783" type="qcurve" smooth="yes"/>
      <point x="175" y="814"/>
      <point x="239" y="814" type="qcurve" smooth="yes"/>
      <point x="293" y="814"/>
      <point x="331" y="788" type="qcurve" smooth="yes"/>
      <point x="376" y="758"/>
      <point x="372" y="707" type="qcurve" smooth="yes"/>
      <point x="369" y="661"/>
      <point x="324" y="636" type="qcurve"/>
      <point x="376" y="572"/>
      <point x="376" y="520" type="qcurve" smooth="yes"/>
      <point x="376" y="470"/>
      <point x="306" y="416"/>
      <point x="255" y="416" type="qcurve" smooth="yes"/>
      <point x="181" y="416"/>
      <point x="36" y="594" type="qcurve"/>
      <point x="36" y="598" type="line" smooth="yes"/>
      <point x="36" y="604"/>
      <point x="51" y="613"/>
      <point x="56" y="611" type="qcurve"/>
      <point x="107" y="553"/>
      <point x="162" y="495" type="qcurve" smooth="yes"/>
      <point x="211" y="443"/>
      <point x="255" y="443" type="qcurve" smooth="yes"/>
      <point x="293" y="443"/>
      <point x="319" y="462" type="qcurve" smooth="yes"/>
      <point x="349" y="483"/>
      <point x="349" y="520" type="qcurve" smooth="yes"/>
      <point x="349" y="571"/>
    </contour>
  </outline>
</glyph>
<glyph name="onehalf" format="1">
  <advance width="961"/>
  <unicode hex="00BD"/>
  <outline>
    <contour>
      <point x="571" y="756" type="line"/>
      <point x="223" y="0" type="line"/>
      <point x="182" y="19" type="line"/>
      <point x="530" y="775" type="line"/>
    </contour>
    <contour>
      <point x="182" y="663" type="qcurve"/>
      <point x="182" y="741" type="line" smooth="yes"/>
      <point x="182" y="775"/>
      <point x="142" y="775" type="qcurve" smooth="yes"/>
      <point x="109" y="775"/>
      <point x="62" y="724"/>
      <point x="62" y="691" type="qcurve" smooth="yes"/>
      <point x="62" y="666"/>
      <point x="97" y="634"/>
      <point x="122" y="634" type="qcurve" smooth="yes"/>
      <point x="145" y="634"/>
    </contour>
    <contour>
      <point x="182" y="628" type="line"/>
      <point x="151" y="607"/>
      <point x="122" y="607" type="qcurve" smooth="yes"/>
      <point x="85" y="607"/>
      <point x="35" y="654"/>
      <point x="35" y="691" type="qcurve" smooth="yes"/>
      <point x="35" y="738"/>
      <point x="95" y="804"/>
      <point x="142" y="804" type="qcurve" smooth="yes"/>
      <point x="169" y="804"/>
      <point x="211" y="769"/>
      <point x="211" y="743" type="qcurve" smooth="yes"/>
      <point x="211" y="473" type="line" smooth="yes"/>
      <point x="211" y="427"/>
      <point x="249" y="427" type="qcurve" smooth="yes"/>
      <point x="265" y="427"/>
      <point x="279" y="439" type="qcurve"/>
      <point x="284" y="445"/>
      <point x="298" y="465" type="qcurve" smooth="yes"/>
      <point x="300" y="468"/>
      <point x="304" y="468" type="qcurve"/>
      <point x="304" y="468" type="line"/>
      <point x="310" y="468"/>
      <point x="323" y="453"/>
      <point x="320" y="447" type="qcurve" smooth="yes"/>
      <point x="290" y="398"/>
      <point x="249" y="398" type="qcurve" smooth="yes"/>
      <point x="182" y="398"/>
      <point x="182" y="473" type="qcurve" smooth="yes"/>
    </contour>
    <contour>
      <point x="568" y="171" type="qcurve"/>
      <point x="560" y="191"/>
      <point x="547" y="194" type="qcurve" smooth="yes"/>
      <point x="529" y="198"/>
      <point x="529" y="184" type="qcurve"/>
      <point x="527" y="171"/>
    </contour>
    <contour>
      <point x="591" y="174" type="qcurve"/>
      <point x="672" y="188"/>
      <point x="672" y="277" type="qcurve" smooth="yes"/>
      <point x="672" y="324"/>
      <point x="613" y="381"/>
      <point x="565" y="381" type="qcurve" smooth="yes"/>
      <point x="551" y="381"/>
      <point x="501" y="363"/>
      <point x="489" y="362" type="qcurve" smooth="yes"/>
      <point x="473" y="360"/>
      <point x="473" y="379" type="qcurve" smooth="yes"/>
      <point x="473" y="384"/>
      <point x="476" y="387" type="qcurve"/>
      <point x="513" y="408"/>
      <point x="565" y="408" type="qcurve" smooth="yes"/>
      <point x="626" y="408"/>
      <point x="701" y="337"/>
      <point x="701" y="277" type="qcurve" smooth="yes"/>
      <point x="701" y="169"/>
      <point x="601" y="146" type="qcurve"/>
      <point x="603" y="138"/>
      <point x="611" y="114" type="qcurve" smooth="yes"/>
      <point x="639" y="35"/>
      <point x="682" y="35" type="qcurve" smooth="yes"/>
      <point x="694" y="35"/>
      <point x="742" y="52"/>
      <point x="750" y="52" type="qcurve"/>
      <point x="750" y="52" type="line"/>
      <point x="766" y="52"/>
      <point x="766" y="36" type="qcurve" smooth="yes"/>
      <point x="766" y="33"/>
      <point x="763" y="30" type="qcurve" smooth="yes"/>
      <point x="734" y="7"/>
      <point x="682" y="7" type="qcurve" smooth="yes"/>
      <point x="626" y="7"/>
      <point x="586" y="104" type="qcurve" smooth="yes"/>
      <point x="580" y="119"/>
      <point x="576" y="143" type="qcurve"/>
      <point x="501" y="143"/>
      <point x="504" y="184" type="qcurve" smooth="yes"/>
      <point x="506" y="220"/>
      <point x="544" y="217" type="qcurve" smooth="yes"/>
      <point x="574" y="215"/>
    </contour>
  </outline>
</glyph>
<glyph name="threequarters" format="1">
  <advance width="961"/>
  <unicode hex="00BE"/>
  <outline>
    <contour>
      <point x="571" y="756" type="line"/>
      <point x="223" y="0" type="line"/>
      <point x="182" y="19" type="line"/>
      <point x="530" y="775" type="line"/>
    </contour>
    <contour>
      <point x="182" y="663" type="qcurve"/>
      <point x="182" y="741" type="line" smooth="yes"/>
      <point x="182" y="775"/>
      <point x="142" y="775" type="qcurve" smooth="yes"/>
      <point x="109" y="775"/>
      <point x="62" y="724"/>
      <point x="62" y="691" type="qcurve" smooth="yes"/>
      <point x="62" y="666"/>
      <point x="97" y="634"/>
      <point x="122" y="634" type="qcurve" smooth="yes"/>
      <point x="145" y="634"/>
    </contour>
    <contour>
      <point x="182" y="628" type="line"/>
      <point x="151" y="607"/>
      <point x="122" y="607" type="qcurve" smooth="yes"/>
      <point x="85" y="607"/>
      <point x="35" y="654"/>
      <point x="35" y="691" type="qcurve" smooth="yes"/>
      <point x="35" y="738"/>
      <point x="95" y="804"/>
      <point x="142" y="804" type="qcurve" smooth="yes"/>
      <point x="169" y="804"/>
      <point x="211" y="769"/>
      <point x="211" y="743" type="qcurve" smooth="yes"/>
      <point x="211" y="473" type="line" smooth="yes"/>
      <point x="211" y="427"/>
      <point x="249" y="427" type="qcurve" smooth="yes"/>
      <point x="265" y="427"/>
      <point x="279" y="439" type="qcurve"/>
      <point x="284" y="445"/>
      <point x="298" y="465" type="qcurve" smooth="yes"/>
      <point x="300" y="468"/>
      <point x="304" y="468" type="qcurve"/>
      <point x="304" y="468" type="line"/>
      <point x="310" y="468"/>
      <point x="323" y="453"/>
      <point x="320" y="447" type="qcurve" smooth="yes"/>
      <point x="290" y="398"/>
      <point x="249" y="398" type="qcurve" smooth="yes"/>
      <point x="182" y="398"/>
      <point x="182" y="473" type="qcurve" smooth="yes"/>
    </contour>
    <contour>
      <point x="681" y="253" type="qcurve"/>
      <point x="608" y="180"/>
      <point x="608" y="120" type="qcurve" smooth="yes"/>
      <point x="608" y="89"/>
      <point x="644" y="48"/>
      <point x="675" y="51" type="qcurve" smooth="yes"/>
      <point x="741" y="57"/>
      <point x="741" y="127" type="qcurve" smooth="yes"/>
      <point x="741" y="184"/>
    </contour>
    <contour>
      <point x="663" y="272" type="qcurve"/>
      <point x="606" y="325"/>
      <point x="588" y="340" type="qcurve" smooth="yes"/>
      <point x="581" y="346"/>
      <point x="491" y="414" type="qcurve" smooth="yes"/>
      <point x="489" y="416"/>
      <point x="489" y="420" type="qcurve"/>
      <point x="489" y="420" type="line"/>
      <point x="489" y="437"/>
      <point x="504" y="437" type="qcurve" smooth="yes"/>
      <point x="507" y="437"/>
      <point x="508" y="436" type="qcurve" smooth="yes"/>
      <point x="589" y="384"/>
      <point x="681" y="292" type="qcurve"/>
      <point x="754" y="361" type="line" smooth="yes"/>
      <point x="772" y="377"/>
      <point x="802" y="400" type="qcurve" smooth="yes"/>
      <point x="844" y="432" type="line"/>
      <point x="860" y="432"/>
      <point x="860" y="414" type="qcurve" smooth="yes"/>
      <point x="860" y="411"/>
      <point x="857" y="408" type="qcurve" smooth="yes"/>
      <point x="817" y="380"/>
      <point x="773" y="340" type="qcurve" smooth="yes"/>
      <point x="699" y="272" type="line"/>
      <point x="769" y="194"/>
      <point x="769" y="127" type="qcurve" smooth="yes"/>
      <point x="769" y="86"/>
      <point x="717" y="25"/>
      <point x="676" y="22" type="qcurve" smooth="yes"/>
      <point x="633" y="19"/>
      <point x="581" y="76"/>
      <point x="581" y="120" type="qcurve" smooth="yes"/>
      <point x="581" y="188"/>
    </contour>
  </outline>
</glyph>
<glyph name="divide" format="1">
  <advance width="851"/>
  <unicode hex="00F7"/>
  <outline>
    <contour>
      <point x="802" y="368" type="line"/>
      <point x="72" y="368" type="line"/>
      <point x="72" y="413" type="line"/>
      <point x="802" y="413" type="line"/>
    </contour>
    <contour>
      <point x="527" y="582" type="qcurve" smooth="yes"/>
      <point x="527" y="550"/>
      <point x="482" y="504"/>
      <point x="450" y="504" type="qcurve" smooth="yes"/>
      <point x="417" y="504"/>
      <point x="372" y="549"/>
      <point x="372" y="582" type="qcurve" smooth="yes"/>
      <point x="372" y="616"/>
      <point x="417" y="659"/>
      <point x="450" y="659" type="qcurve" smooth="yes"/>
      <point x="481" y="659"/>
      <point x="527" y="613"/>
    </contour>
    <contour>
      <point x="527" y="194" type="qcurve" smooth="yes"/>
      <point x="527" y="163"/>
      <point x="481" y="117"/>
      <point x="450" y="117" type="qcurve" smooth="yes"/>
      <point x="417" y="117"/>
      <point x="372" y="161"/>
      <point x="372" y="194" type="qcurve" smooth="yes"/>
      <point x="372" y="227"/>
      <point x="417" y="271"/>
      <point x="450" y="271" type="qcurve" smooth="yes"/>
      <point x="481" y="271"/>
      <point x="527" y="225"/>
    </contour>
  </outline>
</glyph>
<glyph name="uni0304" format="1">
  <advance width="0"/>
  <unicode hex="0304"/>
  <outline>
    <contour>
      <point x="-297" y="583" type="move" name="_Anchor-3"/>
    </contour>
    <contour>
      <point x="-297" y="583" type="move" name="_Anchor-2"/>
    </contour>
    <contour>
      <point x="0" y="853" type="line"/>
      <point x="-683" y="853" type="line"/>
      <point x="-683" y="898" type="line"/>
      <point x="0" y="898" type="line"/>
    </contour>
  </outline>
</glyph>
<glyph name="uni0306" format="1">
  <advance width="0"/>
  <unicode hex="0306"/>
  <outline>
    <contour>
      <point x="-308" y="682" type="move" name="_Anchor-3"/>
    </contour>
    <contour>
      <point x="-308" y="682" type="move" name="_Anchor-2"/>
    </contour>
    <contour>
      <point x="22" y="1036" type="qcurve" smooth="yes"/>
      <point x="-68" y="945"/>
      <point x="-122" y="912" type="qcurve" smooth="yes"/>
      <point x="-221" y="852"/>
      <point x="-349" y="852" type="qcurve" smooth="yes"/>
      <point x="-482" y="852"/>
      <point x="-585" y="917" type="qcurve" smooth="yes"/>
      <point x="-636" y="949"/>
      <point x="-722" y="1038" type="qcurve" smooth="yes"/>
      <point x="-724" y="1040"/>
      <point x="-724" y="1043" type="qcurve" smooth="yes"/>
      <point x="-724" y="1059"/>
      <point x="-666" y="1059" type="qcurve" smooth="yes"/>
      <point x="-644" y="1059"/>
      <point x="-636" y="1053" type="qcurve" smooth="yes"/>
      <point x="-595" y="1019"/>
      <point x="-526" y="955" type="qcurve"/>
      <point x="-449" y="901"/>
      <point x="-349" y="901" type="qcurve" smooth="yes"/>
      <point x="-247" y="901"/>
      <point x="-170" y="953" type="qcurve" smooth="yes"/>
      <point x="-129" y="980"/>
      <point x="-64" y="1051" type="qcurve" smooth="yes"/>
      <point x="-58" y="1058"/>
      <point x="-37" y="1058" type="qcurve" smooth="yes"/>
      <point x="24" y="1058"/>
      <point x="24" y="1041" type="qcurve" smooth="yes"/>
      <point x="24" y="1038"/>
    </contour>
  </outline>
</glyph>
<glyph name="uni0951" format="1">
  <advance width="0"/>
  <unicode hex="0951"/>
  <outline>
    <contour>
      <point x="-66" y="660" type="move" name="_Anchor-3"/>
    </contour>
    <contour>
      <point x="-66" y="660" type="move" name="_Anchor-2"/>
    </contour>
    <contour>
      <point x="-71" y="1121" type="qcurve" smooth="yes"/>
      <point x="-71" y="862" type="line" smooth="yes"/>
      <point x="-71" y="853"/>
      <point x="-100" y="853" type="qcurve" smooth="yes"/>
      <point x="-129" y="853"/>
      <point x="-129" y="862" type="qcurve" smooth="yes"/>
      <point x="-129" y="1121" type="line" smooth="yes"/>
      <point x="-129" y="1129"/>
      <point x="-100" y="1129" type="qcurve" smooth="yes"/>
      <point x="-71" y="1129"/>
    </contour>
  </outline>
</glyph>
<glyph name="uni0952" format="1">
  <advance width="0"/>
  <unicode hex="0952"/>
  <outline>
    <contour>
      <point x="-253" y="165" type="move" name="_Anchor-8"/>
    </contour>
    <contour>
      <point x="-253" y="165" type="move" name="_Anchor-7"/>
    </contour>
    <contour>
      <point x="-112" y="-42" type="line"/>
      <point x="-723" y="-42" type="line"/>
      <point x="-723" y="3" type="line"/>
      <point x="-112" y="3" type="line"/>
    </contour>
  </outline>
</glyph>
<glyph name="uni0953" format="1">
  <advance width="0"/>
  <unicode hex="0953"/>
  <outline>
    <contour>
      <point x="-55" y="660" type="move" name="_Anchor-3"/>
    </contour>
    <contour>
      <point x="-55" y="660" type="move" name="_Anchor-2"/>
    </contour>
    <contour>
      <point x="-212" y="1076" type="qcurve" smooth="yes"/>
      <point x="-29" y="893" type="line" smooth="yes"/>
      <point x="-28" y="891"/>
      <point x="-28" y="889" type="qcurve" smooth="yes"/>
      <point x="-28" y="882"/>
      <point x="-59" y="851"/>
      <point x="-67" y="851" type="qcurve" smooth="yes"/>
      <point x="-69" y="851"/>
      <point x="-70" y="852" type="qcurve" smooth="yes"/>
      <point x="-253" y="1035" type="line" smooth="yes"/>
      <point x="-255" y="1037"/>
      <point x="-255" y="1039" type="qcurve" smooth="yes"/>
      <point x="-255" y="1046"/>
      <point x="-224" y="1078"/>
      <point x="-216" y="1078" type="qcurve" smooth="yes"/>
      <point x="-214" y="1078"/>
    </contour>
  </outline>
</glyph>
<glyph name="uni0954" format="1">
  <advance width="0"/>
  <unicode hex="0954"/>
  <outline>
    <contour>
      <point x="-143" y="682" type="move" name="_Anchor-3"/>
    </contour>
    <contour>
      <point x="-143" y="682" type="move" name="_Anchor-2"/>
    </contour>
    <contour>
      <point x="-64" y="1076" type="line" smooth="yes"/>
      <point x="-56" y="1084"/>
      <point x="-28" y="1056" type="qcurve" smooth="yes"/>
      <point x="-15" y="1043"/>
      <point x="-23" y="1035" type="qcurve" smooth="yes"/>
      <point x="-207" y="852" type="line" smooth="yes"/>
      <point x="-208" y="851"/>
      <point x="-210" y="851" type="qcurve" smooth="yes"/>
      <point x="-218" y="851"/>
      <point x="-249" y="882"/>
      <point x="-249" y="889" type="qcurve" smooth="yes"/>
      <point x="-249" y="892"/>
      <point x="-248" y="893" type="qcurve" smooth="yes"/>
    </contour>
  </outline>
</glyph>
<glyph name="uni0964" format="1">
  <advance width="241"/>
  <unicode hex="0964"/>
  <outline>
    <contour>
      <point x="112" y="0" type="qcurve" smooth="yes"/>
      <point x="81" y="0"/>
      <point x="81" y="20" type="qcurve" smooth="yes"/>
      <point x="81" y="785" type="line" smooth="yes"/>
      <point x="81" y="805"/>
      <point x="112" y="805" type="qcurve" smooth="yes"/>
      <point x="143" y="805"/>
      <point x="143" y="785" type="qcurve" smooth="yes"/>
      <point x="143" y="20" type="line" smooth="yes"/>
      <point x="143" y="0"/>
    </contour>
  </outline>
</glyph>
<glyph name="uni0965" format="1">
  <advance width="483"/>
  <unicode hex="0965"/>
  <outline>
    <contour>
      <point x="330" y="0" type="qcurve" smooth="yes"/>
      <point x="298" y="0"/>
      <point x="298" y="20" type="qcurve" smooth="yes"/>
      <point x="298" y="785" type="line" smooth="yes"/>
      <point x="298" y="805"/>
      <point x="330" y="805" type="qcurve" smooth="yes"/>
      <point x="361" y="805"/>
      <point x="361" y="785" type="qcurve" smooth="yes"/>
      <point x="361" y="20" type="line" smooth="yes"/>
      <point x="361" y="0"/>
    </contour>
    <contour>
      <point x="142" y="0" type="qcurve" smooth="yes"/>
      <point x="111" y="0"/>
      <point x="111" y="20" type="qcurve" smooth="yes"/>
      <point x="111" y="785" type="line" smooth="yes"/>
      <point x="111" y="805"/>
      <point x="142" y="805" type="qcurve" smooth="yes"/>
      <point x="173" y="805"/>
      <point x="173" y="785" type="qcurve" smooth="yes"/>
      <point x="173" y="20" type="line" smooth="yes"/>
      <point x="173" y="0"/>
    </contour>
  </outline>
</glyph>
<glyph name="uni0970" format="1">
  <advance width="520"/>
  <unicode hex="0970"/>
  <outline>
    <contour>
      <point x="426" y="208" type="qcurve" smooth="yes"/>
      <point x="426" y="101"/>
      <point x="363" y="101" type="qcurve"/>
      <point x="363" y="38"/>
      <point x="256" y="38" type="qcurve" smooth="yes"/>
      <point x="148" y="38"/>
      <point x="148" y="101" type="qcurve"/>
      <point x="85" y="101"/>
      <point x="85" y="208" type="qcurve" smooth="yes"/>
      <point x="85" y="318"/>
      <point x="148" y="318" type="qcurve"/>
      <point x="148" y="380"/>
      <point x="256" y="380" type="qcurve" smooth="yes"/>
      <point x="363" y="380"/>
      <point x="363" y="318" type="qcurve"/>
      <point x="426" y="318"/>
    </contour>
    <contour>
      <point x="374" y="209" type="qcurve" smooth="yes"/>
      <point x="374" y="284"/>
      <point x="331" y="284" type="qcurve"/>
      <point x="331" y="328"/>
      <point x="256" y="328" type="qcurve" smooth="yes"/>
      <point x="181" y="328"/>
      <point x="181" y="284" type="qcurve"/>
      <point x="137" y="284"/>
      <point x="137" y="209" type="qcurve" smooth="yes"/>
      <point x="137" y="133"/>
      <point x="181" y="133" type="qcurve"/>
      <point x="181" y="90"/>
      <point x="256" y="90" type="qcurve" smooth="yes"/>
      <point x="331" y="90"/>
      <point x="331" y="133" type="qcurve"/>
      <point x="374" y="133"/>
    </contour>
  </outline>
</glyph>
<glyph name="uni0A81" format="1">
  <advance width="0"/>
  <unicode hex="0A81"/>
  <outline>
    <contour>
      <point x="-319" y="715" type="move" name="_Anchor-4"/>
    </contour>
    <contour>
      <point x="-319" y="715" type="move" name="_Anchor-1"/>
    </contour>
    <contour>
      <point x="-284" y="1089" type="qcurve" smooth="yes"/>
      <point x="-284" y="1065"/>
      <point x="-318" y="1025"/>
      <point x="-342" y="1025" type="qcurve" smooth="yes"/>
      <point x="-366" y="1025"/>
      <point x="-400" y="1065"/>
      <point x="-400" y="1089" type="qcurve" smooth="yes"/>
      <point x="-400" y="1113"/>
      <point x="-366" y="1154"/>
      <point x="-342" y="1154" type="qcurve" smooth="yes"/>
      <point x="-318" y="1154"/>
      <point x="-284" y="1113"/>
    </contour>
    <contour>
      <point x="-106" y="1119" type="qcurve" smooth="yes"/>
      <point x="-197" y="879"/>
      <point x="-349" y="876" type="qcurve" smooth="yes"/>
      <point x="-433" y="874"/>
      <point x="-504" y="957" type="qcurve" smooth="yes"/>
      <point x="-517" y="972"/>
      <point x="-599" y="1102"/>
      <point x="-599" y="1111" type="qcurve"/>
      <point x="-599" y="1111" type="line"/>
      <point x="-599" y="1124"/>
      <point x="-576" y="1132" type="qcurve" smooth="yes"/>
      <point x="-553" y="1141"/>
      <point x="-546" y="1128" type="qcurve" smooth="yes"/>
      <point x="-483" y="1010"/>
      <point x="-469" y="992" type="qcurve" smooth="yes"/>
      <point x="-420" y="931"/>
      <point x="-349" y="933" type="qcurve" smooth="yes"/>
      <point x="-282" y="934"/>
      <point x="-232" y="1001" type="qcurve" smooth="yes"/>
      <point x="-207" y="1033"/>
      <point x="-164" y="1125" type="qcurve" smooth="yes"/>
      <point x="-157" y="1138"/>
      <point x="-133" y="1138" type="qcurve" smooth="yes"/>
      <point x="-99" y="1138"/>
    </contour>
  </outline>
</glyph>
<glyph name="uni0A82" format="1">
  <advance width="0"/>
  <unicode hex="0A82"/>
  <outline>
    <contour>
      <point x="-158" y="552" type="move" name="_Anchor-4"/>
    </contour>
    <contour>
      <point x="-158" y="552" type="move" name="_Anchor-1"/>
    </contour>
    <contour>
      <point x="-158" y="552" type="move" name="_Anchor-0"/>
    </contour>
    <contour>
      <point x="-126" y="913" type="qcurve" smooth="yes"/>
      <point x="-126" y="885"/>
      <point x="-168" y="842"/>
      <point x="-195" y="842" type="qcurve" smooth="yes"/>
      <point x="-225" y="842"/>
      <point x="-266" y="884"/>
      <point x="-266" y="913" type="qcurve" smooth="yes"/>
      <point x="-266" y="940"/>
      <point x="-223" y="982"/>
      <point x="-195" y="982" type="qcurve" smooth="yes"/>
      <point x="-168" y="982"/>
      <point x="-126" y="940"/>
    </contour>
  </outline>
</glyph>
<glyph name="uni0A83" format="1">
  <advance width="290"/>
  <unicode hex="0A83"/>
  <outline>
    <contour>
      <point x="220" y="539" type="qcurve" smooth="yes"/>
      <point x="220" y="507"/>
      <point x="175" y="460"/>
      <point x="143" y="460" type="qcurve" smooth="yes"/>
      <point x="111" y="460"/>
      <point x="65" y="507"/>
      <point x="65" y="539" type="qcurve" smooth="yes"/>
      <point x="65" y="571"/>
      <point x="111" y="615"/>
      <point x="143" y="615" type="qcurve" smooth="yes"/>
      <point x="174" y="615"/>
      <point x="220" y="569"/>
    </contour>
    <contour>
      <point x="220" y="172" type="qcurve" smooth="yes"/>
      <point x="220" y="142"/>
      <point x="174" y="96"/>
      <point x="143" y="96" type="qcurve" smooth="yes"/>
      <point x="111" y="96"/>
      <point x="65" y="140"/>
      <point x="65" y="172" type="qcurve" smooth="yes"/>
      <point x="65" y="204"/>
      <point x="111" y="249"/>
      <point x="143" y="249" type="qcurve" smooth="yes"/>
      <point x="174" y="249"/>
      <point x="220" y="203"/>
    </contour>
  </outline>
</glyph>
<glyph name="uni0A85" format="1">
  <advance width="1193"/>
  <unicode hex="0A85"/>
  <outline>
    <contour>
      <point x="869" y="737" type="move" name="Anchor-4"/>
    </contour>
    <contour>
      <point x="1098" y="88" type="qcurve" smooth="yes"/>
      <point x="1033" y="-20"/>
      <point x="972" y="-20" type="qcurve" smooth="yes"/>
      <point x="902" y="-20"/>
      <point x="818" y="53"/>
      <point x="818" y="122" type="qcurve" smooth="yes"/>
      <point x="818" y="788" type="line" smooth="yes"/>
      <point x="818" y="805"/>
      <point x="847" y="805" type="qcurve" smooth="yes"/>
      <point x="876" y="805"/>
      <point x="876" y="788" type="qcurve" smooth="yes"/>
      <point x="876" y="122" type="line" smooth="yes"/>
      <point x="876" y="38"/>
      <point x="972" y="38" type="qcurve" smooth="yes"/>
      <point x="998" y="38"/>
      <point x="1044" y="111" type="qcurve"/>
      <point x="1050" y="117"/>
      <point x="1060" y="117" type="qcurve"/>
      <point x="1060" y="117" type="line"/>
      <point x="1073" y="117"/>
      <point x="1088" y="110" type="qcurve"/>
      <point x="1105" y="100"/>
    </contour>
    <contour>
      <point x="161" y="381" type="qcurve"/>
      <point x="145" y="404"/>
      <point x="117" y="404" type="qcurve" smooth="yes"/>
      <point x="106" y="404"/>
      <point x="101" y="395" type="qcurve" smooth="yes"/>
      <point x="97" y="388"/>
      <point x="103" y="382" type="qcurve" smooth="yes"/>
      <point x="120" y="364"/>
    </contour>
    <contour>
      <point x="591" y="494" type="qcurve"/>
      <point x="592" y="502"/>
      <point x="583" y="540"/>
      <point x="575" y="536" type="qcurve" smooth="yes"/>
      <point x="569" y="533"/>
      <point x="569" y="527" type="qcurve" smooth="yes"/>
      <point x="569" y="505"/>
    </contour>
    <contour>
      <point x="822" y="436" type="line"/>
      <point x="802" y="418"/>
      <point x="750" y="395" type="qcurve"/>
      <point x="737" y="392"/>
      <point x="720" y="392" type="qcurve" smooth="yes"/>
      <point x="688" y="392"/>
      <point x="641" y="401" type="qcurve"/>
      <point x="625" y="330"/>
      <point x="569" y="259" type="qcurve" smooth="yes"/>
      <point x="508" y="181"/>
      <point x="410" y="180" type="qcurve"/>
      <point x="315" y="178"/>
      <point x="213" y="285" type="qcurve" smooth="yes"/>
      <point x="200" y="298"/>
      <point x="187" y="330" type="qcurve"/>
      <point x="149" y="319"/>
      <point x="122" y="319" type="qcurve" smooth="yes"/>
      <point x="42" y="319"/>
      <point x="42" y="394" type="qcurve" smooth="yes"/>
      <point x="42" y="459"/>
      <point x="116" y="462" type="qcurve" smooth="yes"/>
      <point x="161" y="464"/>
      <point x="204" y="398" type="qcurve"/>
      <point x="349" y="465"/>
      <point x="349" y="589" type="qcurve" smooth="yes"/>
      <point x="349" y="634"/>
      <point x="319" y="681" type="qcurve"/>
      <point x="282" y="736"/>
      <point x="213" y="736" type="qcurve" smooth="yes"/>
      <point x="182" y="736"/>
      <point x="126" y="710" type="qcurve" smooth="yes"/>
      <point x="70" y="683" type="line"/>
      <point x="58" y="683"/>
      <point x="48" y="698" type="qcurve" smooth="yes"/>
      <point x="39" y="710"/>
      <point x="39" y="723" type="qcurve" smooth="yes"/>
      <point x="39" y="730"/>
      <point x="43" y="731" type="qcurve"/>
      <point x="148" y="794"/>
      <point x="213" y="794" type="qcurve" smooth="yes"/>
      <point x="311" y="794"/>
      <point x="362" y="724" type="qcurve" smooth="yes"/>
      <point x="407" y="663"/>
      <point x="407" y="589" type="qcurve" smooth="yes"/>
      <point x="407" y="440"/>
      <point x="236" y="349" type="qcurve"/>
      <point x="241" y="341"/>
      <point x="256" y="324" type="qcurve" smooth="yes"/>
      <point x="338" y="236"/>
      <point x="410" y="237" type="qcurve" smooth="yes"/>
      <point x="492" y="239"/>
      <point x="537" y="310" type="qcurve" smooth="yes"/>
      <point x="577" y="372"/>
      <point x="586" y="429" type="qcurve"/>
      <point x="566" y="442"/>
      <point x="533" y="475" type="qcurve"/>
      <point x="517" y="501"/>
      <point x="517" y="531" type="qcurve" smooth="yes"/>
      <point x="517" y="587"/>
      <point x="576" y="594" type="qcurve" smooth="yes"/>
      <point x="644" y="601"/>
      <point x="656" y="502" type="qcurve" smooth="yes"/>
      <point x="656" y="494"/>
      <point x="652" y="463"/>
      <point x="652" y="455" type="qcurve"/>
      <point x="692" y="446"/>
      <point x="738" y="453" type="qcurve" smooth="yes"/>
      <point x="756" y="456"/>
      <point x="782" y="473" type="qcurve" smooth="yes"/>
      <point x="817" y="497"/>
      <point x="822" y="500" type="qcurve"/>
    </contour>
  </outline>
</glyph>
<glyph name="uni0A87" format="1">
  <advance width="811"/>
  <unicode hex="0A87"/>
  <outline>
    <contour>
      <point x="300" y="436" type="qcurve"/>
      <point x="323" y="442"/>
      <point x="369" y="450" type="qcurve"/>
      <point x="388" y="452"/>
      <point x="388" y="459" type="qcurve" smooth="yes"/>
      <point x="388" y="473"/>
      <point x="372" y="473" type="qcurve" smooth="yes"/>
      <point x="355" y="473"/>
    </contour>
    <contour>
      <point x="220" y="450" type="qcurve"/>
      <point x="223" y="453"/>
      <point x="252" y="473" type="qcurve" smooth="yes"/>
      <point x="314" y="517"/>
      <point x="384" y="517" type="qcurve" smooth="yes"/>
      <point x="445" y="517"/>
      <point x="445" y="469" type="qcurve" smooth="yes"/>
      <point x="445" y="426"/>
      <point x="350" y="388" type="qcurve" smooth="yes"/>
      <point x="297" y="366"/>
      <point x="232" y="385" type="qcurve"/>
      <point x="167" y="325"/>
      <point x="164" y="255" type="qcurve" smooth="yes"/>
      <point x="159" y="163"/>
      <point x="228" y="103" type="qcurve" smooth="yes"/>
      <point x="293" y="46"/>
      <point x="387" y="46" type="qcurve" smooth="yes"/>
      <point x="496" y="46"/>
      <point x="640" y="199"/>
      <point x="640" y="308" type="qcurve" smooth="yes"/>
      <point x="640" y="409"/>
      <point x="602" y="494" type="qcurve" smooth="yes"/>
      <point x="573" y="560"/>
      <point x="502" y="662" type="qcurve" smooth="yes"/>
      <point x="345" y="889"/>
      <point x="345" y="990" type="qcurve" smooth="yes"/>
      <point x="345" y="1077"/>
      <point x="432" y="1137" type="qcurve" smooth="yes"/>
      <point x="504" y="1186"/>
      <point x="585" y="1192" type="qcurve" smooth="yes"/>
      <point x="605" y="1193"/>
      <point x="605" y="1160" type="qcurve" smooth="yes"/>
      <point x="605" y="1138"/>
      <point x="591" y="1134" type="qcurve" smooth="yes"/>
      <point x="504" y="1110"/>
      <point x="469" y="1090" type="qcurve" smooth="yes"/>
      <point x="403" y="1052"/>
      <point x="403" y="990" type="qcurve" smooth="yes"/>
      <point x="403" y="904"/>
      <point x="549" y="694" type="qcurve" smooth="yes"/>
      <point x="629" y="579"/>
      <point x="657" y="513" type="qcurve" smooth="yes"/>
      <point x="698" y="419"/>
      <point x="698" y="308" type="qcurve" smooth="yes"/>
      <point x="698" y="175"/>
      <point x="609" y="83" type="qcurve"/>
      <point x="519" y="-12"/>
      <point x="387" y="-12" type="qcurve" smooth="yes"/>
      <point x="267" y="-12"/>
      <point x="185" y="62" type="qcurve" smooth="yes"/>
      <point x="98" y="140"/>
      <point x="106" y="258" type="qcurve" smooth="yes"/>
      <point x="111" y="346"/>
      <point x="175" y="410" type="qcurve"/>
      <point x="123" y="442"/>
      <point x="78" y="499" type="qcurve" smooth="yes"/>
      <point x="28" y="564"/>
      <point x="28" y="617" type="qcurve" smooth="yes"/>
      <point x="28" y="672"/>
      <point x="94" y="728" type="qcurve" smooth="yes"/>
      <point x="141" y="768"/>
      <point x="210" y="801" type="qcurve" smooth="yes"/>
      <point x="222" y="806"/>
      <point x="243" y="778"/>
      <point x="243" y="765" type="qcurve" smooth="yes"/>
      <point x="243" y="753"/>
      <point x="236" y="749" type="qcurve" smooth="yes"/>
      <point x="162" y="707"/>
      <point x="145" y="694" type="qcurve" smooth="yes"/>
      <point x="85" y="650"/>
      <point x="85" y="617" type="qcurve" smooth="yes"/>
      <point x="85" y="573"/>
      <point x="133" y="520" type="qcurve" smooth="yes"/>
      <point x="173" y="475"/>
    </contour>
  </outline>
</glyph>
<glyph name="uni0A89" format="1">
  <advance width="776"/>
  <unicode hex="0A89"/>
  <outline>
    <contour>
      <point x="440" y="455" type="qcurve"/>
      <point x="416" y="462"/>
      <point x="394" y="462" type="qcurve" smooth="yes"/>
      <point x="363" y="462"/>
      <point x="349" y="452" type="qcurve"/>
      <point x="358" y="446"/>
      <point x="410" y="447" type="qcurve" smooth="yes"/>
      <point x="428" y="448"/>
    </contour>
    <contour>
      <point x="450" y="1105" type="qcurve" smooth="yes"/>
      <point x="246" y="1105"/>
      <point x="153" y="902" type="qcurve" smooth="yes"/>
      <point x="85" y="753"/>
      <point x="85" y="521" type="qcurve" smooth="yes"/>
      <point x="85" y="340"/>
      <point x="153" y="210" type="qcurve" smooth="yes"/>
      <point x="239" y="48"/>
      <point x="404" y="48" type="qcurve" smooth="yes"/>
      <point x="477" y="48"/>
      <point x="579" y="155"/>
      <point x="579" y="229" type="qcurve" smooth="yes"/>
      <point x="579" y="279"/>
      <point x="533" y="387"/>
      <point x="497" y="420" type="qcurve"/>
      <point x="446" y="390"/>
      <point x="413" y="390" type="qcurve" smooth="yes"/>
      <point x="377" y="390"/>
      <point x="347" y="401" type="qcurve" smooth="yes"/>
      <point x="307" y="417"/>
      <point x="307" y="446" type="qcurve" smooth="yes"/>
      <point x="307" y="477"/>
      <point x="362" y="520"/>
      <point x="394" y="520" type="qcurve" smooth="yes"/>
      <point x="452" y="520"/>
      <point x="501" y="487" type="qcurve"/>
      <point x="578" y="542"/>
      <point x="578" y="608" type="qcurve" smooth="yes"/>
      <point x="578" y="682"/>
      <point x="494" y="770"/>
      <point x="420" y="770" type="qcurve" smooth="yes"/>
      <point x="355" y="770"/>
      <point x="301" y="730" type="qcurve" smooth="yes"/>
      <point x="298" y="727"/>
      <point x="294" y="727" type="qcurve" smooth="yes"/>
      <point x="283" y="727"/>
      <point x="264" y="755"/>
      <point x="264" y="766" type="qcurve" smooth="yes"/>
      <point x="264" y="775"/>
      <point x="269" y="779" type="qcurve" smooth="yes"/>
      <point x="335" y="828"/>
      <point x="420" y="828" type="qcurve" smooth="yes"/>
      <point x="521" y="828"/>
      <point x="636" y="710"/>
      <point x="636" y="608" type="qcurve" smooth="yes"/>
      <point x="636" y="526"/>
      <point x="543" y="452" type="qcurve"/>
      <point x="583" y="411"/>
      <point x="637" y="284"/>
      <point x="637" y="229" type="qcurve" smooth="yes"/>
      <point x="637" y="133"/>
      <point x="499" y="-10"/>
      <point x="404" y="-10" type="qcurve" smooth="yes"/>
      <point x="214" y="-10"/>
      <point x="111" y="169" type="qcurve"/>
      <point x="28" y="317"/>
      <point x="28" y="521" type="qcurve" smooth="yes"/>
      <point x="28" y="782"/>
      <point x="116" y="951" type="qcurve" smooth="yes"/>
      <point x="226" y="1163"/>
      <point x="450" y="1163" type="qcurve" smooth="yes"/>
      <point x="468" y="1163"/>
      <point x="468" y="1131" type="qcurve" smooth="yes"/>
      <point x="468" y="1105"/>
    </contour>
  </outline>
</glyph>
<glyph name="uni0A8A" format="1">
  <advance width="1112"/>
  <unicode hex="0A8A"/>
  <outline>
    <contour>
      <point x="440" y="455" type="qcurve"/>
      <point x="416" y="462"/>
      <point x="394" y="462" type="qcurve" smooth="yes"/>
      <point x="363" y="462"/>
      <point x="349" y="452" type="qcurve"/>
      <point x="358" y="446"/>
      <point x="410" y="447" type="qcurve" smooth="yes"/>
      <point x="428" y="448"/>
    </contour>
    <contour>
      <point x="501" y="487" type="qcurve"/>
      <point x="578" y="542"/>
      <point x="578" y="608" type="qcurve" smooth="yes"/>
      <point x="578" y="682"/>
      <point x="494" y="770"/>
      <point x="420" y="770" type="qcurve" smooth="yes"/>
      <point x="389" y="770"/>
      <point x="301" y="730" type="qcurve" smooth="yes"/>
      <point x="288" y="724"/>
      <point x="264" y="752"/>
      <point x="264" y="766" type="qcurve" smooth="yes"/>
      <point x="264" y="774"/>
      <point x="269" y="779" type="qcurve" smooth="yes"/>
      <point x="328" y="828"/>
      <point x="420" y="828" type="qcurve" smooth="yes"/>
      <point x="521" y="828"/>
      <point x="636" y="710"/>
      <point x="636" y="608" type="qcurve" smooth="yes"/>
      <point x="636" y="526"/>
      <point x="543" y="452" type="qcurve"/>
      <point x="583" y="411"/>
      <point x="637" y="284"/>
      <point x="637" y="229" type="qcurve" smooth="yes"/>
      <point x="637" y="133"/>
      <point x="499" y="-10"/>
      <point x="404" y="-10" type="qcurve" smooth="yes"/>
      <point x="214" y="-10"/>
      <point x="111" y="169" type="qcurve"/>
      <point x="28" y="317"/>
      <point x="28" y="521" type="qcurve" smooth="yes"/>
      <point x="28" y="782"/>
      <point x="116" y="951" type="qcurve" smooth="yes"/>
      <point x="226" y="1163"/>
      <point x="450" y="1163" type="qcurve" smooth="yes"/>
      <point x="647" y="1163"/>
      <point x="753" y="1070" type="qcurve" smooth="yes"/>
      <point x="866" y="972"/>
      <point x="867" y="778" type="qcurve" smooth="yes"/>
      <point x="872" y="135" type="line" smooth="yes"/>
      <point x="872" y="38"/>
      <point x="963" y="43" type="qcurve" smooth="yes"/>
      <point x="994" y="45"/>
      <point x="1011" y="68" type="qcurve"/>
      <point x="1027" y="97"/>
      <point x="1044" y="125" type="qcurve"/>
      <point x="1093" y="93" type="line"/>
      <point x="1045" y="22"/>
      <point x="1038" y="16" type="qcurve"/>
      <point x="1011" y="-13"/>
      <point x="966" y="-14" type="qcurve" smooth="yes"/>
      <point x="894" y="-17"/>
      <point x="814" y="62"/>
      <point x="814" y="135" type="qcurve" smooth="yes"/>
      <point x="809" y="778" type="line" smooth="yes"/>
      <point x="808" y="943"/>
      <point x="710" y="1026" type="qcurve" smooth="yes"/>
      <point x="618" y="1105"/>
      <point x="450" y="1105" type="qcurve" smooth="yes"/>
      <point x="246" y="1105"/>
      <point x="153" y="902" type="qcurve" smooth="yes"/>
      <point x="85" y="753"/>
      <point x="85" y="521" type="qcurve" smooth="yes"/>
      <point x="85" y="340"/>
      <point x="153" y="210" type="qcurve" smooth="yes"/>
      <point x="239" y="48"/>
      <point x="404" y="48" type="qcurve" smooth="yes"/>
      <point x="477" y="48"/>
      <point x="579" y="155"/>
      <point x="579" y="229" type="qcurve" smooth="yes"/>
      <point x="579" y="279"/>
      <point x="533" y="387"/>
      <point x="497" y="420" type="qcurve"/>
      <point x="446" y="390"/>
      <point x="413" y="390" type="qcurve" smooth="yes"/>
      <point x="377" y="390"/>
      <point x="347" y="401" type="qcurve" smooth="yes"/>
      <point x="307" y="417"/>
      <point x="307" y="446" type="qcurve" smooth="yes"/>
      <point x="307" y="477"/>
      <point x="362" y="520"/>
      <point x="394" y="520" type="qcurve" smooth="yes"/>
      <point x="452" y="520"/>
    </contour>
  </outline>
</glyph>
<glyph name="uni0A8C" format="1">
  <advance width="1008"/>
  <unicode hex="0A8C"/>
  <outline>
    <contour>
      <point x="737" y="858" type="move" name="Anchor-4"/>
    </contour>
    <contour>
      <point x="392" y="453" type="qcurve"/>
      <point x="385" y="429"/>
      <point x="385" y="407" type="qcurve" smooth="yes"/>
      <point x="385" y="376"/>
      <point x="395" y="362" type="qcurve"/>
      <point x="401" y="373"/>
      <point x="400" y="423" type="qcurve" smooth="yes"/>
      <point x="399" y="441"/>
    </contour>
    <contour>
      <point x="799" y="417" type="line"/>
      <point x="799" y="490"/>
      <point x="692" y="592"/>
      <point x="618" y="592" type="qcurve" smooth="yes"/>
      <point x="568" y="592"/>
      <point x="461" y="546"/>
      <point x="427" y="510" type="qcurve"/>
      <point x="458" y="459"/>
      <point x="458" y="426" type="qcurve" smooth="yes"/>
      <point x="458" y="390"/>
      <point x="446" y="360" type="qcurve" smooth="yes"/>
      <point x="430" y="320"/>
      <point x="401" y="320" type="qcurve" smooth="yes"/>
      <point x="370" y="320"/>
      <point x="348" y="349" type="qcurve"/>
      <point x="327" y="375"/>
      <point x="327" y="407" type="qcurve" smooth="yes"/>
      <point x="327" y="465"/>
      <point x="361" y="514" type="qcurve"/>
      <point x="306" y="591"/>
      <point x="239" y="591" type="qcurve" smooth="yes"/>
      <point x="165" y="591"/>
      <point x="77" y="507"/>
      <point x="77" y="433" type="qcurve" smooth="yes"/>
      <point x="77" y="404"/>
      <point x="136" y="274" type="qcurve" smooth="yes"/>
      <point x="192" y="151"/>
      <point x="216" y="122" type="qcurve" smooth="yes"/>
      <point x="219" y="119"/>
      <point x="219" y="114" type="qcurve" smooth="yes"/>
      <point x="219" y="104"/>
      <point x="190" y="84"/>
      <point x="180" y="84" type="qcurve" smooth="yes"/>
      <point x="171" y="84"/>
      <point x="167" y="90" type="qcurve" smooth="yes"/>
      <point x="136" y="129"/>
      <point x="80" y="256" type="qcurve" smooth="yes"/>
      <point x="19" y="393"/>
      <point x="19" y="433" type="qcurve" smooth="yes"/>
      <point x="19" y="534"/>
      <point x="137" y="649"/>
      <point x="239" y="649" type="qcurve" smooth="yes"/>
      <point x="321" y="649"/>
      <point x="395" y="556" type="qcurve"/>
      <point x="436" y="596"/>
      <point x="563" y="650"/>
      <point x="618" y="650" type="qcurve" smooth="yes"/>
      <point x="714" y="650"/>
      <point x="857" y="512"/>
      <point x="857" y="417" type="qcurve"/>
    </contour>
    <contour>
      <point x="675" y="644" type="line"/>
      <point x="675" y="886" type="line" smooth="yes"/>
      <point x="675" y="904"/>
      <point x="704" y="904" type="qcurve" smooth="yes"/>
      <point x="733" y="904"/>
      <point x="733" y="886" type="qcurve" smooth="yes"/>
      <point x="733" y="617" type="line"/>
    </contour>
    <contour>
      <point x="963" y="109" type="qcurve" smooth="yes"/>
      <point x="888" y="1"/>
      <point x="752" y="1" type="qcurve" smooth="yes"/>
      <point x="652" y="1"/>
      <point x="591" y="46" type="qcurve" smooth="yes"/>
      <point x="523" y="96"/>
      <point x="523" y="193" type="qcurve" smooth="yes"/>
      <point x="523" y="254"/>
      <point x="589" y="303" type="qcurve" smooth="yes"/>
      <point x="606" y="315"/>
      <point x="688" y="362" type="qcurve" smooth="yes"/>
      <point x="790" y="421"/>
      <point x="825" y="439" type="qcurve" smooth="yes"/>
      <point x="837" y="445"/>
      <point x="847" y="428" type="qcurve"/>
      <point x="854" y="414"/>
      <point x="854" y="401" type="qcurve" smooth="yes"/>
      <point x="854" y="389"/>
      <point x="846" y="384" type="qcurve" smooth="yes"/>
      <point x="796" y="356" type="line" smooth="yes"/>
      <point x="684" y="293"/>
      <point x="581" y="240"/>
      <point x="581" y="193" type="qcurve" smooth="yes"/>
      <point x="581" y="59"/>
      <point x="752" y="59" type="qcurve" smooth="yes"/>
      <point x="804" y="59"/>
      <point x="846" y="91" type="qcurve" smooth="yes"/>
      <point x="865" y="106"/>
      <point x="922" y="149" type="qcurve" smooth="yes"/>
      <point x="926" y="152"/>
      <point x="931" y="152" type="qcurve"/>
      <point x="931" y="152" type="line"/>
      <point x="946" y="152"/>
      <point x="972" y="122"/>
    </contour>
  </outline>
</glyph>
<glyph name="uni0A95" format="1">
  <advance width="696"/>
  <unicode hex="0A95"/>
  <outline>
    <contour>
      <point x="363" y="-11" type="move" name="Anchor-7"/>
    </contour>
    <contour>
      <point x="363" y="-11" type="move" name="Anchor-6"/>
    </contour>
    <contour>
      <point x="341" y="770" type="move" name="Anchor-2"/>
    </contour>
    <contour>
      <point x="341" y="770" type="move" name="Anchor-0"/>
    </contour>
    <contour>
      <point x="407" y="417" type="qcurve"/>
      <point x="476" y="365"/>
      <point x="502" y="327" type="qcurve" smooth="yes"/>
      <point x="539" y="275"/>
      <point x="539" y="203" type="qcurve" smooth="yes"/>
      <point x="539" y="111"/>
      <point x="463" y="48" type="qcurve" smooth="yes"/>
      <point x="391" y="-12"/>
      <point x="297" y="-12" type="qcurve" smooth="yes"/>
      <point x="209" y="-12"/>
      <point x="148" y="13" type="qcurve" smooth="yes"/>
      <point x="118" y="25"/>
      <point x="9" y="90" type="qcurve" smooth="yes"/>
      <point x="3" y="94"/>
      <point x="3" y="103" type="qcurve" smooth="yes"/>
      <point x="3" y="116"/>
      <point x="25" y="149"/>
      <point x="38" y="142" type="qcurve" smooth="yes"/>
      <point x="132" y="88"/>
      <point x="161" y="75" type="qcurve" smooth="yes"/>
      <point x="226" y="46"/>
      <point x="297" y="46" type="qcurve" smooth="yes"/>
      <point x="368" y="46"/>
      <point x="422" y="88" type="qcurve" smooth="yes"/>
      <point x="481" y="134"/>
      <point x="481" y="203" type="qcurve" smooth="yes"/>
      <point x="481" y="273"/>
      <point x="449" y="320" type="qcurve" smooth="yes"/>
      <point x="425" y="355"/>
      <point x="359" y="404" type="qcurve"/>
      <point x="220" y="287"/>
      <point x="155" y="287" type="qcurve" smooth="yes"/>
      <point x="127" y="287"/>
      <point x="127" y="324" type="qcurve" smooth="yes"/>
      <point x="127" y="333"/>
      <point x="132" y="337" type="qcurve" smooth="yes"/>
      <point x="164" y="372"/>
      <point x="313" y="437" type="qcurve"/>
      <point x="175" y="550"/>
      <point x="175" y="621" type="qcurve" smooth="yes"/>
      <point x="175" y="687"/>
      <point x="289" y="824"/>
      <point x="353" y="824" type="qcurve"/>
      <point x="353" y="824" type="line"/>
      <point x="368" y="824"/>
      <point x="376" y="804" type="qcurve" smooth="yes"/>
      <point x="381" y="794"/>
      <point x="381" y="786" type="qcurve" smooth="yes"/>
      <point x="381" y="778"/>
      <point x="376" y="773" type="qcurve" smooth="yes"/>
      <point x="356" y="757"/>
      <point x="282" y="698" type="qcurve" smooth="yes"/>
      <point x="233" y="659"/>
      <point x="233" y="621" type="qcurve" smooth="yes"/>
      <point x="233" y="560"/>
      <point x="348" y="458" type="qcurve"/>
      <point x="543" y="544" type="line" smooth="yes"/>
      <point x="553" y="549"/>
      <point x="572" y="523"/>
      <point x="572" y="513" type="qcurve" smooth="yes"/>
      <point x="572" y="504"/>
      <point x="566" y="501" type="qcurve" smooth="yes"/>
      <point x="544" y="487"/>
    </contour>
  </outline>
</glyph>
<glyph name="uni0A98" format="1">
  <advance width="904"/>
  <unicode hex="0A98"/>
  <outline>
    <contour>
      <point x="506" y="0" type="move" name="Anchor-7"/>
    </contour>
    <contour>
      <point x="506" y="0" type="move" name="Anchor-6"/>
    </contour>
    <contour>
      <point x="528" y="759" type="move" name="Anchor-2"/>
    </contour>
    <contour>
      <point x="528" y="759" type="move" name="Anchor-0"/>
    </contour>
    <contour>
      <point x="90" y="465" type="qcurve"/>
      <point x="60" y="494"/>
      <point x="36" y="540" type="qcurve" smooth="yes"/>
      <point x="8" y="592"/>
      <point x="10" y="627" type="qcurve" smooth="yes"/>
      <point x="13" y="676"/>
      <point x="72" y="750"/>
      <point x="120" y="750" type="qcurve" smooth="yes"/>
      <point x="291" y="750" type="line" smooth="yes"/>
      <point x="307" y="750"/>
      <point x="307" y="723" type="qcurve" smooth="yes"/>
      <point x="307" y="695"/>
      <point x="291" y="692" type="qcurve" smooth="yes"/>
      <point x="263" y="687"/>
      <point x="120" y="692" type="qcurve" smooth="yes"/>
      <point x="72" y="694"/>
      <point x="68" y="624" type="qcurve" smooth="yes"/>
      <point x="65" y="567"/>
      <point x="140" y="491" type="qcurve"/>
      <point x="217" y="520"/>
      <point x="266" y="515" type="qcurve"/>
      <point x="287" y="514"/>
      <point x="287" y="481" type="qcurve" smooth="yes"/>
      <point x="287" y="458"/>
      <point x="272" y="458" type="qcurve" smooth="yes"/>
      <point x="91" y="455"/>
      <point x="91" y="350" type="qcurve" smooth="yes"/>
      <point x="91" y="292"/>
      <point x="188" y="203"/>
      <point x="248" y="203" type="qcurve" smooth="yes"/>
      <point x="316" y="203"/>
      <point x="397" y="249" type="qcurve" smooth="yes"/>
      <point x="466" y="289"/>
      <point x="478" y="294" type="qcurve" smooth="yes"/>
      <point x="482" y="296"/>
      <point x="485" y="296" type="qcurve" smooth="yes"/>
      <point x="496" y="296"/>
      <point x="517" y="269"/>
      <point x="517" y="258" type="qcurve" smooth="yes"/>
      <point x="517" y="249"/>
      <point x="510" y="245" type="qcurve" smooth="yes"/>
      <point x="426" y="193"/>
      <point x="390" y="177" type="qcurve" smooth="yes"/>
      <point x="316" y="145"/>
      <point x="248" y="145" type="qcurve" smooth="yes"/>
      <point x="161" y="145"/>
      <point x="33" y="265"/>
      <point x="33" y="350" type="qcurve" smooth="yes"/>
      <point x="33" y="423"/>
    </contour>
    <contour>
      <point x="752" y="88" type="qcurve" smooth="yes"/>
      <point x="687" y="-20"/>
      <point x="626" y="-20" type="qcurve" smooth="yes"/>
      <point x="556" y="-20"/>
      <point x="472" y="53"/>
      <point x="472" y="122" type="qcurve" smooth="yes"/>
      <point x="472" y="788" type="line" smooth="yes"/>
      <point x="472" y="805"/>
      <point x="501" y="805" type="qcurve" smooth="yes"/>
      <point x="530" y="805"/>
      <point x="530" y="788" type="qcurve" smooth="yes"/>
      <point x="530" y="122" type="line" smooth="yes"/>
      <point x="530" y="38"/>
      <point x="626" y="38" type="qcurve" smooth="yes"/>
      <point x="652" y="38"/>
      <point x="698" y="111" type="qcurve"/>
      <point x="704" y="117"/>
      <point x="714" y="117" type="qcurve"/>
      <point x="714" y="117" type="line"/>
      <point x="727" y="117"/>
      <point x="741" y="110" type="qcurve" smooth="yes"/>
      <point x="759" y="100"/>
    </contour>
  </outline>
</glyph>
<glyph name="uni0A99" format="1">
  <advance width="696"/>
  <unicode hex="0A99"/>
  <outline>
    <contour>
      <point x="451" y="11" type="move" name="Anchor-7"/>
    </contour>
    <contour>
      <point x="451" y="11" type="move" name="Anchor-6"/>
    </contour>
    <contour>
      <point x="484" y="737" type="move" name="Anchor-2"/>
    </contour>
    <contour>
      <point x="484" y="737" type="move" name="Anchor-0"/>
    </contour>
    <contour>
      <point x="582" y="182" type="qcurve" smooth="yes"/>
      <point x="582" y="117"/>
      <point x="491" y="19"/>
      <point x="426" y="19" type="qcurve" smooth="yes"/>
      <point x="182" y="19"/>
      <point x="1" y="414" type="qcurve" smooth="yes"/>
      <point x="-4" y="426"/>
      <point x="26" y="450"/>
      <point x="39" y="450" type="qcurve" smooth="yes"/>
      <point x="47" y="450"/>
      <point x="51" y="443" type="qcurve" smooth="yes"/>
      <point x="136" y="252"/>
      <point x="198" y="180" type="qcurve" smooth="yes"/>
      <point x="287" y="75"/>
      <point x="426" y="75" type="qcurve" smooth="yes"/>
      <point x="466" y="75"/>
      <point x="524" y="141"/>
      <point x="524" y="182" type="qcurve" smooth="yes"/>
      <point x="524" y="275"/>
      <point x="463" y="353" type="qcurve" smooth="yes"/>
      <point x="435" y="390"/>
      <point x="352" y="459" type="qcurve" smooth="yes"/>
      <point x="291" y="509"/>
      <point x="291" y="542" type="qcurve" smooth="yes"/>
      <point x="291" y="559"/>
      <point x="306" y="578" type="qcurve" smooth="yes"/>
      <point x="397" y="699"/>
      <point x="449" y="765" type="qcurve" smooth="yes"/>
      <point x="453" y="769"/>
      <point x="460" y="769" type="qcurve"/>
      <point x="460" y="769" type="line"/>
      <point x="475" y="769"/>
      <point x="506" y="742"/>
      <point x="495" y="730" type="qcurve" smooth="yes"/>
      <point x="438" y="663"/>
      <point x="356" y="549" type="qcurve" smooth="yes"/>
      <point x="349" y="539"/>
      <point x="349" y="529" type="qcurve" smooth="yes"/>
      <point x="349" y="505"/>
      <point x="410" y="456" type="qcurve" smooth="yes"/>
      <point x="490" y="392"/>
      <point x="521" y="352" type="qcurve" smooth="yes"/>
      <point x="582" y="275"/>
    </contour>
    <contour>
      <point x="631" y="562" type="qcurve" smooth="yes"/>
      <point x="631" y="534"/>
      <point x="590" y="491"/>
      <point x="562" y="491" type="qcurve" smooth="yes"/>
      <point x="534" y="491"/>
      <point x="491" y="534"/>
      <point x="491" y="562" type="qcurve" smooth="yes"/>
      <point x="491" y="590"/>
      <point x="534" y="631"/>
      <point x="562" y="631" type="qcurve" smooth="yes"/>
      <point x="590" y="631"/>
      <point x="631" y="590"/>
    </contour>
  </outline>
</glyph>
<glyph name="uni0A9B" format="1">
  <advance width="904"/>
  <unicode hex="0A9B"/>
  <outline>
    <contour>
      <point x="506" y="22" type="move" name="Anchor-7"/>
    </contour>
    <contour>
      <point x="506" y="22" type="move" name="Anchor-6"/>
    </contour>
    <contour>
      <point x="616" y="748" type="move" name="Anchor-2"/>
    </contour>
    <contour>
      <point x="616" y="748" type="move" name="Anchor-0"/>
    </contour>
    <contour>
      <point x="683" y="339" type="qcurve"/>
      <point x="725" y="469"/>
      <point x="725" y="513" type="qcurve" smooth="yes"/>
      <point x="725" y="597"/>
      <point x="697" y="656" type="qcurve" smooth="yes"/>
      <point x="660" y="733"/>
      <point x="584" y="733" type="qcurve" smooth="yes"/>
      <point x="524" y="733"/>
      <point x="458" y="652"/>
      <point x="458" y="591" type="qcurve" smooth="yes"/>
      <point x="458" y="487"/>
      <point x="583" y="343"/>
    </contour>
    <contour>
      <point x="109" y="417" type="qcurve"/>
      <point x="-3" y="515"/>
      <point x="-3" y="601" type="qcurve" smooth="yes"/>
      <point x="-3" y="676"/>
      <point x="54" y="737" type="qcurve"/>
      <point x="104" y="792"/>
      <point x="181" y="817" type="qcurve" smooth="yes"/>
      <point x="194" y="821"/>
      <point x="214" y="794"/>
      <point x="214" y="780" type="qcurve" smooth="yes"/>
      <point x="214" y="769"/>
      <point x="207" y="765" type="qcurve" smooth="yes"/>
      <point x="127" y="715"/>
      <point x="109" y="699" type="qcurve" smooth="yes"/>
      <point x="55" y="653"/>
      <point x="55" y="601" type="qcurve" smooth="yes"/>
      <point x="55" y="540"/>
      <point x="159" y="453" type="qcurve"/>
      <point x="211" y="502"/>
      <point x="282" y="497" type="qcurve" smooth="yes"/>
      <point x="304" y="495"/>
      <point x="304" y="460" type="qcurve" smooth="yes"/>
      <point x="304" y="441"/>
      <point x="291" y="439" type="qcurve" smooth="yes"/>
      <point x="209" y="423"/>
      <point x="152" y="381" type="qcurve" smooth="yes"/>
      <point x="81" y="329"/>
      <point x="80" y="255" type="qcurve" smooth="yes"/>
      <point x="78" y="167"/>
      <point x="162" y="114" type="qcurve" smooth="yes"/>
      <point x="216" y="81"/>
      <point x="329" y="70" type="qcurve"/>
      <point x="410" y="61"/>
      <point x="621" y="196"/>
      <point x="662" y="282" type="qcurve"/>
      <point x="543" y="293"/>
      <point x="470" y="382" type="qcurve" smooth="yes"/>
      <point x="400" y="468"/>
      <point x="400" y="591" type="qcurve" smooth="yes"/>
      <point x="400" y="678"/>
      <point x="447" y="733" type="qcurve"/>
      <point x="498" y="791"/>
      <point x="584" y="791" type="qcurve" smooth="yes"/>
      <point x="684" y="791"/>
      <point x="739" y="697" type="qcurve" smooth="yes"/>
      <point x="783" y="620"/>
      <point x="783" y="513" type="qcurve" smooth="yes"/>
      <point x="783" y="313"/>
      <point x="512" y="3"/>
      <point x="334" y="3" type="qcurve" smooth="yes"/>
      <point x="223" y="3"/>
      <point x="22" y="141"/>
      <point x="22" y="255" type="qcurve" smooth="yes"/>
      <point x="22" y="348"/>
    </contour>
  </outline>
</glyph>
<glyph name="uni0A9D" format="1">
  <advance width="1008"/>
  <unicode hex="0A9D"/>
  <outline>
    <contour>
      <point x="616" y="0" type="move" name="Anchor-7"/>
    </contour>
    <contour>
      <point x="616" y="0" type="move" name="Anchor-6"/>
    </contour>
    <contour>
      <point x="638" y="759" type="move" name="Anchor-2"/>
    </contour>
    <contour>
      <point x="638" y="759" type="move" name="Anchor-0"/>
    </contour>
    <contour>
      <point x="631" y="546" type="line"/>
      <point x="716" y="536"/>
      <point x="762" y="470" type="qcurve" smooth="yes"/>
      <point x="804" y="409"/>
      <point x="802" y="321" type="qcurve" smooth="yes"/>
      <point x="799" y="132"/>
      <point x="618" y="16" type="qcurve" smooth="yes"/>
      <point x="615" y="14"/>
      <point x="611" y="14" type="qcurve" smooth="yes"/>
      <point x="599" y="14"/>
      <point x="576" y="37"/>
      <point x="576" y="49" type="qcurve" smooth="yes"/>
      <point x="576" y="56"/>
      <point x="581" y="59" type="qcurve" smooth="yes"/>
      <point x="664" y="121"/>
      <point x="698" y="167" type="qcurve" smooth="yes"/>
      <point x="743" y="227"/>
      <point x="744" y="321" type="qcurve"/>
      <point x="746" y="393"/>
      <point x="709" y="439" type="qcurve" smooth="yes"/>
      <point x="670" y="489"/>
      <point x="599" y="489" type="qcurve" smooth="yes"/>
      <point x="542" y="489"/>
      <point x="471" y="439" type="qcurve"/>
      <point x="473" y="415"/>
      <point x="475" y="384" type="qcurve" smooth="yes"/>
      <point x="482" y="255"/>
      <point x="424" y="145" type="qcurve" smooth="yes"/>
      <point x="357" y="17"/>
      <point x="233" y="17" type="qcurve" smooth="yes"/>
      <point x="72" y="17"/>
      <point x="0" y="295" type="qcurve" smooth="yes"/>
      <point x="-5" y="314"/>
      <point x="26" y="314" type="qcurve" smooth="yes"/>
      <point x="53" y="314"/>
      <point x="58" y="298" type="qcurve" smooth="yes"/>
      <point x="89" y="189"/>
      <point x="116" y="145" type="qcurve" smooth="yes"/>
      <point x="158" y="75"/>
      <point x="233" y="75" type="qcurve" smooth="yes"/>
      <point x="335" y="75"/>
      <point x="384" y="184" type="qcurve" smooth="yes"/>
      <point x="421" y="268"/>
      <point x="417" y="381" type="qcurve" smooth="yes"/>
      <point x="413" y="490"/>
      <point x="365" y="571" type="qcurve" smooth="yes"/>
      <point x="306" y="669"/>
      <point x="206" y="669" type="qcurve" smooth="yes"/>
      <point x="169" y="669"/>
      <point x="83" y="613" type="qcurve" smooth="yes"/>
      <point x="79" y="611"/>
      <point x="76" y="611" type="qcurve" smooth="yes"/>
      <point x="65" y="611"/>
      <point x="48" y="637"/>
      <point x="48" y="649" type="qcurve" smooth="yes"/>
      <point x="48" y="657"/>
      <point x="54" y="662" type="qcurve" smooth="yes"/>
      <point x="102" y="699"/>
      <point x="117" y="707" type="qcurve" smooth="yes"/>
      <point x="157" y="727"/>
      <point x="206" y="727" type="qcurve" smooth="yes"/>
      <point x="301" y="727"/>
      <point x="370" y="658" type="qcurve" smooth="yes"/>
      <point x="430" y="598"/>
      <point x="458" y="500" type="qcurve"/>
      <point x="529" y="539"/>
      <point x="582" y="546" type="qcurve"/>
      <point x="582" y="788" type="line" smooth="yes"/>
      <point x="582" y="798"/>
      <point x="601" y="798" type="qcurve" smooth="yes"/>
      <point x="631" y="798"/>
      <point x="631" y="782" type="qcurve" smooth="yes"/>
    </contour>
  </outline>
</glyph>
<glyph name="uni0A9F" format="1">
  <advance width="696"/>
  <unicode hex="0A9F"/>
  <outline>
    <contour>
      <point x="319" y="0" type="move" name="Anchor-7"/>
    </contour>
    <contour>
      <point x="319" y="0" type="move" name="Anchor-6"/>
    </contour>
    <contour>
      <point x="330" y="770" type="move" name="Anchor-2"/>
    </contour>
    <contour>
      <point x="330" y="770" type="move" name="Anchor-0"/>
    </contour>
    <contour>
      <point x="497" y="123" type="qcurve" smooth="yes"/>
      <point x="466" y="98"/>
      <point x="404" y="68" type="qcurve" smooth="yes"/>
      <point x="301" y="17"/>
      <point x="232" y="17" type="qcurve" smooth="yes"/>
      <point x="140" y="17"/>
      <point x="72" y="77" type="qcurve"/>
      <point x="1" y="138"/>
      <point x="1" y="229" type="qcurve" smooth="yes"/>
      <point x="1" y="308"/>
      <point x="61" y="376" type="qcurve" smooth="yes"/>
      <point x="95" y="415"/>
      <point x="190" y="481" type="qcurve" smooth="yes"/>
      <point x="314" y="566" type="line"/>
      <point x="375" y="620"/>
      <point x="375" y="675" type="qcurve" smooth="yes"/>
      <point x="375" y="724"/>
      <point x="334" y="751" type="qcurve" smooth="yes"/>
      <point x="298" y="775"/>
      <point x="246" y="775" type="qcurve" smooth="yes"/>
      <point x="212" y="775"/>
      <point x="81" y="725"/>
      <point x="93" y="725" type="qcurve"/>
      <point x="81" y="725"/>
      <point x="72" y="740" type="qcurve" smooth="yes"/>
      <point x="64" y="752"/>
      <point x="64" y="765" type="qcurve" smooth="yes"/>
      <point x="64" y="772"/>
      <point x="70" y="776" type="qcurve" smooth="yes"/>
      <point x="154" y="833"/>
      <point x="246" y="833" type="qcurve" smooth="yes"/>
      <point x="322" y="833"/>
      <point x="375" y="793" type="qcurve" smooth="yes"/>
      <point x="433" y="749"/>
      <point x="433" y="675" type="qcurve" smooth="yes"/>
      <point x="433" y="605"/>
      <point x="366" y="540" type="qcurve" smooth="yes"/>
      <point x="330" y="505"/>
      <point x="222" y="432" type="qcurve" smooth="yes"/>
      <point x="138" y="375"/>
      <point x="111" y="348" type="qcurve"/>
      <point x="59" y="293"/>
      <point x="59" y="229" type="qcurve" smooth="yes"/>
      <point x="59" y="162"/>
      <point x="113" y="117" type="qcurve" smooth="yes"/>
      <point x="163" y="75"/>
      <point x="232" y="75" type="qcurve" smooth="yes"/>
      <point x="292" y="75"/>
      <point x="382" y="122" type="qcurve"/>
      <point x="448" y="155"/>
      <point x="465" y="172" type="qcurve" smooth="yes"/>
      <point x="468" y="175"/>
      <point x="472" y="175" type="qcurve"/>
      <point x="472" y="175" type="line"/>
      <point x="487" y="175"/>
      <point x="498" y="155" type="qcurve" smooth="yes"/>
      <point x="510" y="134"/>
    </contour>
  </outline>
</glyph>
<glyph name="uni0AA0" format="1">
  <advance width="696"/>
  <unicode hex="0AA0"/>
  <outline>
    <contour>
      <point x="319" y="0" type="move" name="Anchor-7"/>
    </contour>
    <contour>
      <point x="319" y="0" type="move" name="Anchor-6"/>
    </contour>
    <contour>
      <point x="330" y="770" type="move" name="Anchor-2"/>
    </contour>
    <contour>
      <point x="330" y="770" type="move" name="Anchor-0"/>
    </contour>
    <contour>
      <point x="330" y="462" type="qcurve"/>
      <point x="64" y="374"/>
      <point x="61" y="232" type="qcurve" smooth="yes"/>
      <point x="59" y="156"/>
      <point x="118" y="106" type="qcurve"/>
      <point x="174" y="57"/>
      <point x="251" y="59" type="qcurve" smooth="yes"/>
      <point x="352" y="62"/>
      <point x="497" y="201"/>
      <point x="495" y="301" type="qcurve" smooth="yes"/>
      <point x="494" y="392"/>
    </contour>
    <contour>
      <point x="274" y="498" type="qcurve"/>
      <point x="154" y="585"/>
      <point x="151" y="668" type="qcurve" smooth="yes"/>
      <point x="148" y="738"/>
      <point x="242" y="798" type="qcurve" smooth="yes"/>
      <point x="322" y="848"/>
      <point x="365" y="846" type="qcurve" smooth="yes"/>
      <point x="390" y="844"/>
      <point x="390" y="807" type="qcurve" smooth="yes"/>
      <point x="390" y="793"/>
      <point x="379" y="791" type="qcurve" smooth="yes"/>
      <point x="204" y="756"/>
      <point x="209" y="670" type="qcurve" smooth="yes"/>
      <point x="212" y="604"/>
      <point x="356" y="514" type="qcurve" smooth="yes"/>
      <point x="466" y="446"/>
      <point x="475" y="439" type="qcurve" smooth="yes"/>
      <point x="552" y="376"/>
      <point x="553" y="301" type="qcurve" smooth="yes"/>
      <point x="555" y="177"/>
      <point x="375" y="4"/>
      <point x="251" y="1" type="qcurve" smooth="yes"/>
      <point x="149" y="-1"/>
      <point x="1" y="131"/>
      <point x="3" y="232" type="qcurve" smooth="yes"/>
      <point x="6" y="413"/>
    </contour>
  </outline>
</glyph>
<glyph name="uni0AA1" format="1">
  <advance width="696"/>
  <unicode hex="0AA1"/>
  <outline>
    <contour>
      <point x="440" y="0" type="move" name="Anchor-7"/>
    </contour>
    <contour>
      <point x="440" y="0" type="move" name="Anchor-6"/>
    </contour>
    <contour>
      <point x="396" y="748" type="move" name="Anchor-2"/>
    </contour>
    <contour>
      <point x="396" y="748" type="move" name="Anchor-0"/>
    </contour>
    <contour>
      <point x="521" y="352" type="qcurve" smooth="yes"/>
      <point x="582" y="275"/>
      <point x="582" y="182" type="qcurve" smooth="yes"/>
      <point x="582" y="117"/>
      <point x="491" y="19"/>
      <point x="426" y="19" type="qcurve" smooth="yes"/>
      <point x="182" y="19"/>
      <point x="1" y="414" type="qcurve" smooth="yes"/>
      <point x="-4" y="426"/>
      <point x="26" y="450"/>
      <point x="39" y="450" type="qcurve" smooth="yes"/>
      <point x="47" y="450"/>
      <point x="51" y="443" type="qcurve" smooth="yes"/>
      <point x="120" y="288"/>
      <point x="213" y="180" type="qcurve"/>
      <point x="302" y="75"/>
      <point x="426" y="75" type="qcurve" smooth="yes"/>
      <point x="466" y="75"/>
      <point x="524" y="141"/>
      <point x="524" y="182" type="qcurve" smooth="yes"/>
      <point x="524" y="276"/>
      <point x="477" y="334" type="qcurve" smooth="yes"/>
      <point x="461" y="354"/>
      <point x="361" y="437" type="qcurve" smooth="yes"/>
      <point x="223" y="551"/>
      <point x="223" y="621" type="qcurve" smooth="yes"/>
      <point x="223" y="672"/>
      <point x="280" y="741" type="qcurve" smooth="yes"/>
      <point x="349" y="824"/>
      <point x="401" y="824" type="qcurve"/>
      <point x="401" y="824" type="line"/>
      <point x="416" y="824"/>
      <point x="424" y="804" type="qcurve" smooth="yes"/>
      <point x="429" y="794"/>
      <point x="429" y="786" type="qcurve" smooth="yes"/>
      <point x="429" y="778"/>
      <point x="424" y="773" type="qcurve" smooth="yes"/>
      <point x="404" y="757"/>
      <point x="330" y="698" type="qcurve" smooth="yes"/>
      <point x="290" y="666"/>
      <point x="290" y="621" type="qcurve" smooth="yes"/>
      <point x="290" y="572"/>
      <point x="423" y="458" type="qcurve"/>
      <point x="469" y="417"/>
    </contour>
  </outline>
</glyph>
<glyph name="uni0AA6" format="1">
  <advance width="696"/>
  <unicode hex="0AA6"/>
  <outline>
    <contour>
      <point x="330" y="0" type="move" name="Anchor-7"/>
    </contour>
    <contour>
      <point x="330" y="0" type="move" name="Anchor-6"/>
    </contour>
    <contour>
      <point x="297" y="748" type="move" name="Anchor-2"/>
    </contour>
    <contour>
      <point x="297" y="748" type="move" name="Anchor-0"/>
    </contour>
    <contour>
      <point x="86" y="448" type="qcurve"/>
      <point x="54" y="484"/>
      <point x="29" y="538" type="qcurve" smooth="yes"/>
      <point x="0" y="599"/>
      <point x="2" y="639" type="qcurve" smooth="yes"/>
      <point x="5" y="702"/>
      <point x="36" y="741" type="qcurve" smooth="yes"/>
      <point x="89" y="805"/>
      <point x="175" y="805" type="qcurve" smooth="yes"/>
      <point x="221" y="805"/>
      <point x="297" y="783" type="qcurve" smooth="yes"/>
      <point x="314" y="778"/>
      <point x="314" y="750" type="qcurve" smooth="yes"/>
      <point x="314" y="718"/>
      <point x="289" y="718" type="qcurve" smooth="yes"/>
      <point x="282" y="718"/>
      <point x="274" y="721" type="qcurve" smooth="yes"/>
      <point x="233" y="736"/>
      <point x="184" y="736" type="qcurve" smooth="yes"/>
      <point x="68" y="736"/>
      <point x="63" y="636" type="qcurve" smooth="yes"/>
      <point x="60" y="568"/>
      <point x="139" y="479" type="qcurve"/>
      <point x="219" y="513"/>
      <point x="271" y="508" type="qcurve" smooth="yes"/>
      <point x="293" y="506"/>
      <point x="293" y="467" type="qcurve" smooth="yes"/>
      <point x="293" y="440"/>
      <point x="277" y="440" type="qcurve" smooth="yes"/>
      <point x="87" y="437"/>
      <point x="87" y="314" type="qcurve" smooth="yes"/>
      <point x="87" y="240"/>
      <point x="132" y="184" type="qcurve" smooth="yes"/>
      <point x="180" y="123"/>
      <point x="252" y="123" type="qcurve" smooth="yes"/>
      <point x="312" y="123"/>
      <point x="405" y="177"/>
      <point x="451" y="205" type="qcurve"/>
      <point x="465" y="212"/>
      <point x="480" y="194" type="qcurve"/>
      <point x="492" y="177"/>
      <point x="492" y="162" type="qcurve" smooth="yes"/>
      <point x="492" y="152"/>
      <point x="485" y="147" type="qcurve" smooth="yes"/>
      <point x="413" y="97"/>
      <point x="373" y="80" type="qcurve" smooth="yes"/>
      <point x="319" y="57"/>
      <point x="252" y="55" type="qcurve" smooth="yes"/>
      <point x="158" y="53"/>
      <point x="27" y="205"/>
      <point x="27" y="314" type="qcurve" smooth="yes"/>
      <point x="27" y="399"/>
    </contour>
  </outline>
</glyph>
<glyph name="uni0AA8" format="1">
  <advance width="904"/>
  <unicode hex="0AA8"/>
  <outline>
    <contour>
      <point x="451" y="0" type="move" name="Anchor-7"/>
    </contour>
    <contour>
      <point x="451" y="0" type="move" name="Anchor-6"/>
    </contour>
    <contour>
      <point x="473" y="759" type="move" name="Anchor-2"/>
    </contour>
    <contour>
      <point x="473" y="759" type="move" name="Anchor-0"/>
    </contour>
    <contour>
      <point x="696" y="110" type="qcurve" smooth="yes"/>
      <point x="632" y="1"/>
      <point x="571" y="1" type="qcurve" smooth="yes"/>
      <point x="501" y="1"/>
      <point x="417" y="75"/>
      <point x="417" y="143" type="qcurve" smooth="yes"/>
      <point x="417" y="788" type="line" smooth="yes"/>
      <point x="417" y="805"/>
      <point x="446" y="805" type="qcurve" smooth="yes"/>
      <point x="475" y="805"/>
      <point x="475" y="788" type="qcurve" smooth="yes"/>
      <point x="475" y="143" type="line" smooth="yes"/>
      <point x="475" y="59"/>
      <point x="571" y="59" type="qcurve" smooth="yes"/>
      <point x="597" y="59"/>
      <point x="643" y="133" type="qcurve"/>
      <point x="649" y="139"/>
      <point x="659" y="139" type="qcurve"/>
      <point x="659" y="139" type="line"/>
      <point x="672" y="139"/>
      <point x="686" y="131" type="qcurve" smooth="yes"/>
      <point x="704" y="122"/>
    </contour>
    <contour>
      <point x="127" y="492" type="line"/>
      <point x="87" y="492" type="line" smooth="yes"/>
      <point x="64" y="492"/>
      <point x="64" y="465" type="qcurve" smooth="yes"/>
      <point x="64" y="420"/>
      <point x="96" y="420" type="qcurve" smooth="yes"/>
      <point x="127" y="420"/>
      <point x="127" y="453" type="qcurve" smooth="yes"/>
    </contour>
    <contour>
      <point x="175" y="492" type="line"/>
      <point x="175" y="453" type="line" smooth="yes"/>
      <point x="175" y="372"/>
      <point x="98" y="372" type="qcurve" smooth="yes"/>
      <point x="16" y="372"/>
      <point x="16" y="468" type="qcurve" smooth="yes"/>
      <point x="16" y="550"/>
      <point x="87" y="550" type="qcurve" smooth="yes"/>
      <point x="437" y="550" type="line"/>
      <point x="437" y="492" type="line"/>
    </contour>
  </outline>
</glyph>
<glyph name="uni0AAA" format="1">
  <advance width="904"/>
  <unicode hex="0AAA"/>
  <outline>
    <contour>
      <point x="517" y="0" type="move" name="Anchor-7"/>
    </contour>
    <contour>
      <point x="517" y="0" type="move" name="Anchor-6"/>
    </contour>
    <contour>
      <point x="550" y="759" type="move" name="Anchor-2"/>
    </contour>
    <contour>
      <point x="550" y="759" type="move" name="Anchor-0"/>
    </contour>
    <contour>
      <point x="513" y="333" type="qcurve" smooth="yes"/>
      <point x="437" y="266"/>
      <point x="353" y="266" type="qcurve" smooth="yes"/>
      <point x="267" y="266"/>
      <point x="204" y="308" type="qcurve" smooth="yes"/>
      <point x="132" y="356"/>
      <point x="132" y="437" type="qcurve" smooth="yes"/>
      <point x="132" y="744" type="line" smooth="yes"/>
      <point x="132" y="779"/>
      <point x="75" y="779" type="qcurve" smooth="yes"/>
      <point x="68" y="779"/>
      <point x="31" y="760"/>
      <point x="23" y="760" type="qcurve" smooth="yes"/>
      <point x="11" y="760"/>
      <point x="-13" y="780"/>
      <point x="-13" y="792" type="qcurve" smooth="yes"/>
      <point x="-13" y="798"/>
      <point x="-9" y="802" type="qcurve" smooth="yes"/>
      <point x="27" y="837"/>
      <point x="75" y="837" type="qcurve" smooth="yes"/>
      <point x="121" y="837"/>
      <point x="153" y="814" type="qcurve" smooth="yes"/>
      <point x="190" y="788"/>
      <point x="190" y="744" type="qcurve" smooth="yes"/>
      <point x="190" y="437" type="line" smooth="yes"/>
      <point x="190" y="379"/>
      <point x="246" y="349" type="qcurve" smooth="yes"/>
      <point x="291" y="324"/>
      <point x="355" y="324" type="qcurve" smooth="yes"/>
      <point x="427" y="324"/>
      <point x="478" y="379" type="qcurve" smooth="yes"/>
      <point x="481" y="382"/>
      <point x="485" y="382" type="qcurve"/>
      <point x="485" y="382" type="line"/>
      <point x="498" y="382"/>
      <point x="523" y="342"/>
    </contour>
    <contour>
      <point x="765" y="88" type="qcurve" smooth="yes"/>
      <point x="700" y="-20"/>
      <point x="639" y="-20" type="qcurve" smooth="yes"/>
      <point x="569" y="-20"/>
      <point x="485" y="53"/>
      <point x="485" y="122" type="qcurve" smooth="yes"/>
      <point x="485" y="788" type="line" smooth="yes"/>
      <point x="485" y="805"/>
      <point x="514" y="805" type="qcurve" smooth="yes"/>
      <point x="543" y="805"/>
      <point x="543" y="788" type="qcurve" smooth="yes"/>
      <point x="543" y="122" type="line" smooth="yes"/>
      <point x="543" y="38"/>
      <point x="639" y="38" type="qcurve" smooth="yes"/>
      <point x="665" y="38"/>
      <point x="711" y="111" type="qcurve"/>
      <point x="717" y="117"/>
      <point x="727" y="117" type="qcurve"/>
      <point x="727" y="117" type="line"/>
      <point x="740" y="117"/>
      <point x="754" y="110" type="qcurve" smooth="yes"/>
      <point x="772" y="100"/>
    </contour>
  </outline>
</glyph>
<glyph name="uni0AAE" format="1">
  <advance width="904"/>
  <unicode hex="0AAE"/>
  <outline>
    <contour>
      <point x="539" y="0" type="move" name="Anchor-7"/>
    </contour>
    <contour>
      <point x="539" y="0" type="move" name="Anchor-6"/>
    </contour>
    <contour>
      <point x="572" y="770" type="move" name="Anchor-2"/>
    </contour>
    <contour>
      <point x="572" y="770" type="move" name="Anchor-0"/>
    </contour>
    <contour>
      <point x="507" y="408" type="qcurve" smooth="yes"/>
      <point x="142" y="408" type="line" smooth="yes"/>
      <point x="127" y="408"/>
      <point x="127" y="404" type="qcurve"/>
      <point x="132" y="400"/>
      <point x="148" y="382" type="qcurve"/>
      <point x="158" y="366"/>
      <point x="169" y="349" type="qcurve"/>
      <point x="172" y="350"/>
      <point x="172" y="359" type="qcurve" smooth="yes"/>
      <point x="174" y="710" type="line" smooth="yes"/>
      <point x="174" y="745"/>
      <point x="171" y="759" type="qcurve" smooth="yes"/>
      <point x="165" y="785"/>
      <point x="139" y="785" type="qcurve" smooth="yes"/>
      <point x="90" y="785"/>
      <point x="39" y="727" type="qcurve" smooth="yes"/>
      <point x="36" y="725"/>
      <point x="32" y="725" type="qcurve" smooth="yes"/>
      <point x="20" y="725"/>
      <point x="-4" y="751"/>
      <point x="-4" y="763" type="qcurve" smooth="yes"/>
      <point x="-4" y="770"/>
      <point x="1" y="773" type="qcurve"/>
      <point x="74" y="843"/>
      <point x="139" y="843" type="qcurve" smooth="yes"/>
      <point x="187" y="843"/>
      <point x="201" y="830" type="qcurve" smooth="yes"/>
      <point x="230" y="804"/>
      <point x="230" y="710" type="qcurve" smooth="yes"/>
      <point x="230" y="359" type="line" smooth="yes"/>
      <point x="230" y="282"/>
      <point x="193" y="282" type="qcurve" smooth="yes"/>
      <point x="157" y="282"/>
      <point x="104" y="345" type="qcurve" smooth="yes"/>
      <point x="62" y="394"/>
      <point x="62" y="421" type="qcurve" smooth="yes"/>
      <point x="62" y="459"/>
      <point x="142" y="459" type="qcurve" smooth="yes"/>
      <point x="507" y="460" type="line" smooth="yes"/>
      <point x="524" y="461"/>
      <point x="524" y="434" type="qcurve" smooth="yes"/>
      <point x="524" y="408"/>
    </contour>
    <contour>
      <point x="779" y="88" type="qcurve" smooth="yes"/>
      <point x="715" y="-20"/>
      <point x="653" y="-20" type="qcurve" smooth="yes"/>
      <point x="584" y="-20"/>
      <point x="500" y="53"/>
      <point x="500" y="122" type="qcurve" smooth="yes"/>
      <point x="500" y="788" type="line" smooth="yes"/>
      <point x="500" y="805"/>
      <point x="529" y="805" type="qcurve" smooth="yes"/>
      <point x="557" y="805"/>
      <point x="557" y="788" type="qcurve" smooth="yes"/>
      <point x="557" y="122" type="line" smooth="yes"/>
      <point x="557" y="38"/>
      <point x="653" y="38" type="qcurve" smooth="yes"/>
      <point x="679" y="38"/>
      <point x="725" y="111" type="qcurve"/>
      <point x="731" y="117"/>
      <point x="741" y="117" type="qcurve"/>
      <point x="741" y="117" type="line"/>
      <point x="755" y="117"/>
      <point x="769" y="110" type="qcurve"/>
      <point x="786" y="100"/>
    </contour>
  </outline>
</glyph>
<glyph name="uni0AAF" format="1">
  <advance width="904"/>
  <unicode hex="0AAF"/>
  <outline>
    <contour>
      <point x="495" y="0" type="move" name="Anchor-7"/>
    </contour>
    <contour>
      <point x="495" y="0" type="move" name="Anchor-6"/>
    </contour>
    <contour>
      <point x="517" y="759" type="move" name="Anchor-2"/>
    </contour>
    <contour>
      <point x="517" y="759" type="move" name="Anchor-0"/>
    </contour>
    <contour>
      <point x="482" y="355" type="qcurve" smooth="yes"/>
      <point x="406" y="306"/>
      <point x="382" y="296" type="qcurve" smooth="yes"/>
      <point x="334" y="275"/>
      <point x="266" y="275" type="qcurve" smooth="yes"/>
      <point x="170" y="275"/>
      <point x="30" y="417"/>
      <point x="30" y="523" type="qcurve"/>
      <point x="95" y="549"/>
      <point x="175" y="651"/>
      <point x="175" y="707" type="qcurve" smooth="yes"/>
      <point x="175" y="739"/>
      <point x="126" y="783"/>
      <point x="94" y="783" type="qcurve" smooth="yes"/>
      <point x="86" y="783"/>
      <point x="56" y="770"/>
      <point x="51" y="770" type="qcurve" smooth="yes"/>
      <point x="29" y="770"/>
      <point x="29" y="809" type="qcurve" smooth="yes"/>
      <point x="29" y="831"/>
      <point x="74" y="831" type="qcurve" smooth="yes"/>
      <point x="134" y="831"/>
      <point x="181" y="800" type="qcurve"/>
      <point x="233" y="764"/>
      <point x="233" y="707" type="qcurve" smooth="yes"/>
      <point x="233" y="646"/>
      <point x="145" y="510"/>
      <point x="91" y="488" type="qcurve"/>
      <point x="103" y="422"/>
      <point x="212" y="327"/>
      <point x="266" y="333" type="qcurve" smooth="yes"/>
      <point x="359" y="344"/>
      <point x="450" y="404" type="qcurve" smooth="yes"/>
      <point x="453" y="407"/>
      <point x="458" y="407" type="qcurve"/>
      <point x="458" y="407" type="line"/>
      <point x="474" y="407"/>
      <point x="484" y="385" type="qcurve" smooth="yes"/>
      <point x="494" y="362"/>
    </contour>
    <contour>
      <point x="734" y="88" type="qcurve" smooth="yes"/>
      <point x="670" y="-20"/>
      <point x="608" y="-20" type="qcurve" smooth="yes"/>
      <point x="539" y="-20"/>
      <point x="455" y="53"/>
      <point x="455" y="122" type="qcurve" smooth="yes"/>
      <point x="455" y="788" type="line" smooth="yes"/>
      <point x="455" y="805"/>
      <point x="484" y="805" type="qcurve" smooth="yes"/>
      <point x="513" y="805"/>
      <point x="513" y="788" type="qcurve" smooth="yes"/>
      <point x="513" y="122" type="line" smooth="yes"/>
      <point x="513" y="38"/>
      <point x="608" y="38" type="qcurve" smooth="yes"/>
      <point x="634" y="38"/>
      <point x="681" y="111" type="qcurve" smooth="yes"/>
      <point x="686" y="117"/>
      <point x="696" y="117" type="qcurve"/>
      <point x="696" y="117" type="line"/>
      <point x="710" y="117"/>
      <point x="724" y="110" type="qcurve"/>
      <point x="741" y="100"/>
    </contour>
  </outline>
</glyph>
<glyph name="uni0AB0" format="1">
  <advance width="696"/>
  <unicode hex="0AB0"/>
  <outline>
    <contour>
      <point x="396" y="0" type="move" name="Anchor-7"/>
    </contour>
    <contour>
      <point x="396" y="0" type="move" name="Anchor-6"/>
    </contour>
    <contour>
      <point x="330" y="770" type="move" name="Anchor-2"/>
    </contour>
    <contour>
      <point x="330" y="770" type="move" name="Anchor-0"/>
    </contour>
    <contour>
      <point x="197" y="332" type="qcurve"/>
      <point x="180" y="374"/>
      <point x="152" y="381" type="qcurve" smooth="yes"/>
      <point x="140" y="384"/>
      <point x="115" y="371"/>
      <point x="114" y="359" type="qcurve" smooth="yes"/>
      <point x="112" y="332"/>
    </contour>
    <contour>
      <point x="81" y="805" type="qcurve" smooth="yes"/>
      <point x="138" y="828"/>
      <point x="194" y="828" type="qcurve" smooth="yes"/>
      <point x="314" y="828"/>
      <point x="471" y="676"/>
      <point x="471" y="552" type="qcurve" smooth="yes"/>
      <point x="471" y="452"/>
      <point x="360" y="304"/>
      <point x="264" y="281" type="qcurve"/>
      <point x="273" y="250"/>
      <point x="287" y="214" type="qcurve" smooth="yes"/>
      <point x="350" y="48"/>
      <point x="433" y="48" type="qcurve" smooth="yes"/>
      <point x="509" y="48"/>
      <point x="569" y="83" type="qcurve" smooth="yes"/>
      <point x="572" y="84"/>
      <point x="576" y="84" type="qcurve"/>
      <point x="576" y="84" type="line"/>
      <point x="591" y="84"/>
      <point x="601" y="67" type="qcurve" smooth="yes"/>
      <point x="611" y="49"/>
      <point x="601" y="41" type="qcurve" smooth="yes"/>
      <point x="542" y="-7"/>
      <point x="433" y="-7" type="qcurve" smooth="yes"/>
      <point x="371" y="-7"/>
      <point x="310" y="65" type="qcurve" smooth="yes"/>
      <point x="263" y="120"/>
      <point x="235" y="194" type="qcurve" smooth="yes"/>
      <point x="225" y="220"/>
      <point x="213" y="274" type="qcurve"/>
      <point x="177" y="274"/>
      <point x="133" y="282" type="qcurve" smooth="yes"/>
      <point x="59" y="297"/>
      <point x="62" y="359" type="qcurve" smooth="yes"/>
      <point x="64" y="394"/>
      <point x="112" y="431"/>
      <point x="148" y="429" type="qcurve" smooth="yes"/>
      <point x="209" y="424"/>
      <point x="243" y="337" type="qcurve"/>
      <point x="322" y="352"/>
      <point x="413" y="470"/>
      <point x="413" y="552" type="qcurve" smooth="yes"/>
      <point x="413" y="650"/>
      <point x="288" y="770"/>
      <point x="194" y="770" type="qcurve" smooth="yes"/>
      <point x="164" y="770"/>
      <point x="117" y="753" type="qcurve" smooth="yes"/>
      <point x="111" y="751"/>
      <point x="105" y="751" type="qcurve" smooth="yes"/>
      <point x="72" y="751"/>
      <point x="72" y="787" type="qcurve" smooth="yes"/>
      <point x="72" y="801"/>
    </contour>
  </outline>
</glyph>
<glyph name="uni0AB2" format="1">
  <advance width="904"/>
  <unicode hex="0AB2"/>
  <outline>
    <contour>
      <point x="539" y="0" type="move" name="Anchor-7"/>
    </contour>
    <contour>
      <point x="539" y="0" type="move" name="Anchor-6"/>
    </contour>
    <contour>
      <point x="572" y="770" type="move" name="Anchor-2"/>
    </contour>
    <contour>
      <point x="572" y="770" type="move" name="Anchor-0"/>
    </contour>
    <contour>
      <point x="524" y="475" type="line"/>
      <point x="461" y="454"/>
      <point x="403" y="440" type="qcurve" smooth="yes"/>
      <point x="286" y="412"/>
      <point x="246" y="405" type="qcurve"/>
      <point x="226" y="466" type="line"/>
      <point x="297" y="466"/>
      <point x="362" y="484" type="qcurve"/>
      <point x="384" y="489" type="line" smooth="yes"/>
      <point x="420" y="498"/>
      <point x="524" y="524" type="qcurve"/>
    </contour>
    <contour>
      <point x="334" y="122" type="qcurve" smooth="yes"/>
      <point x="203" y="122"/>
      <point x="-3" y="313"/>
      <point x="-3" y="443" type="qcurve" smooth="yes"/>
      <point x="-3" y="578"/>
      <point x="123" y="682" type="qcurve" smooth="yes"/>
      <point x="219" y="762"/>
      <point x="339" y="794" type="qcurve" smooth="yes"/>
      <point x="361" y="799"/>
      <point x="361" y="765" type="qcurve" smooth="yes"/>
      <point x="361" y="742"/>
      <point x="348" y="736" type="qcurve" smooth="yes"/>
      <point x="307" y="716"/>
      <point x="222" y="670" type="qcurve"/>
      <point x="55" y="582"/>
      <point x="55" y="443" type="qcurve" smooth="yes"/>
      <point x="55" y="334"/>
      <point x="153" y="253" type="qcurve" smooth="yes"/>
      <point x="247" y="175"/>
      <point x="358" y="181" type="qcurve" smooth="yes"/>
      <point x="378" y="182"/>
      <point x="378" y="148" type="qcurve" smooth="yes"/>
      <point x="378" y="125"/>
      <point x="349" y="122"/>
    </contour>
    <contour>
      <point x="796" y="88" type="qcurve" smooth="yes"/>
      <point x="732" y="-20"/>
      <point x="670" y="-20" type="qcurve" smooth="yes"/>
      <point x="601" y="-20"/>
      <point x="517" y="53"/>
      <point x="517" y="122" type="qcurve" smooth="yes"/>
      <point x="517" y="788" type="line" smooth="yes"/>
      <point x="517" y="805"/>
      <point x="546" y="805" type="qcurve" smooth="yes"/>
      <point x="575" y="805"/>
      <point x="575" y="788" type="qcurve" smooth="yes"/>
      <point x="575" y="122" type="line" smooth="yes"/>
      <point x="575" y="38"/>
      <point x="670" y="38" type="qcurve" smooth="yes"/>
      <point x="696" y="38"/>
      <point x="743" y="111" type="qcurve"/>
      <point x="749" y="117"/>
      <point x="759" y="117" type="qcurve"/>
      <point x="759" y="117" type="line"/>
      <point x="772" y="117"/>
      <point x="786" y="110" type="qcurve" smooth="yes"/>
      <point x="804" y="100"/>
    </contour>
  </outline>
</glyph>
<glyph name="uni0AB3" format="1">
  <advance width="1008"/>
  <unicode hex="0AB3"/>
  <outline>
    <contour>
      <point x="594" y="0" type="move" name="Anchor-7"/>
    </contour>
    <contour>
      <point x="594" y="0" type="move" name="Anchor-6"/>
    </contour>
    <contour>
      <point x="638" y="792" type="move" name="Anchor-2"/>
    </contour>
    <contour>
      <point x="638" y="792" type="move" name="Anchor-0"/>
    </contour>
    <contour>
      <point x="495" y="805" type="qcurve" smooth="yes"/>
      <point x="371" y="805"/>
      <point x="371" y="571" type="qcurve" smooth="yes"/>
      <point x="371" y="399"/>
      <point x="358" y="348" type="qcurve" smooth="yes"/>
      <point x="329" y="233"/>
      <point x="217" y="235" type="qcurve" smooth="yes"/>
      <point x="115" y="236"/>
      <point x="54" y="322" type="qcurve" smooth="yes"/>
      <point x="0" y="398"/>
      <point x="0" y="504" type="qcurve" smooth="yes"/>
      <point x="0" y="607"/>
      <point x="42" y="688" type="qcurve" smooth="yes"/>
      <point x="65" y="733"/>
      <point x="138" y="821" type="qcurve"/>
      <point x="140" y="825"/>
      <point x="148" y="825" type="qcurve"/>
      <point x="148" y="825" type="line"/>
      <point x="162" y="825"/>
      <point x="190" y="793"/>
      <point x="181" y="780" type="qcurve" smooth="yes"/>
      <point x="104" y="680"/>
      <point x="91" y="656" type="qcurve" smooth="yes"/>
      <point x="58" y="593"/>
      <point x="58" y="504" type="qcurve" smooth="yes"/>
      <point x="58" y="424"/>
      <point x="97" y="363" type="qcurve" smooth="yes"/>
      <point x="141" y="294"/>
      <point x="217" y="292" type="qcurve" smooth="yes"/>
      <point x="319" y="290"/>
      <point x="319" y="432" type="qcurve" smooth="yes"/>
      <point x="319" y="455"/>
      <point x="313" y="547"/>
      <point x="313" y="571" type="qcurve" smooth="yes"/>
      <point x="313" y="863"/>
      <point x="495" y="863" type="qcurve" smooth="yes"/>
      <point x="571" y="863"/>
      <point x="607" y="809" type="qcurve" smooth="yes"/>
      <point x="635" y="768"/>
      <point x="630" y="723" type="qcurve"/>
      <point x="573" y="723" type="line"/>
      <point x="569" y="759"/>
      <point x="565" y="768" type="qcurve" smooth="yes"/>
      <point x="548" y="805"/>
    </contour>
    <contour>
      <point x="851" y="103" type="qcurve" smooth="yes"/>
      <point x="787" y="-6"/>
      <point x="725" y="-6" type="qcurve" smooth="yes"/>
      <point x="656" y="-6"/>
      <point x="572" y="68"/>
      <point x="572" y="136" type="qcurve" smooth="yes"/>
      <point x="572" y="744" type="line" smooth="yes"/>
      <point x="572" y="762"/>
      <point x="601" y="762" type="qcurve" smooth="yes"/>
      <point x="630" y="762"/>
      <point x="630" y="744" type="qcurve" smooth="yes"/>
      <point x="630" y="136" type="line" smooth="yes"/>
      <point x="630" y="52"/>
      <point x="725" y="52" type="qcurve" smooth="yes"/>
      <point x="752" y="52"/>
      <point x="798" y="126" type="qcurve"/>
      <point x="804" y="132"/>
      <point x="814" y="132" type="qcurve"/>
      <point x="814" y="132" type="line"/>
      <point x="827" y="132"/>
      <point x="841" y="124" type="qcurve" smooth="yes"/>
      <point x="859" y="115"/>
    </contour>
  </outline>
</glyph>
<glyph name="uni0AB5" format="1">
  <advance width="904"/>
  <unicode hex="0AB5"/>
  <outline>
    <contour>
      <point x="484" y="0" type="move" name="Anchor-7"/>
    </contour>
    <contour>
      <point x="484" y="0" type="move" name="Anchor-6"/>
    </contour>
    <contour>
      <point x="506" y="759" type="move" name="Anchor-2"/>
    </contour>
    <contour>
      <point x="506" y="759" type="move" name="Anchor-0"/>
    </contour>
    <contour>
      <point x="468" y="264" type="qcurve" smooth="yes"/>
      <point x="371" y="201"/>
      <point x="272" y="201" type="qcurve" smooth="yes"/>
      <point x="170" y="201"/>
      <point x="88" y="268" type="qcurve" smooth="yes"/>
      <point x="1" y="339"/>
      <point x="4" y="449" type="qcurve" smooth="yes"/>
      <point x="7" y="550"/>
      <point x="73" y="622" type="qcurve"/>
      <point x="141" y="698"/>
      <point x="237" y="698" type="qcurve" smooth="yes"/>
      <point x="324" y="698"/>
      <point x="346" y="675" type="qcurve" smooth="yes"/>
      <point x="352" y="669"/>
      <point x="352" y="658" type="qcurve"/>
      <point x="352" y="658" type="line"/>
      <point x="352" y="644"/>
      <point x="344" y="631" type="qcurve" smooth="yes"/>
      <point x="333" y="615"/>
      <point x="320" y="623" type="qcurve" smooth="yes"/>
      <point x="292" y="640"/>
      <point x="237" y="640" type="qcurve" smooth="yes"/>
      <point x="164" y="640"/>
      <point x="113" y="580" type="qcurve" smooth="yes"/>
      <point x="65" y="524"/>
      <point x="62" y="446" type="qcurve" smooth="yes"/>
      <point x="59" y="362"/>
      <point x="130" y="308" type="qcurve" smooth="yes"/>
      <point x="196" y="259"/>
      <point x="275" y="259" type="qcurve" smooth="yes"/>
      <point x="328" y="259"/>
      <point x="380" y="282" type="qcurve"/>
      <point x="416" y="303"/>
      <point x="458" y="325" type="qcurve"/>
      <point x="478" y="330"/>
      <point x="478" y="291" type="qcurve" smooth="yes"/>
      <point x="478" y="270"/>
    </contour>
    <contour>
      <point x="731" y="88" type="qcurve" smooth="yes"/>
      <point x="696" y="29"/>
      <point x="672" y="7" type="qcurve" smooth="yes"/>
      <point x="643" y="-20"/>
      <point x="605" y="-20" type="qcurve" smooth="yes"/>
      <point x="536" y="-20"/>
      <point x="452" y="53"/>
      <point x="452" y="122" type="qcurve" smooth="yes"/>
      <point x="452" y="788" type="line" smooth="yes"/>
      <point x="452" y="805"/>
      <point x="481" y="805" type="qcurve" smooth="yes"/>
      <point x="510" y="805"/>
      <point x="510" y="788" type="qcurve" smooth="yes"/>
      <point x="510" y="122" type="line" smooth="yes"/>
      <point x="510" y="33"/>
      <point x="605" y="38" type="qcurve" smooth="yes"/>
      <point x="632" y="39"/>
      <point x="678" y="111" type="qcurve" smooth="yes"/>
      <point x="683" y="117"/>
      <point x="694" y="117" type="qcurve"/>
      <point x="694" y="117" type="line"/>
      <point x="707" y="117"/>
      <point x="721" y="110" type="qcurve"/>
      <point x="738" y="100"/>
    </contour>
  </outline>
</glyph>
<glyph name="uni0AB7" format="1">
  <advance width="904"/>
  <unicode hex="0AB7"/>
  <outline>
    <contour>
      <point x="473" y="0" type="move" name="Anchor-7"/>
    </contour>
    <contour>
      <point x="473" y="0" type="move" name="Anchor-6"/>
    </contour>
    <contour>
      <point x="506" y="759" type="move" name="Anchor-2"/>
    </contour>
    <contour>
      <point x="506" y="759" type="move" name="Anchor-0"/>
    </contour>
    <contour>
      <point x="188" y="760" type="qcurve"/>
      <point x="495" y="411" type="line"/>
      <point x="495" y="319" type="line"/>
      <point x="429" y="266"/>
      <point x="353" y="266" type="qcurve" smooth="yes"/>
      <point x="267" y="266"/>
      <point x="204" y="308" type="qcurve" smooth="yes"/>
      <point x="132" y="356"/>
      <point x="132" y="437" type="qcurve" smooth="yes"/>
      <point x="132" y="744" type="line" smooth="yes"/>
      <point x="132" y="779"/>
      <point x="75" y="779" type="qcurve" smooth="yes"/>
      <point x="68" y="779"/>
      <point x="31" y="760"/>
      <point x="23" y="760" type="qcurve" smooth="yes"/>
      <point x="11" y="760"/>
      <point x="-13" y="780"/>
      <point x="-13" y="792" type="qcurve" smooth="yes"/>
      <point x="-13" y="798"/>
      <point x="-9" y="802" type="qcurve" smooth="yes"/>
      <point x="27" y="837"/>
      <point x="75" y="837" type="qcurve" smooth="yes"/>
      <point x="115" y="837"/>
      <point x="146" y="818" type="qcurve" smooth="yes"/>
      <point x="181" y="797"/>
    </contour>
    <contour>
      <point x="460" y="365" type="qcurve"/>
      <point x="190" y="672" type="line"/>
      <point x="190" y="437" type="line" smooth="yes"/>
      <point x="190" y="345"/>
      <point x="330" y="326" type="qcurve" smooth="yes"/>
      <point x="385" y="318"/>
    </contour>
    <contour>
      <point x="721" y="88" type="qcurve" smooth="yes"/>
      <point x="657" y="-20"/>
      <point x="595" y="-20" type="qcurve" smooth="yes"/>
      <point x="526" y="-20"/>
      <point x="442" y="53"/>
      <point x="442" y="122" type="qcurve" smooth="yes"/>
      <point x="442" y="788" type="line" smooth="yes"/>
      <point x="442" y="805"/>
      <point x="471" y="805" type="qcurve" smooth="yes"/>
      <point x="500" y="805"/>
      <point x="500" y="788" type="qcurve" smooth="yes"/>
      <point x="500" y="122" type="line" smooth="yes"/>
      <point x="500" y="38"/>
      <point x="595" y="38" type="qcurve" smooth="yes"/>
      <point x="621" y="38"/>
      <point x="668" y="111" type="qcurve" smooth="yes"/>
      <point x="673" y="117"/>
      <point x="683" y="117" type="qcurve"/>
      <point x="683" y="117" type="line"/>
      <point x="697" y="117"/>
      <point x="711" y="110" type="qcurve"/>
      <point x="728" y="100"/>
    </contour>
  </outline>
</glyph>
<glyph name="uni0ABC" format="1">
  <advance width="0"/>
  <unicode hex="0ABC"/>
  <outline>
    <contour>
      <point x="33" y="-44" type="move" name="_Anchor-5"/>
    </contour>
    <contour>
      <point x="172" y="-117" type="qcurve" smooth="yes"/>
      <point x="172" y="-143"/>
      <point x="135" y="-181"/>
      <point x="109" y="-181" type="qcurve" smooth="yes"/>
      <point x="82" y="-181"/>
      <point x="45" y="-143"/>
      <point x="45" y="-117" type="qcurve" smooth="yes"/>
      <point x="45" y="-92"/>
      <point x="84" y="-55"/>
      <point x="109" y="-55" type="qcurve" smooth="yes"/>
      <point x="135" y="-55"/>
      <point x="172" y="-91"/>
    </contour>
  </outline>
</glyph>
<glyph name="uni0ABD" format="1">
  <advance width="776"/>
  <unicode hex="0ABD"/>
  <outline>
    <contour>
      <point x="694" y="334" type="qcurve" smooth="yes"/>
      <point x="694" y="217"/>
      <point x="630" y="133" type="qcurve" smooth="yes"/>
      <point x="561" y="41"/>
      <point x="447" y="41" type="qcurve" smooth="yes"/>
      <point x="249" y="41"/>
      <point x="120" y="255" type="qcurve" smooth="yes"/>
      <point x="95" y="297"/>
      <point x="20" y="427" type="qcurve" smooth="yes"/>
      <point x="19" y="430"/>
      <point x="19" y="434" type="qcurve"/>
      <point x="19" y="434" type="line"/>
      <point x="19" y="449"/>
      <point x="41" y="460" type="qcurve"/>
      <point x="62" y="472"/>
      <point x="70" y="459" type="qcurve" smooth="yes"/>
      <point x="158" y="301" type="line" smooth="yes"/>
      <point x="271" y="98"/>
      <point x="447" y="98" type="qcurve" smooth="yes"/>
      <point x="535" y="98"/>
      <point x="588" y="175" type="qcurve" smooth="yes"/>
      <point x="636" y="243"/>
      <point x="636" y="334" type="qcurve" smooth="yes"/>
      <point x="636" y="443"/>
      <point x="505" y="443" type="qcurve" smooth="yes"/>
      <point x="478" y="443"/>
      <point x="408" y="437" type="qcurve" smooth="yes"/>
      <point x="395" y="436"/>
      <point x="381" y="436" type="qcurve" smooth="yes"/>
      <point x="285" y="436"/>
      <point x="159" y="555"/>
      <point x="159" y="652" type="qcurve" smooth="yes"/>
      <point x="159" y="720"/>
      <point x="199" y="768" type="qcurve" smooth="yes"/>
      <point x="241" y="820"/>
      <point x="308" y="820" type="qcurve" smooth="yes"/>
      <point x="607" y="820" type="line" smooth="yes"/>
      <point x="624" y="820"/>
      <point x="624" y="791" type="qcurve" smooth="yes"/>
      <point x="624" y="762"/>
      <point x="607" y="762" type="qcurve" smooth="yes"/>
      <point x="308" y="762" type="line" smooth="yes"/>
      <point x="266" y="762"/>
      <point x="217" y="695"/>
      <point x="217" y="652" type="qcurve" smooth="yes"/>
      <point x="217" y="574"/>
      <point x="272" y="531" type="qcurve"/>
      <point x="324" y="489"/>
      <point x="403" y="495" type="qcurve" smooth="yes"/>
      <point x="461" y="500"/>
      <point x="489" y="500" type="qcurve" smooth="yes"/>
      <point x="588" y="500"/>
      <point x="636" y="468" type="qcurve" smooth="yes"/>
      <point x="694" y="429"/>
    </contour>
  </outline>
</glyph>
<glyph name="uni0ABE" format="1">
  <advance width="371"/>
  <unicode hex="0ABE"/>
  <outline>
    <contour>
      <point x="66" y="748" type="move" name="Anchor-3"/>
    </contour>
    <contour>
      <point x="66" y="748" type="move" name="Anchor-1"/>
    </contour>
    <contour>
      <point x="279" y="88" type="qcurve" smooth="yes"/>
      <point x="215" y="-20"/>
      <point x="153" y="-20" type="qcurve" smooth="yes"/>
      <point x="84" y="-20"/>
      <point x="0" y="53"/>
      <point x="0" y="122" type="qcurve" smooth="yes"/>
      <point x="0" y="788" type="line" smooth="yes"/>
      <point x="0" y="805"/>
      <point x="29" y="805" type="qcurve" smooth="yes"/>
      <point x="58" y="805"/>
      <point x="58" y="788" type="qcurve" smooth="yes"/>
      <point x="58" y="122" type="line" smooth="yes"/>
      <point x="58" y="38"/>
      <point x="153" y="38" type="qcurve" smooth="yes"/>
      <point x="180" y="38"/>
      <point x="226" y="111" type="qcurve"/>
      <point x="232" y="117"/>
      <point x="242" y="117" type="qcurve"/>
      <point x="242" y="117" type="line"/>
      <point x="255" y="117"/>
      <point x="269" y="110" type="qcurve" smooth="yes"/>
      <point x="287" y="100"/>
    </contour>
  </outline>
</glyph>
<glyph name="uni0ABF" format="1">
  <advance width="336"/>
  <unicode hex="0ABF"/>
  <outline>
    <contour>
      <point x="825" y="979" type="move" name="Anchor-3"/>
    </contour>
    <contour>
      <point x="58" y="122" type="line" smooth="yes"/>
      <point x="58" y="38"/>
      <point x="153" y="38" type="qcurve" smooth="yes"/>
      <point x="180" y="38"/>
      <point x="226" y="111" type="qcurve"/>
      <point x="232" y="117"/>
      <point x="242" y="117" type="qcurve"/>
      <point x="242" y="117" type="line"/>
      <point x="255" y="117"/>
      <point x="269" y="110" type="qcurve" smooth="yes"/>
      <point x="287" y="100"/>
      <point x="279" y="88" type="qcurve" smooth="yes"/>
      <point x="215" y="-20"/>
      <point x="153" y="-20" type="qcurve" smooth="yes"/>
      <point x="84" y="-20"/>
      <point x="0" y="53"/>
      <point x="0" y="122" type="qcurve" smooth="yes"/>
      <point x="0" y="970" type="line" smooth="yes"/>
      <point x="0" y="1063"/>
      <point x="53" y="1124" type="qcurve" smooth="yes"/>
      <point x="77" y="1152"/>
      <point x="144" y="1169" type="qcurve" smooth="yes"/>
      <point x="202" y="1184"/>
      <point x="255" y="1184" type="qcurve" smooth="yes"/>
      <point x="495" y="1184"/>
      <point x="613" y="1147" type="qcurve" smooth="yes"/>
      <point x="800" y="1087"/>
      <point x="850" y="915" type="qcurve" smooth="yes"/>
      <point x="854" y="901"/>
      <point x="827" y="901" type="qcurve" smooth="yes"/>
      <point x="794" y="901"/>
      <point x="785" y="927" type="qcurve" smooth="yes"/>
      <point x="747" y="1037"/>
      <point x="609" y="1085" type="qcurve" smooth="yes"/>
      <point x="484" y="1129"/>
      <point x="255" y="1129" type="qcurve" smooth="yes"/>
      <point x="216" y="1129"/>
      <point x="169" y="1119" type="qcurve" smooth="yes"/>
      <point x="113" y="1106"/>
      <point x="96" y="1087" type="qcurve" smooth="yes"/>
      <point x="58" y="1044"/>
      <point x="58" y="980" type="qcurve" smooth="yes"/>
    </contour>
  </outline>
</glyph>
<glyph name="uni0AC0" format="1">
  <advance width="312"/>
  <unicode hex="0AC0"/>
  <outline>
    <contour>
      <point x="66" y="1045" type="move" name="Anchor-3"/>
    </contour>
    <contour>
      <point x="278" y="85" type="qcurve" smooth="yes"/>
      <point x="236" y="22"/>
      <point x="219" y="6" type="qcurve" smooth="yes"/>
      <point x="190" y="-20"/>
      <point x="138" y="-20" type="qcurve" smooth="yes"/>
      <point x="0" y="-20"/>
      <point x="0" y="144" type="qcurve" smooth="yes"/>
      <point x="0" y="956" type="line" smooth="yes"/>
      <point x="0" y="1012"/>
      <point x="-35" y="1054" type="qcurve" smooth="yes"/>
      <point x="-73" y="1100"/>
      <point x="-127" y="1100" type="qcurve" smooth="yes"/>
      <point x="-182" y="1100"/>
      <point x="-207" y="1090" type="qcurve" smooth="yes"/>
      <point x="-243" y="1076"/>
      <point x="-263" y="1032" type="qcurve" smooth="yes"/>
      <point x="-299" y="955"/>
      <point x="-298" y="855" type="qcurve" smooth="yes"/>
      <point x="-298" y="838"/>
      <point x="-327" y="838" type="qcurve" smooth="yes"/>
      <point x="-356" y="838"/>
      <point x="-356" y="855" type="qcurve" smooth="yes"/>
      <point x="-359" y="1017"/>
      <point x="-302" y="1089" type="qcurve" smooth="yes"/>
      <point x="-247" y="1158"/>
      <point x="-127" y="1158" type="qcurve" smooth="yes"/>
      <point x="-49" y="1158"/>
      <point x="6" y="1095" type="qcurve" smooth="yes"/>
      <point x="58" y="1036"/>
      <point x="58" y="956" type="qcurve" smooth="yes"/>
      <point x="58" y="144" type="line" smooth="yes"/>
      <point x="58" y="38"/>
      <point x="138" y="38" type="qcurve" smooth="yes"/>
      <point x="171" y="38"/>
      <point x="194" y="67" type="qcurve" smooth="yes"/>
      <point x="226" y="108" type="line"/>
      <point x="232" y="114"/>
      <point x="242" y="114" type="qcurve"/>
      <point x="242" y="114" type="line"/>
      <point x="252" y="114"/>
      <point x="280" y="99"/>
      <point x="280" y="90" type="qcurve" smooth="yes"/>
      <point x="280" y="88"/>
    </contour>
  </outline>
</glyph>
<glyph name="uni0AC1" format="1">
  <advance width="0"/>
  <unicode hex="0AC1"/>
  <outline>
    <contour>
      <point x="-154" y="-297" type="move" name="Anchor-8"/>
    </contour>
    <contour>
      <point x="-176" y="0" type="move" name="_Anchor-6"/>
    </contour>
    <contour>
      <point x="16" y="-165" type="qcurve" smooth="yes"/>
      <point x="16" y="-258"/>
      <point x="-72" y="-316" type="qcurve"/>
      <point x="-150" y="-366"/>
      <point x="-248" y="-366" type="qcurve" smooth="yes"/>
      <point x="-384" y="-366"/>
      <point x="-484" y="-287" type="qcurve" smooth="yes"/>
      <point x="-540" y="-242"/>
      <point x="-659" y="-91" type="qcurve" smooth="yes"/>
      <point x="-662" y="-88"/>
      <point x="-662" y="-85" type="qcurve"/>
      <point x="-662" y="-85" type="line"/>
      <point x="-662" y="-74"/>
      <point x="-639" y="-64" type="qcurve" smooth="yes"/>
      <point x="-616" y="-54"/>
      <point x="-607" y="-65" type="qcurve" smooth="yes"/>
      <point x="-513" y="-186"/>
      <point x="-460" y="-229" type="qcurve" smooth="yes"/>
      <point x="-364" y="-308"/>
      <point x="-248" y="-308" type="qcurve" smooth="yes"/>
      <point x="-172" y="-308"/>
      <point x="-113" y="-275" type="qcurve" smooth="yes"/>
      <point x="-42" y="-235"/>
      <point x="-42" y="-165" type="qcurve" smooth="yes"/>
      <point x="-42" y="-112"/>
      <point x="-91" y="-81" type="qcurve" smooth="yes"/>
      <point x="-134" y="-54"/>
      <point x="-190" y="-54" type="qcurve" smooth="yes"/>
      <point x="-255" y="-54"/>
      <point x="-297" y="-126" type="qcurve" smooth="yes"/>
      <point x="-301" y="-132"/>
      <point x="-308" y="-132" type="qcurve" smooth="yes"/>
      <point x="-322" y="-132"/>
      <point x="-352" y="-107"/>
      <point x="-346" y="-94" type="qcurve" smooth="yes"/>
      <point x="-297" y="4"/>
      <point x="-190" y="4" type="qcurve" smooth="yes"/>
      <point x="-108" y="4"/>
      <point x="-49" y="-39" type="qcurve" smooth="yes"/>
      <point x="16" y="-86"/>
    </contour>
  </outline>
</glyph>
<glyph name="uni0AC2" format="1">
  <advance width="0"/>
  <unicode hex="0AC2"/>
  <outline>
    <contour>
      <point x="-154" y="-352" type="move" name="Anchor-8"/>
    </contour>
    <contour>
      <point x="-352" y="-11" type="move" name="_Anchor-6"/>
    </contour>
    <contour>
      <point x="75" y="-427" type="qcurve"/>
      <point x="75" y="-427" type="line"/>
      <point x="75" y="-442"/>
      <point x="52" y="-452" type="qcurve" smooth="yes"/>
      <point x="29" y="-462"/>
      <point x="22" y="-447" type="qcurve" smooth="yes"/>
      <point x="-154" y="-71"/>
      <point x="-362" y="-71" type="qcurve" smooth="yes"/>
      <point x="-422" y="-71"/>
      <point x="-466" y="-98" type="qcurve" smooth="yes"/>
      <point x="-518" y="-130"/>
      <point x="-518" y="-187" type="qcurve" smooth="yes"/>
      <point x="-518" y="-279"/>
      <point x="-385" y="-279" type="qcurve" smooth="yes"/>
      <point x="-331" y="-279"/>
      <point x="-284" y="-261" type="qcurve" smooth="yes"/>
      <point x="-272" y="-256"/>
      <point x="-253" y="-288"/>
      <point x="-253" y="-301" type="qcurve" smooth="yes"/>
      <point x="-253" y="-312"/>
      <point x="-261" y="-313" type="qcurve" smooth="yes"/>
      <point x="-325" y="-323"/>
      <point x="-392" y="-323" type="qcurve" smooth="yes"/>
      <point x="-576" y="-323"/>
      <point x="-576" y="-187" type="qcurve" smooth="yes"/>
      <point x="-576" y="-104"/>
      <point x="-508" y="-56" type="qcurve" smooth="yes"/>
      <point x="-448" y="-13"/>
      <point x="-362" y="-13" type="qcurve" smooth="yes"/>
      <point x="-204" y="-13"/>
      <point x="-66" y="-140" type="qcurve" smooth="yes"/>
      <point x="75" y="-270"/>
    </contour>
  </outline>
</glyph>
<glyph name="uni0AC3" format="1">
  <advance width="0"/>
  <unicode hex="0AC3"/>
  <outline>
    <contour>
      <point x="-66" y="-286" type="move" name="Anchor-8"/>
    </contour>
    <contour>
      <point x="-198" y="-11" type="move" name="_Anchor-6"/>
    </contour>
    <contour>
      <point x="38" y="-252" type="qcurve" smooth="yes"/>
      <point x="-37" y="-359"/>
      <point x="-174" y="-359" type="qcurve" smooth="yes"/>
      <point x="-274" y="-359"/>
      <point x="-334" y="-315" type="qcurve" smooth="yes"/>
      <point x="-403" y="-264"/>
      <point x="-403" y="-168" type="qcurve" smooth="yes"/>
      <point x="-403" y="-108"/>
      <point x="-336" y="-58" type="qcurve" smooth="yes"/>
      <point x="-314" y="-42"/>
      <point x="-217" y="4" type="qcurve" smooth="yes"/>
      <point x="-205" y="10"/>
      <point x="-188" y="-20"/>
      <point x="-188" y="-33" type="qcurve" smooth="yes"/>
      <point x="-188" y="-46"/>
      <point x="-197" y="-51" type="qcurve"/>
      <point x="-214" y="-58"/>
      <point x="-294" y="-94" type="qcurve" smooth="yes"/>
      <point x="-345" y="-117"/>
      <point x="-345" y="-168" type="qcurve" smooth="yes"/>
      <point x="-345" y="-301"/>
      <point x="-174" y="-301" type="qcurve" smooth="yes"/>
      <point x="-121" y="-301"/>
      <point x="-80" y="-269" type="qcurve" smooth="yes"/>
      <point x="-61" y="-255"/>
      <point x="-3" y="-211" type="qcurve" smooth="yes"/>
      <point x="1" y="-209"/>
      <point x="6" y="-209" type="qcurve"/>
      <point x="6" y="-209" type="line"/>
      <point x="21" y="-209"/>
      <point x="47" y="-239"/>
    </contour>
  </outline>
</glyph>
<glyph name="uni0AC4" format="1">
  <advance width="0"/>
  <unicode hex="0AC4"/>
  <outline>
    <contour>
      <point x="-154" y="-330" type="move" name="Anchor-8"/>
    </contour>
    <contour>
      <point x="-275" y="0" type="move" name="_Anchor-6"/>
    </contour>
    <contour>
      <point x="-122" y="-153" type="qcurve"/>
      <point x="-172" y="-224"/>
      <point x="-262" y="-224" type="qcurve" smooth="yes"/>
      <point x="-414" y="-224"/>
      <point x="-414" y="-98" type="qcurve" smooth="yes"/>
      <point x="-414" y="-57"/>
      <point x="-369" y="-25" type="qcurve" smooth="yes"/>
      <point x="-355" y="-14"/>
      <point x="-291" y="16" type="qcurve" smooth="yes"/>
      <point x="-272" y="25"/>
      <point x="-272" y="-9" type="qcurve" smooth="yes"/>
      <point x="-272" y="-18"/>
      <point x="-278" y="-20" type="qcurve" smooth="yes"/>
      <point x="-340" y="-48" type="line"/>
      <point x="-375" y="-68"/>
      <point x="-375" y="-98" type="qcurve" smooth="yes"/>
      <point x="-375" y="-187"/>
      <point x="-262" y="-187" type="qcurve" smooth="yes"/>
      <point x="-229" y="-187"/>
      <point x="-200" y="-165" type="qcurve" smooth="yes"/>
      <point x="-150" y="-128"/>
      <point x="-143" y="-125" type="qcurve"/>
      <point x="-143" y="-125" type="line"/>
      <point x="-133" y="-125"/>
      <point x="-115" y="-145"/>
    </contour>
    <contour>
      <point x="-122" y="-362" type="qcurve" smooth="yes"/>
      <point x="-172" y="-434"/>
      <point x="-262" y="-434" type="qcurve" smooth="yes"/>
      <point x="-414" y="-434"/>
      <point x="-414" y="-307" type="qcurve" smooth="yes"/>
      <point x="-414" y="-266"/>
      <point x="-369" y="-235" type="qcurve"/>
      <point x="-352" y="-222"/>
      <point x="-291" y="-193" type="qcurve" smooth="yes"/>
      <point x="-272" y="-183"/>
      <point x="-272" y="-217" type="qcurve" smooth="yes"/>
      <point x="-272" y="-226"/>
      <point x="-278" y="-229" type="qcurve" smooth="yes"/>
      <point x="-307" y="-243"/>
      <point x="-340" y="-256" type="qcurve"/>
      <point x="-375" y="-277"/>
      <point x="-375" y="-307" type="qcurve" smooth="yes"/>
      <point x="-375" y="-395"/>
      <point x="-262" y="-395" type="qcurve" smooth="yes"/>
      <point x="-230" y="-395"/>
      <point x="-200" y="-374" type="qcurve" smooth="yes"/>
      <point x="-152" y="-340"/>
      <point x="-143" y="-334" type="qcurve"/>
      <point x="-143" y="-334" type="line"/>
      <point x="-133" y="-334"/>
      <point x="-115" y="-353"/>
    </contour>
  </outline>
</glyph>
<glyph name="uni0AC5" format="1">
  <advance width="0"/>
  <unicode hex="0AC5"/>
  <outline>
    <contour>
      <point x="-11" y="979" type="move" name="Anchor-3"/>
    </contour>
    <contour>
      <point x="-66" y="704" type="move" name="_Anchor-0"/>
    </contour>
    <contour>
      <point x="-480" y="1211" type="qcurve"/>
      <point x="-480" y="1211" type="line"/>
      <point x="-480" y="1225"/>
      <point x="-457" y="1227" type="qcurve" smooth="yes"/>
      <point x="-432" y="1230"/>
      <point x="-424" y="1214" type="qcurve" smooth="yes"/>
      <point x="-329" y="1036"/>
      <point x="-319" y="1022" type="qcurve" smooth="yes"/>
      <point x="-251" y="922"/>
      <point x="-176" y="922" type="qcurve" smooth="yes"/>
      <point x="-144" y="922"/>
      <point x="-96" y="942" type="qcurve" smooth="yes"/>
      <point x="-83" y="948"/>
      <point x="-71" y="933" type="qcurve"/>
      <point x="-62" y="919"/>
      <point x="-62" y="905" type="qcurve" smooth="yes"/>
      <point x="-62" y="894"/>
      <point x="-70" y="890" type="qcurve" smooth="yes"/>
      <point x="-111" y="870" type="line"/>
      <point x="-130" y="864"/>
      <point x="-176" y="864" type="qcurve" smooth="yes"/>
      <point x="-257" y="864"/>
      <point x="-345" y="987" type="qcurve" smooth="yes"/>
      <point x="-360" y="1008"/>
      <point x="-419" y="1105" type="qcurve" smooth="yes"/>
      <point x="-480" y="1206"/>
    </contour>
  </outline>
</glyph>
<glyph name="uni0AC7" format="1">
  <advance width="0"/>
  <unicode hex="0AC7"/>
  <outline>
    <contour>
      <point x="0" y="979" type="move" name="Anchor-3"/>
    </contour>
    <contour>
      <point x="-66" y="704" type="move" name="_Anchor-0"/>
    </contour>
    <contour>
      <point x="-56" y="880" type="qcurve"/>
      <point x="-56" y="880" type="line"/>
      <point x="-56" y="867"/>
      <point x="-80" y="864" type="qcurve" smooth="yes"/>
      <point x="-104" y="861"/>
      <point x="-113" y="877" type="qcurve" smooth="yes"/>
      <point x="-207" y="1055"/>
      <point x="-217" y="1070" type="qcurve" smooth="yes"/>
      <point x="-285" y="1170"/>
      <point x="-361" y="1170" type="qcurve" smooth="yes"/>
      <point x="-393" y="1170"/>
      <point x="-440" y="1149" type="qcurve" smooth="yes"/>
      <point x="-454" y="1143"/>
      <point x="-465" y="1159" type="qcurve" smooth="yes"/>
      <point x="-475" y="1172"/>
      <point x="-475" y="1187" type="qcurve" smooth="yes"/>
      <point x="-475" y="1197"/>
      <point x="-466" y="1201" type="qcurve" smooth="yes"/>
      <point x="-426" y="1222" type="line"/>
      <point x="-407" y="1227"/>
      <point x="-361" y="1227" type="qcurve" smooth="yes"/>
      <point x="-279" y="1227"/>
      <point x="-191" y="1104" type="qcurve" smooth="yes"/>
      <point x="-175" y="1082"/>
      <point x="-117" y="987" type="qcurve" smooth="yes"/>
      <point x="-56" y="887"/>
    </contour>
  </outline>
</glyph>
<glyph name="uni0AC8" format="1">
  <advance width="0"/>
  <unicode hex="0AC8"/>
  <outline>
    <contour>
      <point x="0" y="968" type="move" name="Anchor-3"/>
    </contour>
    <contour>
      <point x="-66" y="704" type="move" name="_Anchor-0"/>
    </contour>
    <contour>
      <point x="-55" y="895" type="qcurve" smooth="yes"/>
      <point x="-49" y="881"/>
      <point x="-80" y="859"/>
      <point x="-94" y="859" type="qcurve" smooth="yes"/>
      <point x="-104" y="859"/>
      <point x="-107" y="866" type="qcurve" smooth="yes"/>
      <point x="-167" y="1018"/>
      <point x="-211" y="1085" type="qcurve" smooth="yes"/>
      <point x="-279" y="1186"/>
      <point x="-372" y="1215" type="qcurve" smooth="yes"/>
      <point x="-396" y="1222"/>
      <point x="-440" y="1208" type="qcurve" smooth="yes"/>
      <point x="-453" y="1203"/>
      <point x="-475" y="1233"/>
      <point x="-475" y="1247" type="qcurve" smooth="yes"/>
      <point x="-475" y="1258"/>
      <point x="-466" y="1260" type="qcurve" smooth="yes"/>
      <point x="-391" y="1279"/>
      <point x="-340" y="1263" type="qcurve" smooth="yes"/>
      <point x="-189" y="1214"/>
    </contour>
    <contour>
      <point x="-153" y="862" type="qcurve" smooth="yes"/>
      <point x="-149" y="858"/>
      <point x="-149" y="849" type="qcurve"/>
      <point x="-149" y="849" type="line"/>
      <point x="-149" y="833"/>
      <point x="-175" y="803"/>
      <point x="-188" y="815" type="qcurve" smooth="yes"/>
      <point x="-316" y="934"/>
      <point x="-348" y="957" type="qcurve" smooth="yes"/>
      <point x="-434" y="1021"/>
      <point x="-510" y="1021" type="qcurve" smooth="yes"/>
      <point x="-542" y="1021"/>
      <point x="-589" y="1001" type="qcurve" smooth="yes"/>
      <point x="-603" y="995"/>
      <point x="-624" y="1024"/>
      <point x="-624" y="1038" type="qcurve" smooth="yes"/>
      <point x="-624" y="1048"/>
      <point x="-615" y="1053" type="qcurve" smooth="yes"/>
      <point x="-575" y="1073" type="line"/>
      <point x="-556" y="1079"/>
      <point x="-510" y="1079" type="qcurve" smooth="yes"/>
      <point x="-429" y="1079"/>
      <point x="-330" y="1009" type="qcurve" smooth="yes"/>
      <point x="-287" y="979"/>
    </contour>
  </outline>
</glyph>
<glyph name="uni0AC9" format="1">
  <advance width="371"/>
  <unicode hex="0AC9"/>
  <outline>
    <contour>
      <point x="55" y="957" type="move" name="Anchor-3"/>
    </contour>
    <contour>
      <point x="279" y="88" type="qcurve" smooth="yes"/>
      <point x="215" y="-20"/>
      <point x="153" y="-20" type="qcurve" smooth="yes"/>
      <point x="84" y="-20"/>
      <point x="0" y="53"/>
      <point x="0" y="122" type="qcurve" smooth="yes"/>
      <point x="0" y="788" type="line" smooth="yes"/>
      <point x="0" y="805"/>
      <point x="29" y="805" type="qcurve" smooth="yes"/>
      <point x="58" y="805"/>
      <point x="58" y="788" type="qcurve" smooth="yes"/>
      <point x="58" y="122" type="line" smooth="yes"/>
      <point x="58" y="38"/>
      <point x="153" y="38" type="qcurve" smooth="yes"/>
      <point x="180" y="38"/>
      <point x="226" y="111" type="qcurve"/>
      <point x="232" y="117"/>
      <point x="242" y="117" type="qcurve"/>
      <point x="242" y="117" type="line"/>
      <point x="255" y="117"/>
      <point x="269" y="110" type="qcurve" smooth="yes"/>
      <point x="287" y="100"/>
    </contour>
    <contour>
      <point x="-351" y="1187" type="qcurve"/>
      <point x="-351" y="1187" type="line"/>
      <point x="-351" y="1200"/>
      <point x="-327" y="1203" type="qcurve" smooth="yes"/>
      <point x="-303" y="1206"/>
      <point x="-294" y="1190" type="qcurve" smooth="yes"/>
      <point x="-200" y="1012"/>
      <point x="-190" y="998" type="qcurve" smooth="yes"/>
      <point x="-122" y="898"/>
      <point x="-47" y="898" type="qcurve" smooth="yes"/>
      <point x="-14" y="898"/>
      <point x="33" y="918" type="qcurve" smooth="yes"/>
      <point x="47" y="924"/>
      <point x="68" y="895"/>
      <point x="68" y="880" type="qcurve" smooth="yes"/>
      <point x="68" y="870"/>
      <point x="59" y="866" type="qcurve" smooth="yes"/>
      <point x="19" y="846" type="line"/>
      <point x="0" y="840"/>
      <point x="-47" y="840" type="qcurve" smooth="yes"/>
      <point x="-128" y="840"/>
      <point x="-216" y="963" type="qcurve" smooth="yes"/>
      <point x="-231" y="984"/>
      <point x="-351" y="1181"/>
    </contour>
  </outline>
</glyph>
<glyph name="uni0ACB" format="1">
  <advance width="371"/>
  <unicode hex="0ACB"/>
  <outline>
    <contour>
      <point x="55" y="957" type="move" name="Anchor-3"/>
    </contour>
    <contour>
      <point x="279" y="88" type="qcurve" smooth="yes"/>
      <point x="215" y="-20"/>
      <point x="153" y="-20" type="qcurve" smooth="yes"/>
      <point x="84" y="-20"/>
      <point x="0" y="53"/>
      <point x="0" y="122" type="qcurve" smooth="yes"/>
      <point x="0" y="788" type="line" smooth="yes"/>
      <point x="0" y="805"/>
      <point x="29" y="805" type="qcurve" smooth="yes"/>
      <point x="58" y="805"/>
      <point x="58" y="788" type="qcurve" smooth="yes"/>
      <point x="58" y="122" type="line" smooth="yes"/>
      <point x="58" y="38"/>
      <point x="153" y="38" type="qcurve" smooth="yes"/>
      <point x="180" y="38"/>
      <point x="226" y="111" type="qcurve"/>
      <point x="232" y="117"/>
      <point x="242" y="117" type="qcurve"/>
      <point x="242" y="117" type="line"/>
      <point x="255" y="117"/>
      <point x="269" y="110" type="qcurve" smooth="yes"/>
      <point x="287" y="100"/>
    </contour>
    <contour>
      <point x="32" y="856" type="qcurve"/>
      <point x="32" y="856" type="line"/>
      <point x="32" y="843"/>
      <point x="8" y="840" type="qcurve" smooth="yes"/>
      <point x="-16" y="837"/>
      <point x="-25" y="853" type="qcurve" smooth="yes"/>
      <point x="-119" y="1031"/>
      <point x="-129" y="1045" type="qcurve" smooth="yes"/>
      <point x="-197" y="1145"/>
      <point x="-272" y="1145" type="qcurve" smooth="yes"/>
      <point x="-305" y="1145"/>
      <point x="-352" y="1125" type="qcurve" smooth="yes"/>
      <point x="-366" y="1119"/>
      <point x="-377" y="1135" type="qcurve" smooth="yes"/>
      <point x="-387" y="1148"/>
      <point x="-387" y="1163" type="qcurve" smooth="yes"/>
      <point x="-387" y="1173"/>
      <point x="-378" y="1177" type="qcurve" smooth="yes"/>
      <point x="-338" y="1197" type="line"/>
      <point x="-319" y="1203"/>
      <point x="-272" y="1203" type="qcurve" smooth="yes"/>
      <point x="-191" y="1203"/>
      <point x="-103" y="1080" type="qcurve" smooth="yes"/>
      <point x="-87" y="1058"/>
      <point x="-29" y="963" type="qcurve" smooth="yes"/>
      <point x="32" y="863"/>
    </contour>
  </outline>
</glyph>
<glyph name="uni0ACC" format="1">
  <advance width="371"/>
  <unicode hex="0ACC"/>
  <outline>
    <contour>
      <point x="33" y="979" type="move" name="Anchor-3"/>
    </contour>
    <contour>
      <point x="279" y="88" type="qcurve" smooth="yes"/>
      <point x="215" y="-20"/>
      <point x="153" y="-20" type="qcurve" smooth="yes"/>
      <point x="84" y="-20"/>
      <point x="0" y="53"/>
      <point x="0" y="122" type="qcurve" smooth="yes"/>
      <point x="0" y="788" type="line" smooth="yes"/>
      <point x="0" y="805"/>
      <point x="29" y="805" type="qcurve" smooth="yes"/>
      <point x="58" y="805"/>
      <point x="58" y="788" type="qcurve" smooth="yes"/>
      <point x="58" y="122" type="line" smooth="yes"/>
      <point x="58" y="38"/>
      <point x="153" y="38" type="qcurve" smooth="yes"/>
      <point x="180" y="38"/>
      <point x="226" y="111" type="qcurve"/>
      <point x="232" y="117"/>
      <point x="242" y="117" type="qcurve"/>
      <point x="242" y="117" type="line"/>
      <point x="255" y="117"/>
      <point x="269" y="110" type="qcurve" smooth="yes"/>
      <point x="287" y="100"/>
    </contour>
    <contour>
      <point x="39" y="901" type="qcurve" smooth="yes"/>
      <point x="45" y="887"/>
      <point x="14" y="864"/>
      <point x="0" y="864" type="qcurve" smooth="yes"/>
      <point x="-10" y="864"/>
      <point x="-13" y="872" type="qcurve" smooth="yes"/>
      <point x="-74" y="1024"/>
      <point x="-117" y="1090" type="qcurve" smooth="yes"/>
      <point x="-185" y="1192"/>
      <point x="-278" y="1221" type="qcurve" smooth="yes"/>
      <point x="-302" y="1228"/>
      <point x="-346" y="1213" type="qcurve" smooth="yes"/>
      <point x="-359" y="1209"/>
      <point x="-381" y="1239"/>
      <point x="-381" y="1253" type="qcurve" smooth="yes"/>
      <point x="-381" y="1263"/>
      <point x="-372" y="1266" type="qcurve" smooth="yes"/>
      <point x="-298" y="1285"/>
      <point x="-246" y="1268" type="qcurve" smooth="yes"/>
      <point x="-95" y="1220"/>
    </contour>
    <contour>
      <point x="-254" y="963" type="line"/>
      <point x="-340" y="1027"/>
      <point x="-416" y="1027" type="qcurve" smooth="yes"/>
      <point x="-448" y="1027"/>
      <point x="-495" y="1006" type="qcurve"/>
      <point x="-509" y="1001"/>
      <point x="-530" y="1030"/>
      <point x="-530" y="1044" type="qcurve" smooth="yes"/>
      <point x="-530" y="1054"/>
      <point x="-521" y="1058" type="qcurve" smooth="yes"/>
      <point x="-481" y="1079" type="line"/>
      <point x="-462" y="1085"/>
      <point x="-416" y="1085" type="qcurve" smooth="yes"/>
      <point x="-335" y="1085"/>
      <point x="-236" y="1015" type="qcurve" smooth="yes"/>
      <point x="-194" y="985"/>
      <point x="-60" y="867" type="qcurve"/>
      <point x="-55" y="864"/>
      <point x="-55" y="854" type="qcurve"/>
      <point x="-55" y="854" type="line"/>
      <point x="-55" y="844"/>
      <point x="-82" y="820" type="qcurve"/>
    </contour>
  </outline>
</glyph>
<glyph name="uni0ACD" format="1">
  <advance width="0"/>
  <unicode hex="0ACD"/>
  <outline>
    <contour>
      <point x="-71" y="-356" type="qcurve"/>
      <point x="-71" y="-356" type="line"/>
      <point x="-71" y="-371"/>
      <point x="-91" y="-381" type="qcurve" smooth="yes"/>
      <point x="-113" y="-391"/>
      <point x="-122" y="-379" type="qcurve" smooth="yes"/>
      <point x="-322" y="-96"/>
      <point x="-418" y="-96" type="qcurve" smooth="yes"/>
      <point x="-479" y="-96"/>
      <point x="-568" y="-130" type="qcurve" smooth="yes"/>
      <point x="-580" y="-135"/>
      <point x="-598" y="-105"/>
      <point x="-598" y="-93" type="qcurve" smooth="yes"/>
      <point x="-598" y="-81"/>
      <point x="-591" y="-78" type="qcurve" smooth="yes"/>
      <point x="-495" y="-38"/>
      <point x="-418" y="-38" type="qcurve" smooth="yes"/>
      <point x="-358" y="-38"/>
      <point x="-237" y="-158" type="qcurve" smooth="yes"/>
      <point x="-210" y="-185"/>
      <point x="-146" y="-258" type="qcurve" smooth="yes"/>
      <point x="-71" y="-343"/>
    </contour>
  </outline>
</glyph>
<glyph name="uni0AD0" format="1">
  <advance width="1228"/>
  <unicode hex="0AD0"/>
  <outline>
    <contour>
      <point x="408" y="456" type="qcurve"/>
      <point x="362" y="421"/>
      <point x="261" y="387" type="qcurve" smooth="yes"/>
      <point x="248" y="382"/>
      <point x="241" y="398" type="qcurve"/>
      <point x="235" y="409"/>
      <point x="235" y="423" type="qcurve" smooth="yes"/>
      <point x="235" y="438"/>
      <point x="243" y="442" type="qcurve" smooth="yes"/>
      <point x="373" y="499"/>
      <point x="382" y="505" type="qcurve" smooth="yes"/>
      <point x="469" y="560"/>
      <point x="469" y="637" type="qcurve" smooth="yes"/>
      <point x="469" y="696"/>
      <point x="372" y="776"/>
      <point x="313" y="776" type="qcurve" smooth="yes"/>
      <point x="278" y="776"/>
      <point x="227" y="749" type="qcurve" smooth="yes"/>
      <point x="169" y="717"/>
      <point x="146" y="712" type="qcurve" smooth="yes"/>
      <point x="133" y="710"/>
      <point x="107" y="737"/>
      <point x="107" y="750" type="qcurve" smooth="yes"/>
      <point x="107" y="759"/>
      <point x="114" y="762" type="qcurve" smooth="yes"/>
      <point x="251" y="834"/>
      <point x="313" y="834" type="qcurve" smooth="yes"/>
      <point x="398" y="834"/>
      <point x="461" y="779" type="qcurve" smooth="yes"/>
      <point x="527" y="721"/>
      <point x="527" y="637" type="qcurve" smooth="yes"/>
      <point x="527" y="560"/>
      <point x="456" y="492" type="qcurve"/>
      <point x="458" y="489"/>
      <point x="527" y="476" type="qcurve"/>
      <point x="578" y="476"/>
      <point x="624" y="517" type="qcurve"/>
      <point x="694" y="591" type="line" smooth="yes"/>
      <point x="763" y="664"/>
      <point x="794" y="686" type="qcurve" smooth="yes"/>
      <point x="850" y="727"/>
      <point x="918" y="727" type="qcurve" smooth="yes"/>
      <point x="1021" y="727"/>
      <point x="1083" y="646" type="qcurve"/>
      <point x="1141" y="572"/>
      <point x="1141" y="466" type="qcurve" smooth="yes"/>
      <point x="1141" y="349"/>
      <point x="1068" y="262" type="qcurve" smooth="yes"/>
      <point x="990" y="170"/>
      <point x="875" y="171" type="qcurve" smooth="yes"/>
      <point x="710" y="172"/>
      <point x="623" y="359" type="qcurve" smooth="yes"/>
      <point x="614" y="378"/>
      <point x="650" y="378" type="qcurve" smooth="yes"/>
      <point x="675" y="378"/>
      <point x="681" y="365" type="qcurve" smooth="yes"/>
      <point x="713" y="293"/>
      <point x="754" y="263" type="qcurve" smooth="yes"/>
      <point x="800" y="229"/>
      <point x="875" y="229" type="qcurve" smooth="yes"/>
      <point x="967" y="229"/>
      <point x="1027" y="303" type="qcurve" smooth="yes"/>
      <point x="1083" y="372"/>
      <point x="1083" y="466" type="qcurve" smooth="yes"/>
      <point x="1083" y="546"/>
      <point x="1041" y="604" type="qcurve" smooth="yes"/>
      <point x="995" y="669"/>
      <point x="918" y="669" type="qcurve" smooth="yes"/>
      <point x="865" y="669"/>
      <point x="818" y="633" type="qcurve" smooth="yes"/>
      <point x="799" y="618"/>
      <point x="657" y="463" type="qcurve"/>
      <point x="605" y="417"/>
      <point x="546" y="417" type="qcurve" smooth="yes"/>
      <point x="530" y="417"/>
      <point x="513" y="420" type="qcurve"/>
      <point x="571" y="332"/>
      <point x="571" y="246" type="qcurve" smooth="yes"/>
      <point x="571" y="148"/>
      <point x="442" y="9"/>
      <point x="345" y="9" type="qcurve" smooth="yes"/>
      <point x="210" y="9"/>
      <point x="109" y="158" type="qcurve" smooth="yes"/>
      <point x="39" y="261"/>
      <point x="6" y="388" type="qcurve" smooth="yes"/>
      <point x="0" y="411"/>
      <point x="41" y="411" type="qcurve" smooth="yes"/>
      <point x="59" y="411"/>
      <point x="64" y="400" type="qcurve" smooth="yes"/>
      <point x="90" y="330"/>
      <point x="135" y="220" type="qcurve" smooth="yes"/>
      <point x="197" y="67"/>
      <point x="345" y="67" type="qcurve" smooth="yes"/>
      <point x="419" y="67"/>
      <point x="513" y="171"/>
      <point x="513" y="246" type="qcurve" smooth="yes"/>
      <point x="513" y="352"/>
    </contour>
    <contour>
      <point x="782" y="1082" type="qcurve" smooth="yes"/>
      <point x="782" y="1054"/>
      <point x="739" y="1012"/>
      <point x="711" y="1012" type="qcurve" smooth="yes"/>
      <point x="683" y="1012"/>
      <point x="640" y="1054"/>
      <point x="640" y="1082" type="qcurve" smooth="yes"/>
      <point x="640" y="1111"/>
      <point x="682" y="1153"/>
      <point x="711" y="1153" type="qcurve" smooth="yes"/>
      <point x="740" y="1153"/>
      <point x="782" y="1111"/>
    </contour>
    <contour>
      <point x="1047" y="1037" type="qcurve" smooth="yes"/>
      <point x="1033" y="945"/>
      <point x="909" y="876" type="qcurve" smooth="yes"/>
      <point x="798" y="814"/>
      <point x="698" y="817" type="qcurve" smooth="yes"/>
      <point x="583" y="820"/>
      <point x="485" y="898" type="qcurve" smooth="yes"/>
      <point x="399" y="967"/>
      <point x="390" y="1032" type="qcurve" smooth="yes"/>
      <point x="388" y="1042"/>
      <point x="414" y="1060"/>
      <point x="424" y="1060" type="qcurve" smooth="yes"/>
      <point x="431" y="1060"/>
      <point x="433" y="1056" type="qcurve" smooth="yes"/>
      <point x="507" y="863"/>
      <point x="698" y="866" type="qcurve" smooth="yes"/>
      <point x="867" y="869"/>
      <point x="992" y="1048" type="qcurve" smooth="yes"/>
      <point x="995" y="1054"/>
      <point x="1008" y="1054" type="qcurve" smooth="yes"/>
      <point x="1049" y="1054"/>
    </contour>
  </outline>
</glyph>
<glyph name="uni0AE1" format="1">
  <advance width="1008"/>
  <unicode hex="0AE1"/>
  <outline>
    <contour>
      <point x="737" y="781" type="move" name="Anchor-4"/>
    </contour>
    <contour>
      <point x="733" y="530" type="line"/>
      <point x="675" y="557" type="line"/>
      <point x="675" y="799" type="line" smooth="yes"/>
      <point x="675" y="817"/>
      <point x="704" y="817" type="qcurve" smooth="yes"/>
      <point x="733" y="817"/>
      <point x="733" y="799" type="qcurve" smooth="yes"/>
    </contour>
    <contour>
      <point x="859" y="330" type="qcurve" smooth="yes"/>
      <point x="859" y="312"/>
      <point x="846" y="308" type="qcurve" smooth="yes"/>
      <point x="801" y="293" type="line" smooth="yes"/>
      <point x="765" y="281"/>
      <point x="727" y="255" type="qcurve" smooth="yes"/>
      <point x="685" y="227"/>
      <point x="667" y="219" type="qcurve" smooth="yes"/>
      <point x="617" y="198"/>
      <point x="617" y="158" type="qcurve" smooth="yes"/>
      <point x="617" y="55"/>
      <point x="720" y="55" type="qcurve" smooth="yes"/>
      <point x="765" y="55"/>
      <point x="792" y="76" type="qcurve" smooth="yes"/>
      <point x="807" y="88"/>
      <point x="820" y="88" type="qcurve" smooth="yes"/>
      <point x="849" y="88"/>
      <point x="849" y="50" type="qcurve" smooth="yes"/>
      <point x="849" y="22"/>
      <point x="829" y="27" type="qcurve"/>
      <point x="782" y="8"/>
      <point x="731" y="8" type="qcurve" smooth="yes"/>
      <point x="659" y="8"/>
      <point x="612" y="44" type="qcurve" smooth="yes"/>
      <point x="559" y="85"/>
      <point x="559" y="158" type="qcurve" smooth="yes"/>
      <point x="559" y="209"/>
      <point x="625" y="249" type="qcurve"/>
      <point x="631" y="260"/>
      <point x="694" y="297" type="qcurve"/>
      <point x="795" y="346"/>
      <point x="830" y="360" type="qcurve" smooth="yes"/>
      <point x="841" y="365"/>
      <point x="859" y="341"/>
    </contour>
    <contour>
      <point x="857" y="330" type="qcurve"/>
      <point x="799" y="330" type="line"/>
      <point x="799" y="404"/>
      <point x="692" y="505"/>
      <point x="618" y="505" type="qcurve" smooth="yes"/>
      <point x="568" y="505"/>
      <point x="461" y="459"/>
      <point x="427" y="423" type="qcurve"/>
      <point x="458" y="372"/>
      <point x="458" y="339" type="qcurve" smooth="yes"/>
      <point x="458" y="303"/>
      <point x="446" y="273" type="qcurve" smooth="yes"/>
      <point x="430" y="233"/>
      <point x="401" y="233" type="qcurve" smooth="yes"/>
      <point x="370" y="233"/>
      <point x="348" y="262" type="qcurve"/>
      <point x="327" y="288"/>
      <point x="327" y="320" type="qcurve" smooth="yes"/>
      <point x="327" y="378"/>
      <point x="361" y="427" type="qcurve"/>
      <point x="306" y="504"/>
      <point x="239" y="504" type="qcurve" smooth="yes"/>
      <point x="165" y="504"/>
      <point x="77" y="420"/>
      <point x="77" y="346" type="qcurve" smooth="yes"/>
      <point x="77" y="317"/>
      <point x="136" y="187" type="qcurve" smooth="yes"/>
      <point x="192" y="64"/>
      <point x="216" y="35" type="qcurve" smooth="yes"/>
      <point x="219" y="32"/>
      <point x="219" y="28" type="qcurve" smooth="yes"/>
      <point x="219" y="17"/>
      <point x="190" y="-3"/>
      <point x="180" y="-3" type="qcurve" smooth="yes"/>
      <point x="171" y="-3"/>
      <point x="167" y="3" type="qcurve" smooth="yes"/>
      <point x="136" y="42"/>
      <point x="80" y="169" type="qcurve" smooth="yes"/>
      <point x="19" y="306"/>
      <point x="19" y="346" type="qcurve" smooth="yes"/>
      <point x="19" y="448"/>
      <point x="137" y="562"/>
      <point x="239" y="562" type="qcurve" smooth="yes"/>
      <point x="321" y="562"/>
      <point x="395" y="469" type="qcurve"/>
      <point x="436" y="509"/>
      <point x="563" y="563"/>
      <point x="618" y="563" type="qcurve" smooth="yes"/>
      <point x="714" y="563"/>
      <point x="857" y="426"/>
    </contour>
    <contour>
      <point x="400" y="336" type="qcurve" smooth="yes"/>
      <point x="399" y="354"/>
      <point x="392" y="366" type="qcurve"/>
      <point x="385" y="342"/>
      <point x="385" y="320" type="qcurve" smooth="yes"/>
      <point x="385" y="290"/>
      <point x="395" y="275" type="qcurve"/>
      <point x="401" y="286"/>
    </contour>
    <contour>
      <point x="818" y="-190" type="qcurve" smooth="yes"/>
      <point x="745" y="-190"/>
      <point x="664" y="-104"/>
      <point x="664" y="-37" type="qcurve" smooth="yes"/>
      <point x="664" y="5"/>
      <point x="709" y="37" type="qcurve" smooth="yes"/>
      <point x="726" y="48"/>
      <point x="785" y="77" type="qcurve" smooth="yes"/>
      <point x="791" y="79"/>
      <point x="795" y="79" type="qcurve" smooth="yes"/>
      <point x="813" y="79"/>
      <point x="813" y="47" type="qcurve" smooth="yes"/>
      <point x="813" y="35"/>
      <point x="803" y="30" type="qcurve" smooth="yes"/>
      <point x="776" y="17"/>
      <point x="744" y="4" type="qcurve"/>
      <point x="715" y="-13"/>
      <point x="715" y="-37" type="qcurve" smooth="yes"/>
      <point x="715" y="-79"/>
      <point x="740" y="-107" type="qcurve" smooth="yes"/>
      <point x="768" y="-139"/>
      <point x="818" y="-139" type="qcurve" smooth="yes"/>
      <point x="844" y="-139"/>
      <point x="876" y="-118" type="qcurve" smooth="yes"/>
      <point x="903" y="-100"/>
      <point x="929" y="-82" type="qcurve"/>
      <point x="943" y="-82"/>
      <point x="966" y="-106"/>
      <point x="957" y="-119" type="qcurve" smooth="yes"/>
      <point x="907" y="-190"/>
    </contour>
  </outline>
</glyph>
<glyph name="uni0AE2" format="1">
  <advance width="0"/>
  <unicode hex="0AE2"/>
  <outline>
    <contour>
      <point x="-264" y="-352" type="move" name="Anchor-8"/>
    </contour>
    <contour>
      <point x="-451" y="-22" type="move" name="_Anchor-6"/>
    </contour>
    <contour>
      <point x="-469" y="-160" type="qcurve"/>
      <point x="-474" y="-177"/>
      <point x="-474" y="-192" type="qcurve" smooth="yes"/>
      <point x="-474" y="-213"/>
      <point x="-467" y="-224" type="qcurve"/>
      <point x="-463" y="-216"/>
      <point x="-464" y="-181" type="qcurve" smooth="yes"/>
      <point x="-464" y="-168"/>
    </contour>
    <contour>
      <point x="-184" y="-185" type="line"/>
      <point x="-184" y="-134"/>
      <point x="-259" y="-62"/>
      <point x="-311" y="-62" type="qcurve" smooth="yes"/>
      <point x="-391" y="-62"/>
      <point x="-445" y="-120" type="qcurve"/>
      <point x="-423" y="-156"/>
      <point x="-423" y="-179" type="qcurve" smooth="yes"/>
      <point x="-423" y="-253"/>
      <point x="-463" y="-253" type="qcurve" smooth="yes"/>
      <point x="-484" y="-253"/>
      <point x="-514" y="-214"/>
      <point x="-514" y="-192" type="qcurve" smooth="yes"/>
      <point x="-514" y="-152"/>
      <point x="-491" y="-117" type="qcurve"/>
      <point x="-530" y="-63"/>
      <point x="-576" y="-63" type="qcurve" smooth="yes"/>
      <point x="-628" y="-63"/>
      <point x="-690" y="-122"/>
      <point x="-690" y="-174" type="qcurve" smooth="yes"/>
      <point x="-690" y="-195"/>
      <point x="-648" y="-285" type="qcurve"/>
      <point x="-609" y="-371"/>
      <point x="-593" y="-392" type="qcurve"/>
      <point x="-590" y="-394"/>
      <point x="-590" y="-397" type="qcurve" smooth="yes"/>
      <point x="-590" y="-404"/>
      <point x="-610" y="-418"/>
      <point x="-618" y="-418" type="qcurve" smooth="yes"/>
      <point x="-624" y="-418"/>
      <point x="-627" y="-414" type="qcurve" smooth="yes"/>
      <point x="-648" y="-387"/>
      <point x="-688" y="-298" type="qcurve" smooth="yes"/>
      <point x="-730" y="-202"/>
      <point x="-730" y="-174" type="qcurve" smooth="yes"/>
      <point x="-730" y="-103"/>
      <point x="-648" y="-23"/>
      <point x="-576" y="-23" type="qcurve" smooth="yes"/>
      <point x="-519" y="-23"/>
      <point x="-467" y="-88" type="qcurve"/>
      <point x="-399" y="-22"/>
      <point x="-311" y="-22" type="qcurve" smooth="yes"/>
      <point x="-244" y="-22"/>
      <point x="-143" y="-118"/>
      <point x="-143" y="-185" type="qcurve"/>
    </contour>
    <contour>
      <point x="-70" y="-401" type="qcurve" smooth="yes"/>
      <point x="-122" y="-476"/>
      <point x="-217" y="-476" type="qcurve" smooth="yes"/>
      <point x="-287" y="-476"/>
      <point x="-330" y="-445" type="qcurve" smooth="yes"/>
      <point x="-378" y="-410"/>
      <point x="-378" y="-342" type="qcurve" smooth="yes"/>
      <point x="-378" y="-299"/>
      <point x="-331" y="-265" type="qcurve" smooth="yes"/>
      <point x="-320" y="-257"/>
      <point x="-262" y="-224" type="qcurve" smooth="yes"/>
      <point x="-167" y="-169"/>
      <point x="-161" y="-169" type="qcurve" smooth="yes"/>
      <point x="-146" y="-169"/>
      <point x="-146" y="-196" type="qcurve" smooth="yes"/>
      <point x="-146" y="-205"/>
      <point x="-152" y="-208" type="qcurve" smooth="yes"/>
      <point x="-186" y="-228" type="line"/>
      <point x="-265" y="-272"/>
      <point x="-337" y="-309"/>
      <point x="-337" y="-342" type="qcurve" smooth="yes"/>
      <point x="-337" y="-435"/>
      <point x="-217" y="-435" type="qcurve" smooth="yes"/>
      <point x="-181" y="-435"/>
      <point x="-152" y="-413" type="qcurve" smooth="yes"/>
      <point x="-138" y="-403"/>
      <point x="-98" y="-373" type="qcurve" smooth="yes"/>
      <point x="-95" y="-371"/>
      <point x="-92" y="-371" type="qcurve"/>
      <point x="-92" y="-371" type="line"/>
      <point x="-81" y="-371"/>
      <point x="-63" y="-392"/>
    </contour>
  </outline>
</glyph>
